<?xml version="1.0" standalone="no"?>
<!DOCTYPE svg PUBLIC "-//W3C//DTD SVG 20010904//EN"
 "http://www.w3.org/TR/2001/REC-SVG-20010904/DTD/svg10.dtd">
<svg version="1.0" xmlns="http://www.w3.org/2000/svg"
 width="603.000000pt" height="309.000000pt" viewBox="0 0 603.000000 309.000000"
 preserveAspectRatio="xMidYMid meet">

<g transform="translate(0.000000,309.000000) scale(0.100000,-0.100000)"
fill="#000000" stroke="none">
<path d="M0 3000 l0 -90 3010 0 3010 0 0 90 0 90 -3010 0 -3010 0 0 -90z
m4324 8 c15 -25 -17 -57 -42 -42 -22 14 -28 44 -10 55 18 12 39 7 52 -13z
m-3099 0 c21 4 25 1 25 -22 0 -22 -3 -24 -22 -17 -21 7 -33 8 -63 1 -31 -7
-74 2 -79 16 -7 19 2 33 12 19 4 -6 26 -10 50 -10 30 0 42 4 43 15 0 8 3 10 5
4 3 -6 16 -9 29 -6z m2883 -15 c-4 -24 -38 -26 -38 -2 0 13 7 19 21 19 14 0
19 -5 17 -17z m355 3 c7 -18 -1 -26 -18 -19 -8 2 -11 11 -8 19 7 18 19 18 26
0z m87 -4 c0 -4 -11 -8 -26 -8 -23 -2 -24 -1 -7 11 17 13 33 11 33 -3z m80 5
c0 -8 -7 -14 -15 -14 -11 0 -12 4 -4 14 6 7 13 13 15 13 2 0 4 -6 4 -13z m17
-9 c-3 -8 -6 -5 -6 6 -1 11 2 17 5 13 3 -3 4 -12 1 -19z m34 -1 c-10 -9 -11
-8 -5 6 3 10 9 15 12 12 3 -3 0 -11 -7 -18z m39 11 c0 7 5 10 10 7 16 -10 11
-21 -10 -22 -13 -1 -20 4 -20 15 0 15 2 15 10 2 7 -11 10 -11 10 -2z m124 -3
c-3 -6 -13 -11 -23 -11 -10 0 -17 5 -15 11 3 6 13 11 23 11 10 0 17 -5 15 -11z
m-3364 -5 c0 -5 -5 -10 -11 -10 -5 0 -7 5 -4 10 3 6 8 10 11 10 2 0 4 -4 4
-10z m30 0 c0 -5 -2 -10 -4 -10 -3 0 -8 5 -11 10 -3 6 -1 10 4 10 6 0 11 -4
11 -10z m2700 -2 c0 -4 -9 -8 -21 -8 -11 0 -18 4 -15 8 3 5 12 9 21 9 8 0 15
-4 15 -9z"/>
<path d="M1220 2989 c0 -5 5 -7 10 -4 6 3 10 8 10 11 0 2 -4 4 -10 4 -5 0 -10
-5 -10 -11z"/>
<path d="M462 2763 c-8 -12 -13 -13 -31 -3 -27 14 -39 6 -22 -13 16 -20 85
-17 89 4 4 22 -25 32 -36 12z"/>
<path d="M328 2742 c-45 -33 -51 -45 -36 -77 14 -31 4 -43 -22 -27 -31 19 -57
14 -79 -13 -22 -29 -19 -82 8 -124 13 -20 16 -21 21 -6 5 15 7 15 19 1 10 -11
10 -23 2 -48 -5 -18 -13 -73 -17 -123 -7 -83 -20 -133 -77 -289 -15 -40 -11
-72 15 -139 9 -24 12 -25 23 -11 6 9 24 17 38 17 16 0 27 5 27 13 0 8 5 14 10
14 6 0 10 10 10 22 l0 22 22 -22 22 -22 13 28 c11 23 13 8 9 -106 -4 -107 -1
-145 13 -197 10 -36 16 -65 14 -65 -16 0 -42 24 -52 48 -9 20 -18 28 -29 25
-23 -6 -25 -53 -7 -136 9 -37 13 -72 10 -77 -3 -4 0 -21 7 -37 20 -50 18 -84
-9 -109 -19 -17 -22 -28 -17 -51 4 -15 12 -35 19 -43 9 -11 9 -42 2 -123 -6
-67 -13 -104 -18 -95 -7 10 -9 10 -10 -2 -1 -8 -1 -18 0 -22 0 -5 -6 -8 -14
-8 -12 0 -14 -7 -9 -26 5 -19 4 -25 -5 -20 -6 4 -11 14 -11 22 0 8 -8 14 -18
14 -20 0 -42 18 -42 34 0 6 4 5 8 -2 17 -26 41 0 53 56 7 32 16 64 20 73 5 9
8 52 8 95 1 43 1 103 1 132 1 32 -3 52 -10 52 -6 0 -8 5 -5 10 3 6 -1 10 -9
10 -9 0 -16 4 -16 10 0 5 -7 7 -15 4 -8 -4 -15 -1 -15 6 0 6 5 8 10 5 6 -3 10
-1 10 6 0 8 4 8 15 -1 21 -18 29 -6 20 27 -5 15 -7 34 -6 42 1 7 -2 10 -9 6
-6 -4 -9 -13 -6 -21 7 -17 -6 -18 -22 -2 -9 9 -12 9 -12 -1 0 -7 -5 -9 -10 -6
-6 4 -8 15 -5 26 4 12 2 19 -6 19 -7 0 -9 3 -6 6 4 4 13 1 22 -6 13 -10 15 -9
15 9 0 11 5 21 11 21 6 0 9 -7 5 -15 -3 -8 -1 -15 4 -15 6 0 10 10 10 23 0 21
-3 22 -100 21 -72 -2 -100 1 -97 10 5 15 51 20 75 7 14 -7 25 -6 40 5 12 8 26
13 31 9 5 -3 12 -1 16 5 4 6 11 8 16 5 10 -7 12 25 3 49 -4 12 -20 16 -56 16
-27 0 -57 4 -66 9 -9 5 -30 11 -47 12 l-30 4 -1 -92 c-1 -73 2 -93 14 -98 8
-3 20 -2 26 2 7 5 4 0 -7 -9 -10 -10 -15 -23 -11 -29 5 -8 3 -9 -5 -5 -7 5
-10 14 -7 22 3 8 1 14 -5 14 -14 0 -11 -411 3 -427 7 -9 7 -13 0 -13 -7 0 -11
-48 -11 -136 l-1 -135 107 2 c82 3 111 7 121 19 11 13 11 13 7 -1 -5 -13 3
-16 39 -17 35 -2 45 2 49 15 4 17 5 17 6 1 1 -15 13 -18 98 -17 57 0 100 5
104 11 4 6 12 7 20 2 21 -13 62 -14 76 -2 9 7 13 7 13 -1 0 -6 9 -11 21 -11
16 0 19 4 14 23 l-6 22 19 -21 c21 -24 101 -32 114 -11 6 9 8 9 8 0 0 -9 16
-13 45 -13 36 0 45 3 45 18 1 14 2 15 9 2 7 -12 36 -16 140 -18 129 -3 132 -2
141 20 l11 23 -5 -22 -4 -23 493 1 494 0 4 22 4 22 2 -22 c1 -20 6 -23 45 -23
27 0 48 6 57 16 11 13 14 13 21 0 7 -12 59 -15 363 -14 205 0 355 4 355 9 0 5
-4 9 -8 9 -5 0 -7 14 -4 30 4 28 2 30 -27 30 -17 0 -31 -5 -31 -11 0 -5 -4 -7
-10 -4 -15 9 -12 45 4 45 7 0 16 10 20 23 5 17 8 19 15 8 6 -9 11 -10 15 -2 4
6 12 9 17 6 16 -10 10 -23 -13 -27 -12 -2 -23 -8 -25 -15 -3 -8 8 -10 35 -6
24 3 42 1 46 -6 4 -6 1 -11 -8 -11 -12 0 -16 -10 -16 -39 l0 -39 170 -1 170 0
1 27 c0 15 4 35 8 45 6 17 8 16 21 -8 11 -20 11 -30 3 -45 -11 -17 -6 -18 102
-18 96 1 115 4 115 16 0 13 3 12 14 -3 13 -18 14 -17 21 13 3 18 13 32 20 32
11 0 11 6 2 33 -7 17 -16 35 -22 39 -6 5 -5 8 3 8 7 0 11 4 8 9 -3 4 1 17 9
27 14 17 15 15 12 -32 -2 -39 0 -51 10 -47 7 3 13 -2 13 -11 0 -9 6 -16 14
-16 17 0 29 69 15 86 -7 8 -3 12 16 12 21 0 25 -5 25 -29 0 -21 -4 -27 -15
-23 -8 4 -15 1 -15 -5 0 -6 4 -11 8 -11 4 0 19 -22 33 -50 22 -46 49 -72 35
-33 -6 16 -5 16 11 1 15 -14 43 -16 166 -15 113 1 147 4 147 14 0 7 7 13 15
13 10 0 12 -6 8 -17 -6 -16 -5 -16 10 -4 9 7 17 9 17 3 0 -14 398 -16 416 -1
11 9 14 8 15 -2 0 -8 5 -3 10 10 6 16 6 28 -1 35 -14 14 -13 23 6 30 13 5 15
-1 12 -36 l-3 -43 81 -3 82 -3 16 41 c16 39 33 57 22 23 -3 -10 -1 -25 4 -33
9 -13 11 -13 20 0 9 12 10 12 8 -5 -3 -18 3 -20 59 -23 56 -3 61 -1 56 16 -2
10 3 25 13 33 15 12 16 11 10 -18 l-7 -32 183 0 c141 0 188 4 205 15 20 12 22
12 17 -1 -4 -9 0 -15 10 -15 9 0 19 12 22 27 l7 26 18 -21 c17 -22 36 -31 24
-12 -3 5 -1 10 4 10 6 0 11 -7 11 -15 0 -18 12 -19 28 -3 10 10 15 10 22 -2 9
-13 10 -13 10 0 0 11 3 12 8 3 9 -14 92 -15 110 -1 8 7 12 7 12 -1 0 -7 5 -9
10 -6 16 10 12 45 -5 45 -14 0 -19 11 -12 26 1 3 -6 10 -16 16 -14 7 -16 13
-6 24 16 20 27 17 32 -8 l4 -23 2 23 c0 13 7 22 17 22 11 0 14 6 9 20 -5 15
-3 18 8 14 8 -3 18 0 23 7 4 7 3 10 -3 6 -6 -4 -13 0 -17 8 -3 8 -12 12 -21 9
-12 -5 -14 -1 -11 17 3 13 5 26 5 29 1 3 9 -8 20 -23 16 -24 19 -26 31 -12 10
12 16 13 27 4 7 -7 15 -10 16 -8 2 2 13 17 25 33 l22 29 0 -36 c0 -20 4 -38 8
-41 5 -3 6 8 4 25 -2 16 0 29 6 29 15 0 7 -64 -12 -91 -9 -13 -16 -19 -16 -14
0 6 -5 3 -10 -5 -9 -13 -10 -13 -11 0 -1 8 -1 18 0 23 0 4 -6 7 -14 7 -13 0
-14 -4 -4 -22 11 -22 10 -22 -7 -6 -16 16 -18 16 -31 0 -8 -9 -11 -11 -7 -3 4
9 2 12 -7 9 -17 -6 -35 -71 -20 -76 7 -2 6 -10 -1 -22 -7 -11 -9 -23 -5 -27 5
-4 12 -1 17 7 8 13 10 12 10 -2 0 -10 7 -18 16 -18 11 0 14 6 9 20 -4 11 -2
20 4 20 6 0 11 -9 11 -19 0 -16 6 -19 33 -18 17 1 37 9 44 17 11 13 12 13 13
-3 0 -15 8 -18 55 -16 46 2 55 5 49 18 -3 9 -9 22 -12 30 -3 9 -1 12 6 7 9 -5
12 9 11 50 -1 40 -4 52 -11 40 -5 -9 -14 -16 -21 -16 -9 0 -8 3 1 9 10 6 10
10 -2 20 -8 7 -12 19 -9 27 6 17 -13 19 -21 2 -3 -7 -4 -4 -3 7 1 11 8 26 15
34 17 18 31 0 27 -35 -1 -15 3 -24 11 -24 20 0 20 278 1 286 -7 2 -13 15 -14
27 0 12 1 16 4 10 3 -7 9 -13 14 -13 12 0 9 61 -4 77 -12 17 -37 5 -48 -23
-10 -27 -21 -30 -41 -11 -14 13 -51 19 -43 7 8 -14 -5 -37 -21 -37 -10 0 -11
4 -4 11 12 12 13 29 1 22 -16 -10 -18 18 -4 58 13 38 13 131 1 152 -8 12 14
113 36 166 9 20 15 47 14 60 -2 34 12 158 22 193 5 17 12 61 15 100 6 61 5 68
-8 57 -12 -10 -16 -10 -20 0 -3 7 -2 -6 0 -30 5 -33 3 -42 -8 -40 -8 2 -15 -7
-17 -20 -8 -52 -31 -10 -57 102 -5 23 -8 27 -15 16 -8 -13 -12 -12 -25 5 -21
27 -30 66 -17 74 14 9 -27 57 -57 66 -22 7 -23 5 -17 -20 l7 -27 -40 31 c-27
22 -49 31 -73 30 -51 -1 -128 11 -174 28 -72 26 -81 15 -38 -42 21 -27 49 -58
61 -68 13 -10 23 -25 23 -34 0 -11 -4 -13 -12 -5 -7 5 -23 13 -35 16 -22 7
-23 5 -23 -43 0 -62 -15 -74 -30 -24 -20 66 -53 123 -87 154 -39 34 -50 36
-56 12 -3 -10 -5 -4 -6 14 -1 26 2 31 15 26 9 -3 21 3 30 16 8 11 24 21 35 21
17 0 18 -3 9 -20 -14 -25 -6 -25 35 0 46 28 50 46 17 77 -23 21 -33 24 -72 20
-40 -5 -47 -3 -55 15 -18 40 -64 24 -49 -17 3 -8 -3 -27 -14 -42 -36 -51 -46
-195 -17 -239 14 -22 14 -24 -3 -24 -10 0 -22 -4 -27 -9 -6 -5 -20 -12 -32
-16 -17 -5 -23 -2 -23 10 0 9 -5 15 -11 13 -6 -2 -10 -7 -10 -11 1 -4 1 -14 1
-22 0 -9 6 -12 15 -9 20 8 19 -6 -2 -22 -26 -20 -31 -17 -48 23 -11 25 -12 40
-5 47 5 5 10 24 10 40 0 17 6 49 14 70 15 42 7 90 -21 133 -10 16 -13 34 -9
58 6 29 4 35 -11 35 -22 0 -45 -14 -44 -26 0 -5 -19 -8 -42 -6 -32 2 -50 -2
-70 -18 -15 -12 -27 -25 -27 -30 0 -5 15 -25 34 -45 31 -33 38 -36 70 -29 20
3 36 10 36 15 0 5 4 9 9 9 19 0 18 -180 -1 -264 -31 -134 -32 -153 -14 -181
23 -35 36 -31 36 12 0 42 7 41 13 -2 7 -58 77 -63 77 -6 0 31 18 34 23 4 3
-16 6 -79 6 -141 1 -63 3 -118 7 -123 3 -5 -2 -12 -10 -15 -9 -3 -16 -11 -16
-17 0 -12 80 -137 88 -137 2 0 2 24 -1 53 -4 28 -3 48 1 42 15 -22 59 -10 87
23 32 38 41 35 36 -16 -1 -20 -1 -35 2 -32 12 12 26 192 17 216 -8 21 -6 29
18 49 23 20 28 21 33 7 5 -13 7 -13 14 -2 13 22 33 -79 27 -143 l-4 -54 66 -7
c52 -5 71 -3 91 10 24 15 25 15 45 -18 11 -18 20 -39 20 -45 0 -7 6 -13 13
-13 9 0 9 -2 0 -8 -10 -6 -10 -16 -1 -45 6 -20 15 -37 19 -37 4 0 7 -8 7 -17
-2 -31 12 -90 32 -137 22 -48 20 -65 -10 -84 -17 -11 -20 -10 -20 8 0 11 -9
25 -20 32 -20 13 -28 48 -10 48 5 0 6 -8 3 -17 -6 -16 -5 -16 9 -3 10 10 14
27 10 48 -3 25 -9 32 -27 32 -13 0 -31 3 -40 7 -14 5 -16 2 -10 -18 7 -24 7
-24 -11 -4 -20 21 -46 28 -41 10 1 -5 8 -9 15 -9 17 2 15 -13 -4 -20 -22 -9
-24 -8 -24 9 0 18 -36 20 -43 3 -2 -8 -8 -9 -13 -4 -5 5 -4 11 4 13 6 3 10 9
7 14 -4 5 0 6 8 3 8 -3 18 -1 22 5 3 6 -2 11 -12 12 -10 0 -5 5 12 10 17 5 35
7 42 4 7 -2 15 0 18 5 7 11 53 3 72 -12 9 -7 10 -2 4 19 -6 22 -14 28 -37 29
-16 1 -38 -6 -48 -15 -11 -9 -16 -10 -12 -3 6 9 -1 12 -27 9 -18 -2 -40 -8
-47 -12 -10 -6 -12 -4 -7 8 3 10 2 17 -2 17 -5 0 -12 -6 -14 -12 -4 -10 -6
-10 -6 0 -2 20 -37 14 -54 -10 l-16 -23 -19 24 c-20 25 -56 26 -58 1 -1 -8 -2
-19 -3 -24 0 -6 -7 -2 -14 9 -10 13 -16 15 -21 6 -4 -6 -11 -9 -16 -6 -13 8 0
35 16 35 19 0 18 16 -2 24 -22 9 -36 -2 -29 -24 3 -10 1 -22 -6 -25 -16 -10
-30 16 -17 32 7 9 7 13 -1 13 -6 0 -13 -11 -17 -25 -3 -13 -12 -29 -19 -35 -8
-6 -11 -18 -8 -26 3 -8 -1 -14 -10 -14 -24 0 -31 -20 -11 -34 13 -10 18 -32
22 -96 3 -60 2 -81 -7 -76 -6 4 -11 3 -11 -2 0 -5 -12 -9 -27 -8 -22 1 -27 5
-25 21 8 59 11 154 6 182 -5 29 -9 32 -34 27 -20 -4 -29 -1 -34 11 -5 13 -2
16 10 11 16 -6 44 15 44 33 0 6 -12 11 -26 11 -14 0 -23 -4 -19 -9 8 -14 -9
-21 -25 -11 -11 7 -12 11 0 24 11 14 10 16 -4 10 -9 -3 -16 -1 -16 5 0 6 5 11
12 11 6 0 9 2 7 5 -3 2 -15 2 -27 -2 -20 -5 -21 -7 -6 -18 12 -8 15 -18 10
-31 -8 -18 -9 -18 -17 4 -4 12 -11 22 -15 22 -3 0 -3 -7 0 -16 5 -14 4 -15 -7
-5 -11 9 -17 8 -27 -4 -10 -13 -9 -15 8 -15 12 0 24 -4 27 -10 10 -17 35 -11
35 8 0 14 2 15 10 2 13 -21 12 -33 -2 -24 -7 5 -9 0 -6 -14 4 -13 0 -23 -8
-26 -8 -3 -14 -1 -14 4 0 17 -18 11 -23 -7 -3 -12 -5 -10 -6 7 l-1 25 -13 -24
c-18 -37 -37 -38 -37 -2 0 16 5 33 12 37 8 5 9 0 6 -14 -4 -12 -2 -20 3 -16
13 8 11 40 -3 52 -20 15 -82 27 -74 13 9 -15 -9 -14 -34 1 -16 11 -22 9 -34
-7 -9 -11 -16 -18 -17 -15 0 3 -2 14 -4 25 -2 11 -7 31 -11 44 -6 20 -4 22 13
17 29 -9 123 -14 123 -6 0 8 -8 9 -75 14 -62 4 -60 3 -46 20 9 11 7 22 -10 50
-12 20 -21 54 -21 78 -1 48 16 185 37 298 7 41 16 106 20 145 l6 69 -33 -38
c-18 -21 -33 -44 -33 -50 0 -15 -40 -20 -61 -8 -22 12 -44 89 -48 170 -4 71
-16 97 -16 33 0 -23 -7 -77 -16 -119 -12 -58 -22 -82 -41 -99 -37 -32 -50 -29
-64 17 -15 48 -39 74 -39 42 0 -19 -4 -21 -49 -15 -47 5 -50 4 -65 -24 -8 -17
-25 -33 -38 -36 l-22 -6 22 -24 23 -24 -27 -18 -27 -18 23 -17 c19 -14 22 -21
12 -32 -16 -20 -4 -58 31 -95 17 -18 29 -34 26 -36 -2 -2 -16 -11 -31 -20 -16
-10 -25 -23 -22 -31 4 -9 -7 -18 -32 -26 l-37 -13 27 -16 c14 -8 26 -21 26
-27 0 -7 7 -15 16 -18 23 -9 36 -7 29 3 -3 5 -1 12 4 15 5 4 12 -2 14 -11 4
-14 5 -14 6 4 1 16 12 25 48 37 25 9 47 15 48 13 12 -13 107 -249 125 -307 12
-41 27 -85 31 -98 11 -28 -19 -102 -41 -102 -13 0 -16 13 -16 70 1 57 -2 72
-18 83 -22 16 -76 20 -76 6 0 -17 -20 -9 -21 9 0 10 -3 12 -6 4 -3 -9 -9 -7
-21 6 -10 9 -14 13 -9 8 12 -16 8 -36 -7 -36 -7 0 -20 10 -29 23 -8 12 -19 18
-23 14 -5 -5 -1 -13 9 -18 9 -6 15 -14 12 -20 -10 -15 -25 -10 -25 7 0 11 -5
14 -17 9 -15 -5 -16 -4 -5 6 21 22 13 28 -18 12 -17 -8 -36 -13 -43 -10 -6 2
-18 -3 -25 -12 -12 -14 -13 -14 -8 1 3 11 0 18 -8 18 -8 0 -13 -8 -12 -17 0
-10 -6 -18 -14 -18 -10 0 -15 -11 -15 -35 0 -58 -14 -68 -45 -31 -15 17 -34
31 -41 31 -25 0 7 21 37 24 23 2 31 10 41 40 13 38 11 44 -40 98 -43 45 -74
-20 -41 -86 18 -36 18 -47 0 -23 -12 15 -18 17 -36 7 -12 -7 -31 -10 -41 -7
-10 3 -19 2 -19 -2 0 -4 -14 -6 -31 -6 -22 0 -35 8 -45 25 l-15 25 7 -25 c7
-29 7 -24 4 -75 -1 -22 -4 -32 -7 -23 -3 12 -14 18 -35 18 -22 0 -29 4 -25 15
4 8 2 17 -3 20 -6 4 -10 -3 -10 -14 0 -27 11 -52 20 -46 4 3 10 -2 14 -10 8
-21 -11 -19 -31 4 -9 11 -21 17 -27 14 -6 -4 -5 0 2 9 9 12 10 18 2 23 -6 4
-9 14 -6 22 4 10 -4 18 -24 26 -37 14 -34 31 6 33 41 2 42 3 13 19 -25 13 -27
20 -28 79 l-1 65 33 6 c17 3 57 4 88 1 31 -2 62 0 70 5 9 5 -33 9 -107 9
l-121 0 15 -54 c16 -60 11 -97 -18 -126 -27 -27 -34 -25 -46 8 -6 16 -18 29
-27 29 -11 0 -14 -4 -8 -11 5 -6 11 -24 13 -41 2 -22 9 -31 26 -33 16 -3 22
-10 22 -28 0 -13 5 -24 10 -24 6 0 10 -7 10 -15 0 -8 -7 -15 -15 -15 -8 0 -16
-4 -16 -10 -1 -5 -2 -13 -3 -17 -1 -7 -41 -77 -52 -92 -2 -1 -8 0 -14 4 -8 5
-8 10 0 20 8 10 7 14 -2 17 -10 4 -10 10 -1 31 10 22 10 28 -5 37 -15 10 -15
11 0 6 13 -4 28 11 28 28 0 1 -13 1 -30 -2 -23 -3 -30 0 -30 12 0 18 -42 16
-48 -2 -2 -7 -8 -12 -13 -12 -6 0 -8 4 -5 8 3 5 -4 15 -15 22 -10 8 -19 20
-19 27 0 17 20 17 21 1 0 -7 5 -3 11 10 7 13 17 21 25 18 11 -5 11 -1 2 17 -7
12 -14 17 -16 10 -3 -7 -10 -10 -17 -7 -12 5 -14 54 -2 72 3 5 -9 12 -26 16
-35 7 -28 26 11 29 11 1 21 5 21 9 0 14 -36 27 -58 21 -15 -4 -22 -1 -22 9 0
11 8 14 28 11 15 -2 64 -5 110 -6 60 -1 82 1 82 11 0 8 -21 12 -70 12 -49 0
-70 -4 -70 -12 0 -10 -2 -10 -8 -1 -5 7 -39 13 -87 15 l-80 3 -3 -27 c-2 -20
-9 -28 -23 -28 -26 0 -24 -23 4 -35 22 -10 27 -34 12 -68 -6 -15 -4 -17 19
-11 20 5 26 3 26 -11 0 -12 -5 -15 -20 -10 -11 4 -20 2 -20 -4 0 -6 3 -10 8
-10 33 5 45 -24 20 -50 -11 -10 -10 -11 5 -5 13 5 16 2 11 -10 -3 -9 -14 -16
-23 -16 -14 0 -14 -2 -1 -10 12 -7 12 -10 1 -10 -7 0 -11 -6 -7 -15 3 -8 1
-16 -4 -16 -6 -1 -15 -2 -20 -3 -6 0 -14 -6 -18 -11 -13 -18 -32 -15 -32 5 0
11 5 20 11 20 5 0 7 -4 4 -10 -3 -5 -2 -10 3 -10 6 0 13 7 16 16 3 8 2 13 -3
10 -5 -3 -11 1 -15 9 -4 10 1 15 16 15 17 0 19 3 10 12 -7 7 -12 17 -12 22 0
6 5 5 12 -2 9 -9 14 -7 24 6 8 9 13 24 13 32 0 13 -1 13 -12 -1 -18 -23 -46
-30 -61 -17 -11 11 -11 17 1 35 20 29 36 30 28 1 -6 -21 -5 -22 6 -4 9 14 9
24 1 37 -7 10 -9 26 -5 35 5 14 2 16 -15 12 -11 -3 -23 -1 -26 6 -2 6 -5 3 -5
-6 -1 -9 7 -21 16 -27 10 -5 15 -12 12 -16 -4 -3 -14 1 -22 10 -19 19 -27 19
-27 1 0 -8 -4 -18 -10 -21 -7 -4 -7 3 0 20 6 15 8 30 5 35 -3 5 1 11 7 13 10
4 10 6 1 6 -9 1 -10 8 -2 27 5 15 6 36 3 48 -6 19 -5 19 10 7 15 -13 19 -13
27 0 7 11 9 11 9 -4 0 -10 4 -16 10 -12 5 3 7 12 4 19 -6 17 -81 26 -150 19
l-52 -6 16 -36 c23 -50 24 -286 2 -321 -33 -52 -40 -78 -24 -84 8 -3 13 -2 10
3 -3 4 8 8 24 9 33 1 40 -17 15 -38 -12 -10 -15 -10 -15 2 0 11 -7 14 -26 10
-16 -3 -30 1 -35 9 -5 8 -9 9 -9 4 0 -16 -60 -18 -60 -3 0 10 -2 10 -9 -1 -7
-10 -10 -10 -16 -1 -4 7 -3 15 3 19 5 3 12 15 15 26 3 16 6 13 12 -14 7 -27
10 -30 17 -17 5 10 7 23 4 31 -2 7 1 15 8 18 6 3 17 22 24 43 10 32 9 39 -6
51 -14 11 -14 12 -1 8 9 -3 21 0 28 8 9 12 7 16 -9 20 -11 3 -20 11 -20 17 0
7 7 10 15 6 8 -3 15 -1 15 3 0 21 -26 16 -42 -8 -10 -14 -18 -21 -18 -14 0 6
5 15 10 18 6 4 8 15 5 25 -3 10 -1 21 5 25 5 3 10 1 10 -4 0 -16 12 -13 39 9
19 17 21 23 11 35 -7 8 -8 15 -3 15 6 0 8 11 5 25 -2 14 -8 22 -13 20 -4 -3
-6 -12 -2 -20 4 -11 1 -13 -13 -8 -17 6 -17 5 -5 -10 7 -9 10 -17 5 -17 -5 0
-2 -5 6 -10 12 -8 10 -10 -9 -10 -18 0 -21 3 -13 13 8 9 6 16 -8 25 -16 10
-20 8 -25 -8 -4 -11 -10 -18 -15 -15 -5 3 -10 0 -12 -6 -2 -6 -16 -12 -31 -12
-31 -2 -33 -9 -12 -31 19 -19 19 -30 -1 -22 -10 4 -13 2 -8 -6 5 -7 2 -9 -9
-5 -11 4 -14 2 -10 -9 4 -10 0 -12 -13 -7 -16 6 -17 5 -6 -9 10 -13 10 -18 1
-24 -8 -4 -9 -3 -5 4 4 7 1 12 -8 12 -19 0 -20 5 -5 32 10 18 9 20 -6 15 -19
-8 -50 12 -50 32 0 8 -7 17 -15 19 -12 4 -13 3 -3 -10 7 -8 10 -18 6 -22 -4
-4 -1 -11 7 -16 8 -5 11 -12 7 -16 -3 -4 -13 -2 -20 4 -8 7 -17 9 -20 6 -3 -4
-5 6 -4 21 1 15 -3 30 -10 32 -7 3 -9 -3 -6 -17 4 -14 1 -20 -8 -18 -7 2 -16
-10 -20 -27 -5 -25 -7 -26 -8 -7 -1 19 -5 22 -22 17 -21 -7 -22 -6 -15 61 4
38 11 86 17 107 9 33 13 36 34 31 15 -4 25 -2 25 5 0 6 -18 11 -41 11 -25 0
-38 -4 -34 -11 7 -10 -21 -79 -31 -79 -3 0 -15 5 -26 11 -20 11 -20 13 -5 24
16 12 16 13 -4 18 -14 4 -20 11 -16 20 4 12 -8 16 -61 19 -37 3 -78 1 -92 -3
-17 -5 -19 -8 -7 -8 45 -2 53 -114 11 -154 -28 -26 -29 -35 -10 -56 8 -9 20
-44 27 -78 11 -54 11 -67 -3 -96 -10 -22 -13 -39 -7 -49 10 -18 -15 -33 -34
-21 -7 4 -8 0 -4 -11 4 -10 5 -22 2 -27 -9 -14 -63 31 -69 57 -4 13 -15 28
-26 34 -26 14 -16 33 12 24 13 -4 24 -1 29 7 8 12 10 12 18 1 6 -11 9 -9 13 6
4 15 2 19 -8 15 -8 -3 -14 0 -14 6 0 6 7 11 15 11 8 0 15 4 15 10 0 5 -8 6
-17 3 -15 -6 -16 -4 -5 9 8 10 9 17 3 20 -6 1 -8 13 -4 26 3 14 11 21 19 18
16 -6 19 21 5 42 -6 10 -10 10 -21 -3 -10 -12 -15 -13 -20 -4 -9 14 -30 3 -30
-16 0 -7 6 -20 14 -27 14 -15 6 -50 -15 -64 -7 -4 -10 -3 -5 4 3 6 -3 16 -14
22 -11 6 -20 20 -20 32 0 18 2 19 17 7 15 -13 16 -11 9 14 -4 18 -2 27 5 27 8
0 6 7 -4 18 -10 10 -17 25 -17 32 0 10 -3 11 -11 3 -6 -6 -18 -9 -25 -6 -8 3
-14 0 -14 -6 0 -6 9 -11 19 -11 28 0 33 -14 10 -28 -16 -10 -19 -9 -19 3 0 9
-11 20 -25 25 -30 12 -33 36 -4 45 14 5 25 1 34 -12 14 -17 14 -17 15 0 0 10
4 16 9 12 5 -3 12 -1 16 5 3 5 -2 11 -12 12 -10 0 -24 2 -32 2 -8 1 -16 11
-17 23 -3 16 0 21 10 17 7 -3 16 1 19 9 4 11 -9 14 -61 16 -87 2 -92 3 -85 14
3 5 33 6 67 3 71 -6 94 2 77 30 -9 17 -10 17 -11 2 0 -13 -8 -18 -30 -18 -38
0 -39 17 -2 23 25 4 25 4 -5 6 -18 0 -33 -3 -33 -9 0 -5 -5 -10 -11 -10 -5 0
-7 5 -4 10 3 6 -3 10 -15 10 -12 0 -19 -4 -15 -9 3 -5 1 -12 -5 -16 -5 -3 -10
1 -10 10 0 9 -6 15 -13 12 -6 -2 -11 -9 -10 -15 2 -9 -17 -10 -75 -3 -7 0 -10
6 -7 11 4 6 -39 10 -122 9 -70 -1 -117 -4 -103 -8 l25 -7 -27 -7 c-14 -4 -34
-4 -42 -1 -10 4 -16 1 -17 -7 0 -8 -4 -5 -9 6 -11 26 -12 44 -1 26 6 -9 14
-10 25 -4 15 8 15 11 3 21 -8 7 -25 13 -39 14 -15 1 -24 7 -21 14 9 24 -20 27
-38 3 l-19 -24 0 23 c0 12 -4 22 -10 22 -5 0 -10 -10 -10 -21 0 -17 -5 -20
-25 -17 -14 3 -27 2 -30 -2 -2 -3 -21 -6 -42 -4 -44 2 -93 -13 -94 -30 0 -6
-7 9 -15 34 -11 37 -12 55 -2 100 7 30 13 114 14 185 1 72 6 189 9 262 9 153
4 191 -32 233 -34 40 -42 31 -10 -12 57 -76 39 -137 -21 -68 -18 22 -46 49
-63 61 l-30 21 7 -29 c6 -27 6 -27 -9 -8 -16 20 -16 20 -17 -3 0 -12 -7 -25
-15 -28 -17 -7 -72 13 -82 29 -3 6 -1 7 6 3 7 -4 15 2 20 15 7 21 3 25 -48 47
-69 30 -146 48 -231 56 -64 6 -65 6 -40 -12 54 -38 79 -64 99 -102 11 -22 16
-40 11 -40 -5 0 -7 -6 -4 -14 3 -7 -2 -16 -10 -19 -11 -5 -14 -14 -10 -37 8
-39 -8 -39 -37 1 -14 20 -24 27 -29 19 -9 -14 -58 6 -82 35 -16 18 -17 18 -18
3 0 -22 -20 -24 -20 -3 0 16 -16 20 -24 6 -3 -4 3 -16 14 -26 27 -25 25 -38
-5 -31 -14 4 -25 2 -25 -4 0 -13 -37 -13 -45 0 -3 5 -12 7 -20 3 -18 -6 -20
18 -3 35 9 9 7 16 -6 31 -10 11 -15 25 -11 31 8 12 -40 90 -55 90 -6 0 -10 16
-10 35 0 28 4 35 19 35 23 0 61 -45 61 -71 0 -9 6 -24 13 -31 8 -7 19 -23 26
-36 17 -31 33 -28 20 5 -7 20 -6 28 3 35 12 7 4 12 -15 9 -5 -1 -6 3 -3 8 4 5
1 13 -5 16 -16 10 -4 46 36 105 39 57 44 93 18 110 -15 10 -16 12 -3 17 21 8
82 74 75 81 -3 3 -18 -4 -33 -15 -65 -48 -85 -54 -143 -38 -50 13 -55 13 -69
-4 -11 -12 -22 -15 -35 -11 -11 4 -26 3 -33 -3 -9 -7 -11 -6 -7 4 5 15 -36 39
-67 39 -25 0 -23 -14 6 -35 14 -11 22 -25 19 -35 -5 -20 12 -36 22 -20 3 5 19
10 34 10 21 0 40 -12 70 -45 23 -25 47 -43 53 -39 6 4 9 1 6 -7 -2 -8 -17 -15
-31 -17 -20 -3 -25 0 -21 11 9 25 -16 31 -33 8 l-15 -22 -33 28 c-19 15 -48
38 -64 51 -21 16 -29 30 -28 49 1 19 -5 30 -21 39 -42 21 -46 31 -28 58 9 14
16 28 16 31 0 12 -28 2 -62 -23z m349 -128 c-3 -3 -12 -4 -19 -1 -8 3 -5 6 6
6 11 1 17 -2 13 -5z m-377 -368 c0 -16 -20 -24 -20 -8 0 4 -3 18 -7 32 -6 23
-6 24 10 8 9 -9 17 -24 17 -32z m5247 -9 c5 -6 18 -55 33 -122 14 -63 48 -135
64 -135 17 0 36 -56 28 -79 -4 -9 -11 2 -20 27 -14 43 -37 58 -71 47 -11 -3
-23 -15 -26 -26 -4 -10 -14 -19 -24 -19 -14 0 -17 10 -18 58 -1 33 -11 79 -23
106 -26 61 -19 73 10 17 23 -45 40 -53 40 -18 0 13 5 28 11 34 15 15 -12 66
-51 93 -16 12 -30 25 -30 30 0 8 67 -4 77 -13z m67 -6 c3 -4 17 -6 31 -3 27 5
66 -23 86 -60 17 -31 -6 -19 -24 12 -10 17 -25 30 -33 30 -12 0 -11 -6 5 -29
12 -16 21 -33 21 -37 0 -4 8 -17 19 -28 25 -28 37 -78 17 -70 -9 3 -18 14 -21
25 -4 10 -22 31 -40 45 -19 14 -39 41 -45 60 -7 19 -23 42 -36 51 -29 18 -33
38 -5 23 11 -5 22 -14 25 -19z m-4357 -83 c-3 -8 -6 -5 -6 6 -1 11 2 17 5 13
3 -3 4 -12 1 -19z m-920 -115 c-3 -10 -5 -4 -5 12 0 17 2 24 5 18 2 -7 2 -21
0 -30z m5241 -118 c-3 -14 1 -30 8 -36 19 -16 17 -33 -6 -54 -25 -23 -39 -12
-16 14 15 16 15 19 1 31 -11 9 -13 16 -5 24 5 5 10 18 10 28 0 10 3 18 6 18 4
0 4 -11 2 -25z m235 -50 c-3 -9 -8 -14 -10 -11 -3 3 -2 9 2 15 9 16 15 13 8
-4z m-4554 -82 c8 -20 15 -66 17 -101 1 -35 5 -67 8 -70 3 -3 6 -19 6 -37 0
-17 5 -36 11 -42 5 -5 12 -30 14 -54 2 -24 7 -62 12 -84 10 -46 6 -88 -8 -80
-5 4 -9 -5 -9 -19 0 -14 5 -28 10 -31 19 -12 11 -26 -9 -15 -27 14 -34 13 -28
-5 4 -8 2 -17 -3 -20 -10 -6 -2 -36 12 -45 4 -4 -8 -6 -27 -6 -31 0 -35 3 -34
26 1 14 -2 33 -6 43 -5 12 -3 17 8 17 10 0 13 -7 10 -20 -6 -24 12 -27 21 -3
8 20 -19 44 -40 36 -8 -3 -14 -14 -14 -25 0 -10 -4 -16 -10 -13 -5 3 -10 1
-10 -5 0 -6 -4 -8 -10 -5 -5 3 -10 2 -10 -4 0 -6 -11 -21 -24 -34 l-23 -23 1
35 c1 28 5 36 20 36 11 0 21 6 24 13 2 6 -1 12 -6 12 -5 0 -13 7 -16 16 -3 8
-2 12 4 9 13 -8 13 18 1 31 -6 5 -4 35 6 77 14 61 17 67 37 62 19 -6 20 -5 4
8 -10 8 -18 26 -18 39 0 14 -7 42 -15 61 -8 20 -15 66 -15 104 0 66 1 68 42
110 23 24 45 43 48 43 3 0 12 -17 19 -37z m3311 -90 c0 -23 -4 -45 -10 -48
-14 -9 -23 40 -15 82 9 47 25 26 25 -34z m1193 -51 c4 -21 3 -31 -3 -27 -6 3
-10 20 -10 37 0 38 5 34 13 -10z m-4796 -12 c-6 -23 5 -26 23 -6 22 27 38 6
45 -60 4 -35 13 -78 22 -94 11 -23 15 -67 15 -178 0 -134 -2 -151 -22 -185
-24 -40 -60 -51 -60 -18 0 11 -4 23 -10 26 -6 4 -7 -1 -4 -12 5 -15 4 -15 -4
-3 -6 8 -9 17 -6 21 2 4 0 10 -6 14 -6 4 -8 11 -4 16 3 6 11 3 18 -7 11 -14
12 -11 10 19 -2 22 3 40 11 47 12 10 15 10 16 -1 0 -8 5 -3 10 11 6 15 6 26 1
28 -6 2 -8 12 -5 22 3 11 0 20 -6 20 -6 0 -11 16 -11 35 0 34 -1 35 -40 35
-33 0 -40 -3 -40 -20 0 -11 6 -20 14 -20 8 0 16 -6 19 -12 2 -7 8 -10 12 -6 4
4 2 15 -6 25 -12 15 -12 16 4 10 10 -4 21 -7 23 -7 2 0 4 -9 4 -20 0 -11 -5
-20 -11 -20 -5 0 -7 -6 -3 -12 4 -7 -2 -5 -13 5 -11 9 -25 17 -31 17 -7 0 -12
5 -12 10 0 6 -8 10 -18 10 -22 0 -64 29 -57 40 2 4 -6 10 -20 12 -13 3 -23 1
-22 -5 1 -5 -4 -12 -10 -14 -7 -3 -13 1 -13 7 0 7 -8 9 -19 5 -12 -3 -21 0
-25 10 -4 10 -2 14 5 9 8 -4 9 1 4 17 -5 18 -4 20 4 9 5 -8 13 -11 17 -8 10
10 -4 40 -16 33 -6 -3 -7 1 -4 10 6 14 8 13 21 -5 18 -25 39 -26 39 -1 0 11
-3 18 -7 15 -4 -2 -9 1 -12 8 -2 7 -3 5 -1 -6 3 -18 2 -18 -15 0 -13 14 -15
26 -9 54 4 19 10 56 13 82 l6 47 87 4 c48 1 91 4 96 5 4 1 6 -7 3 -18z m-357
-49 l0 -28 -72 0 c-63 0 -69 1 -43 10 16 6 43 19 60 29 42 25 55 23 55 -11z
m4610 5 c0 -11 -19 -15 -25 -6 -3 5 1 10 9 10 9 0 16 -2 16 -4z m-3720 -36 c0
-5 -4 -10 -10 -10 -5 0 -10 5 -10 10 0 6 5 10 10 10 6 0 10 -4 10 -10z m4271
-65 c3 -41 0 -50 -14 -53 -9 -2 -17 -7 -17 -12 0 -5 6 -7 14 -4 18 7 26 -25
12 -47 -9 -15 -11 -15 -26 0 -29 27 -33 105 -9 153 25 49 36 39 40 -37z
m-4231 33 c0 -3 -9 -4 -19 -1 -16 4 -17 8 -8 18 11 12 26 3 27 -17z m-1097
-13 c5 -6 6 -1 3 10 -6 21 -8 21 138 16 23 -1 25 -6 31 -73 5 -57 3 -82 -10
-112 -15 -35 -15 -41 0 -80 9 -22 25 -50 35 -61 14 -15 21 -42 25 -100 3 -44
11 -85 16 -92 6 -7 8 -17 4 -23 -11 -17 -37 -11 -42 10 -8 31 -20 23 -15 -10
3 -24 1 -30 -15 -30 -10 0 -24 -5 -31 -12 -8 -8 -12 -8 -12 -1 0 6 6 13 14 16
8 3 14 20 14 39 0 18 2 49 6 68 3 19 4 29 0 23 -10 -23 -24 -14 -24 15 0 20 3
23 10 12 11 -17 17 -12 20 15 6 52 -2 93 -20 113 -11 12 -20 26 -20 33 0 8 -5
7 -16 -2 -9 -7 -23 -14 -32 -15 -9 -2 -4 7 14 21 16 13 33 24 37 25 5 0 5 5 1
11 -3 6 0 15 7 20 10 6 11 9 2 9 -7 0 -13 7 -13 15 0 8 -7 15 -15 15 -13 0
-14 -4 -5 -21 6 -11 9 -25 6 -32 -2 -7 -5 -4 -5 6 -1 9 -5 17 -10 17 -5 0 -11
9 -14 20 -3 13 -10 18 -21 14 -11 -4 -16 -1 -16 10 0 12 5 14 23 7 12 -5 33
-8 46 -7 32 1 40 26 9 27 -12 0 -17 3 -10 6 6 2 10 9 7 14 -4 5 1 6 9 3 11 -4
16 0 16 10 0 9 -8 16 -20 16 -14 0 -18 5 -14 18 5 13 4 14 -4 3 -6 -8 -17 -11
-25 -8 -9 3 -17 1 -19 -5 -3 -7 -9 -8 -19 -3 -7 5 -21 10 -29 10 -8 1 -25 2
-37 3 -18 2 -23 8 -23 28 0 24 2 25 18 13 9 -8 21 -18 25 -24z m1177 23 c0 -5
-13 -8 -30 -8 -16 0 -30 4 -30 10 0 5 13 8 30 7 16 -1 30 -5 30 -9z m50 2 c12
-8 11 -10 -7 -10 -12 0 -25 5 -28 10 -8 13 15 13 35 0z m190 -4 c-7 -7 -14 -6
-21 1 -9 9 -7 12 9 10 14 -1 18 -5 12 -11z m53 7 c-7 -2 -19 -2 -25 0 -7 3 -2
5 12 5 14 0 19 -2 13 -5z m52 -3 c3 -5 2 -10 -4 -10 -5 0 -13 5 -16 10 -3 6
-2 10 4 10 5 0 13 -4 16 -10z m35 6 c0 -3 -4 -8 -10 -11 -5 -3 -10 -1 -10 4 0
6 5 11 10 11 6 0 10 -2 10 -4z m574 -31 c-4 -24 -2 -35 6 -35 7 0 3 -12 -10
-30 -17 -24 -25 -28 -40 -20 -16 8 -19 6 -23 -18 -2 -15 -5 -1 -6 31 0 33 3
57 9 57 7 0 7 6 0 19 -15 29 -13 31 30 31 l41 0 -7 -35z m2038 -20 c2 -19 0
-35 -4 -35 -4 0 -8 16 -8 35 0 19 2 35 4 35 2 0 6 -16 8 -35z m-3078 19 c30
-12 16 -19 -34 -17 -27 1 -52 -2 -55 -8 -5 -6 -12 -6 -22 3 -13 11 -13 13 4
19 23 9 86 11 107 3z m115 -4 c66 0 41 -13 -29 -15 -46 -1 -60 2 -60 13 0 10
7 12 23 8 12 -3 42 -6 66 -6z m331 1 c0 -5 -7 -12 -16 -15 -14 -5 -15 -4 -4 9
14 17 20 19 20 6z m106 -5 c20 -20 18 -24 -10 -22 -13 0 -22 4 -19 9 2 4 -4 7
-14 8 -16 0 -16 1 2 9 11 5 21 9 23 9 2 1 10 -5 18 -13z m-1966 -6 c0 -5 -5
-10 -11 -10 -5 0 -7 5 -4 10 3 6 8 10 11 10 2 0 4 -4 4 -10z m1642 -5 c11 -14
10 -25 -2 -25 -5 0 -10 6 -10 14 0 8 -9 12 -25 11 -14 -2 -25 1 -25 6 0 12 53
7 62 -6z m38 5 c0 -5 -5 -10 -11 -10 -5 0 -7 5 -4 10 3 6 8 10 11 10 2 0 4 -4
4 -10z m70 -2 c0 -12 -38 -10 -45 2 -4 6 5 9 19 8 15 -1 26 -6 26 -10z m64 3
c3 -5 -6 -8 -20 -8 -19 0 -22 2 -13 8 18 11 26 11 33 0z m-444 -32 c7 13 11
13 26 0 13 -11 18 -11 21 -1 3 6 11 12 19 12 8 0 11 -6 8 -15 -4 -9 -1 -15 7
-15 10 0 10 -3 1 -12 -8 -8 -15 -8 -24 -1 -14 11 -53 11 -64 1 -3 -4 -12 -4
-20 -1 -11 4 -13 -2 -8 -28 4 -28 3 -31 -6 -16 -6 9 -15 15 -21 12 -5 -4 -9
-2 -9 4 0 5 4 12 10 16 5 3 6 13 3 22 -5 13 -2 15 11 10 15 -6 17 -3 13 15 -6
23 -6 23 9 3 12 -17 16 -17 24 -6z m-1045 1 c3 -6 -1 -7 -9 -4 -18 7 -21 14
-7 14 6 0 13 -4 16 -10z m1250 -10 c4 6 14 8 24 5 9 -4 23 -8 31 -10 8 -2 15
-4 15 -5 0 -1 9 -3 20 -5 11 -2 21 -8 23 -13 2 -6 11 -8 22 -5 15 4 19 0 18
-18 -2 -32 -16 -49 -42 -49 -20 1 -20 2 -3 14 23 17 22 33 -3 41 -11 3 -27 13
-35 21 -9 9 -15 11 -15 4 0 -6 -5 -8 -11 -4 -6 3 -16 0 -21 -7 -6 -10 -7 -6
-3 11 5 21 4 22 -5 8 -14 -23 -40 -23 -40 -2 0 14 -3 14 -15 4 -9 -7 -12 -16
-7 -19 5 -3 14 -16 21 -29 10 -19 15 -21 27 -11 8 6 18 8 22 4 4 -4 2 -10 -4
-12 -9 -3 -8 -18 2 -56 16 -62 17 -67 4 -47 -7 11 -10 11 -10 2 0 -7 -5 -10
-10 -7 -6 4 -8 16 -4 27 4 15 3 18 -6 13 -10 -6 -11 -1 -7 17 9 33 -23 74 -43
55 -10 -10 -12 -7 -7 12 4 16 0 29 -11 39 -16 13 -16 13 2 8 13 -5 17 -2 13 8
-8 21 15 26 35 9 11 -10 18 -11 23 -3z m-1151 -14 c-3 -9 -13 -16 -22 -16 -13
0 -12 3 4 19 22 21 27 21 18 -3z m1394 4 c-7 -10 -14 -17 -17 -15 -4 4 18 35
25 35 2 0 -1 -9 -8 -20z m48 -1 c3 -19 4 -20 17 -12 6 4 17 8 24 9 69 11 95
13 90 7 -4 -3 1 -15 10 -26 17 -19 17 -20 1 -14 -10 4 -18 2 -18 -2 0 -15 27
-20 39 -8 9 9 11 8 6 -5 -4 -11 -2 -18 4 -18 6 0 11 12 11 27 0 14 3 23 8 19
4 -4 7 -20 7 -34 0 -20 4 -26 18 -24 9 2 17 -1 17 -6 0 -15 -32 -24 -44 -12
-15 15 -36 -70 -22 -90 9 -13 9 -13 -5 -2 -10 8 -15 21 -12 35 4 18 3 19 -6 7
-10 -13 -13 -12 -26 4 -12 16 -15 17 -15 4 0 -20 -24 -30 -39 -15 -17 17 -13
24 14 31 32 8 33 25 0 22 -20 -3 -24 1 -23 20 2 22 4 22 20 7 25 -23 23 2 -2
29 -14 16 -20 18 -20 7 -1 -11 -4 -10 -14 4 -18 23 -25 22 -36 -8 -5 -14 -14
-25 -20 -25 -7 0 -7 7 1 21 6 12 7 19 1 15 -15 -9 -23 23 -9 39 12 13 21 11
23 -6z m-1880 -6 c-12 -12 -58 -15 -51 -3 3 5 18 10 32 10 15 0 23 -3 19 -7z
m56 -22 c-4 -27 -5 -28 -21 -13 -15 16 -15 18 4 29 11 6 20 11 21 12 0 1 -1
-12 -4 -28z m3298 -15 c0 -4 -7 -6 -15 -3 -8 4 -17 1 -21 -5 -4 -7 -3 -8 4 -4
7 4 12 2 12 -4 0 -6 -7 -10 -17 -8 -21 4 -29 48 -8 48 8 0 15 5 15 12 0 13 29
-22 30 -36z m-3025 24 c-3 -5 -11 -10 -16 -10 -6 0 -7 5 -4 10 3 6 11 10 16
10 6 0 7 -4 4 -10z m1175 -20 c0 -15 -28 -19 -34 -5 -3 10 0 12 11 8 12 -5 14
-3 8 7 -5 9 -4 11 3 6 7 -4 12 -11 12 -16z m3167 -16 c9 4 22 1 29 -5 7 -6 18
-8 24 -4 5 3 10 0 10 -9 0 -8 6 -17 13 -20 6 -4 2 -4 -10 -2 -15 2 -20 0 -16
-9 3 -9 -2 -12 -14 -10 -10 2 -20 4 -23 4 -3 1 1 5 9 10 8 5 10 14 6 22 -6 9
-10 8 -15 -7 -5 -12 -17 -19 -34 -19 -26 -1 -37 20 -13 28 8 3 4 12 -13 26
-17 15 -19 21 -8 17 10 -3 21 0 25 7 5 8 9 4 11 -11 3 -17 8 -22 19 -18z
m-4747 -9 c0 -5 -5 -3 -10 5 -5 8 -10 20 -10 25 0 6 5 3 10 -5 5 -8 10 -19 10
-25z m92 7 c-7 -2 -20 0 -30 4 -9 4 -21 6 -25 5 -5 -1 -6 3 -3 8 4 6 18 6 38
-1 18 -6 27 -13 20 -16z m1401 22 c12 -4 10 -10 -9 -31 -24 -26 -33 -50 -14
-38 6 3 10 1 10 -4 0 -17 -15 -13 -41 10 -22 19 -22 21 -4 17 14 -2 20 3 20
17 0 11 5 23 10 27 12 9 10 9 28 2z m266 -9 c15 -9 14 -22 -2 -28 -7 -3 -23 5
-35 18 l-21 22 24 -2 c13 -2 29 -6 34 -10z m3622 -27 c7 -13 5 -15 -12 -11
-12 4 -18 11 -15 20 3 8 6 20 7 26 0 7 3 5 6 -3 3 -8 10 -22 14 -32z m-3521
22 c0 -5 -4 -10 -10 -10 -5 0 -10 5 -10 10 0 6 5 10 10 10 6 0 10 -4 10 -10z
m3330 -28 c-9 -3 -9 -7 1 -13 10 -6 6 -9 -12 -9 -15 0 -29 7 -32 14 -4 11 -1
13 10 9 12 -5 14 -1 8 18 l-8 24 22 -20 c14 -12 18 -21 11 -23z m81 16 c1 -7
1 -19 0 -25 -1 -7 8 -13 19 -13 14 0 24 -8 27 -20 5 -20 6 -20 25 2 20 22 20
22 14 2 -4 -13 -1 -26 8 -33 12 -10 14 -8 9 11 -4 18 -3 20 6 8 7 -10 11 -11
11 -2 0 6 5 12 10 12 6 0 10 -8 8 -17 -3 -17 22 -26 32 -12 14 20 57 19 79 -1
27 -22 41 -19 21 5 -10 13 -9 15 9 15 25 0 25 1 6 -41 -8 -19 -14 -27 -15 -18
0 11 -8 16 -24 15 -15 0 -22 -6 -18 -15 3 -9 -1 -12 -14 -9 -11 2 -18 11 -18
21 2 24 -17 21 -23 -3 -6 -22 -40 -23 -35 -2 4 23 -14 12 -25 -15 -10 -26 -11
-26 -12 -5 -1 12 -6 22 -12 22 -7 0 -9 -10 -7 -25 3 -14 2 -28 -2 -30 -4 -3
-11 -26 -15 -52 -6 -40 -9 -45 -19 -31 -9 12 -16 14 -31 5 -14 -7 -20 -7 -23
1 -2 7 -9 9 -14 6 -7 -4 -8 -2 -4 5 4 6 12 9 17 6 13 -9 11 29 -3 43 -9 9 -9
15 0 24 19 19 14 49 -13 70 -14 11 -25 24 -25 30 0 6 9 3 20 -7 20 -18 20 -17
20 13 0 25 -4 32 -20 32 -11 0 -20 7 -20 15 0 9 6 12 15 9 8 -4 15 -1 15 5 0
15 20 14 21 -1z m-3564 -29 c-6 -10 -13 -15 -15 -9 -6 17 7 42 18 35 6 -4 5
-13 -3 -26z m290 4 c-3 -3 -11 -2 -17 2 -9 6 -9 10 1 16 14 8 27 -7 16 -18z
m950 20 c-4 -3 -2 -12 3 -18 7 -9 6 -16 -5 -25 -17 -14 -21 -35 -5 -25 6 3 10
-1 10 -11 0 -13 -3 -14 -13 -5 -8 6 -16 8 -19 5 -4 -3 -5 10 -5 28 2 33 14 57
31 58 5 0 6 -3 3 -7z m-1537 -23 c0 -13 -5 -18 -15 -14 -16 7 -19 17 -8 27 12
13 23 7 23 -13z m94 5 c3 -8 1 -15 -4 -15 -6 0 -10 7 -10 15 0 8 2 15 4 15 2
0 6 -7 10 -15z m1022 -6 c14 -16 15 -23 7 -26 -22 -8 -14 -22 15 -25 25 -3 28
-7 35 -63 12 -98 13 -156 2 -165 -15 -13 -65 -6 -75 10 -4 7 -6 19 -3 27 3 7
-2 13 -11 13 -14 0 -15 4 -6 20 6 11 17 20 25 20 8 0 15 7 15 16 0 12 -3 14
-13 6 -10 -8 -21 -6 -42 10 -17 11 -22 18 -12 14 11 -4 17 0 18 12 1 16 2 16
6 0 2 -10 9 -18 14 -18 14 0 11 46 -5 85 -13 30 -13 34 2 40 16 6 16 7 0 19
-21 16 -23 26 -5 26 8 0 22 -10 33 -21z m629 -34 c-5 -26 -4 -28 7 -14 10 12
19 14 36 8 24 -9 26 -33 4 -35 -7 -1 -17 -2 -23 -3 -5 0 -7 -6 -3 -12 5 -8 9
-8 14 1 5 8 9 8 13 -3 3 -9 0 -20 -7 -27 -10 -8 -15 -7 -20 5 -3 9 -11 13 -18
9 -8 -5 -9 -2 -5 9 4 12 1 17 -9 17 -12 0 -15 -6 -10 -25 4 -16 2 -25 -5 -25
-7 0 -9 13 -5 38 6 41 12 79 15 102 1 13 2 13 11 0 6 -8 8 -28 5 -45z m1431
41 c8 -8 14 -32 14 -53 l0 -38 -20 38 c-29 55 -26 85 6 53z m451 -22 c-2 -2
-12 -2 -21 2 -13 5 -14 9 -5 21 11 12 14 12 22 -2 5 -9 7 -19 4 -21z m723 26
c0 -5 -4 -10 -10 -10 -5 0 -10 5 -10 10 0 6 5 10 10 10 6 0 10 -4 10 -10z
m-5020 -15 c0 -8 -4 -15 -10 -15 -5 0 -7 7 -4 15 4 8 8 15 10 15 2 0 4 -7 4
-15z m804 -12 c-1 -15 2 -33 7 -39 7 -8 0 -13 -23 -17 -41 -6 -49 0 -17 12 17
7 19 10 7 10 -22 1 -24 21 -2 21 8 0 12 5 9 10 -7 11 2 30 14 30 5 0 7 -12 5
-27z m51 17 c4 -6 11 -8 16 -5 13 8 29 -38 22 -64 -4 -17 -23 -31 -23 -17 0 2
-3 12 -6 20 -5 12 -2 15 11 10 13 -5 16 -3 13 7 -3 9 -17 13 -37 12 -26 -1
-31 2 -27 13 3 9 6 20 6 25 0 12 17 12 25 -1z m362 -5 c0 -18 -13 -20 -20 -2
-3 7 -6 4 -6 -6 -1 -10 -6 -15 -11 -12 -8 5 -7 11 1 21 15 18 36 18 36 -1z
m1233 5 c0 -5 -2 -10 -4 -10 -3 0 -8 5 -11 10 -3 6 -1 10 4 10 6 0 11 -4 11
-10z m-1863 -117 c-4 -65 -10 -128 -13 -140 -8 -28 -24 -20 -24 12 0 13 -5 27
-10 30 -6 4 -4 12 5 21 8 9 15 25 15 37 0 16 -3 18 -12 9 -18 -18 -27 -15 -21
8 3 11 10 17 15 14 5 -3 15 2 23 12 12 16 11 22 -3 37 -15 17 -15 19 0 28 10
5 14 17 11 29 -3 12 0 20 7 20 10 0 12 -26 7 -117z m3381 86 c17 -16 32 -31
32 -32 0 -6 -46 -1 -56 5 -12 8 -25 58 -15 58 3 0 21 -14 39 -31z m248 14 c-1
-13 5 -17 22 -16 23 3 26 -4 16 -31 -6 -15 -8 -15 -20 1 -9 12 -13 14 -14 5 0
-7 -4 -11 -9 -7 -5 3 -12 1 -16 -5 -12 -19 -20 -10 -20 24 0 19 3 32 7 30 4
-2 9 0 13 6 10 16 23 12 21 -7z m624 13 c0 -2 -7 -7 -16 -10 -8 -3 -12 -2 -9
4 6 10 25 14 25 6z m-3836 -21 c-6 -16 -24 -21 -24 -7 0 11 11 22 21 22 5 0 6
-7 3 -15z m476 0 c0 -8 -4 -15 -10 -15 -5 0 -7 7 -4 15 4 8 8 15 10 15 2 0 4
-7 4 -15z m3525 4 c11 -16 1 -19 -13 -3 -7 8 -8 14 -3 14 5 0 13 -5 16 -11z
m-5325 -19 c0 -5 -4 -10 -10 -10 -5 0 -10 5 -10 10 0 6 5 10 10 10 6 0 10 -4
10 -10z m997 -6 c9 -8 22 -13 30 -10 10 4 13 0 11 -10 -3 -19 -47 -27 -68 -14
-11 7 -11 11 -1 23 10 13 9 16 -6 20 -17 4 -17 5 0 6 10 0 25 -6 34 -15z
m1973 6 c0 -5 -5 -10 -11 -10 -5 0 -7 5 -4 10 3 6 8 10 11 10 2 0 4 -4 4 -10z
m602 -12 c-6 -6 -15 -8 -19 -4 -4 4 -1 11 7 16 19 12 27 3 12 -12z m1038 12
c0 -5 -4 -10 -10 -10 -5 0 -10 5 -10 10 0 6 5 10 10 10 6 0 10 -4 10 -10z
m157 -12 c-3 -8 -6 -5 -6 6 -1 11 2 17 5 13 3 -3 4 -12 1 -19z m-3017 2 c6 9
10 10 10 3 0 -6 -4 -15 -10 -18 -5 -3 -10 -21 -10 -40 0 -19 -4 -36 -8 -39 -4
-2 -6 11 -4 30 2 19 -1 40 -7 48 -6 7 -8 16 -4 20 4 3 10 1 15 -6 6 -10 10
-10 18 2z m640 -22 c0 -6 -7 -5 -15 2 -8 7 -15 17 -15 22 0 6 7 5 15 -2 8 -7
15 -17 15 -22z m890 12 c0 -5 -7 -7 -15 -4 -8 4 -12 10 -9 15 6 11 24 2 24
-11z m1076 -15 c-10 -10 -17 -12 -21 -4 -4 5 1 16 11 24 23 17 31 1 10 -20z
m364 25 c0 -5 -4 -10 -10 -10 -5 0 -10 5 -10 10 0 6 5 10 10 10 6 0 10 -4 10
-10z m-4750 -21 c0 -6 -4 -7 -10 -4 -5 3 -10 11 -10 16 0 6 5 7 10 4 6 -3 10
-11 10 -16z m1546 13 c-6 -10 15 -37 37 -45 9 -3 17 -14 17 -22 0 -19 -18 -10
-38 17 -12 16 -16 17 -30 6 -13 -11 -15 -10 -9 5 4 12 1 17 -11 17 -13 1 -11
4 8 15 29 17 33 18 26 7z m809 -2 c3 -5 1 -10 -4 -10 -6 0 -11 5 -11 10 0 6 2
10 4 10 3 0 8 -4 11 -10z m1475 -6 c0 -8 -5 -12 -10 -9 -6 4 -8 11 -5 16 9 14
15 11 15 -7z m668 -30 c-3 -27 -4 -26 -9 8 -3 22 -1 34 4 29 5 -5 7 -21 5 -37z
m-3304 20 c3 -8 2 -12 -4 -9 -6 3 -10 10 -10 16 0 14 7 11 14 -7z m206 4 c0
22 18 13 24 -13 4 -14 11 -25 16 -25 6 0 10 -5 10 -11 0 -5 -4 -8 -8 -5 -5 3
-8 -8 -7 -24 1 -17 -2 -30 -7 -30 -4 0 -8 9 -8 20 0 14 -5 18 -16 13 -14 -5
-15 -3 -5 15 14 25 15 55 2 33 -7 -11 -10 -11 -15 0 -3 8 -4 4 -2 -8 4 -24 -4
-27 -51 -23 -13 1 -23 -4 -23 -10 0 -6 -4 -8 -10 -5 -17 10 -11 32 10 38 11 3
20 1 20 -4 0 -22 27 -6 38 24 10 26 14 29 22 17 6 -10 10 -11 10 -2z m98 -11
c7 -9 10 -22 7 -28 -5 -6 -11 -4 -19 7 -7 9 -18 14 -24 10 -13 -8 -15 -4 -6
18 7 19 25 16 42 -7z m1997 13 c3 -5 1 -10 -4 -10 -6 0 -11 5 -11 10 0 6 2 10
4 10 3 0 8 -4 11 -10z m285 0 c0 -5 -2 -10 -4 -10 -3 0 -8 5 -11 10 -3 6 -1
10 4 10 6 0 11 -4 11 -10z m690 -5 c0 -8 -4 -15 -10 -15 -5 0 -10 7 -10 15 0
8 5 15 10 15 6 0 10 -7 10 -15z m387 -19 c-7 -21 -25 -16 -29 8 -4 21 -3 23
14 13 10 -7 17 -16 15 -21z m-3237 -3 c0 -13 -3 -13 -15 -3 -8 7 -12 16 -9 21
8 13 24 1 24 -18z m210 16 c0 -5 -4 -7 -10 -4 -5 3 -10 -3 -10 -14 0 -25 -15
-28 -24 -4 -7 17 9 33 32 33 6 0 12 -5 12 -11z m247 -11 c-3 -8 -6 -5 -6 6 -1
11 2 17 5 13 3 -3 4 -12 1 -19z m965 -22 c3 -29 1 -33 -10 -24 -10 9 -16 8
-23 -3 -6 -10 -9 -4 -9 20 0 25 4 32 14 28 11 -4 13 -1 9 10 -4 10 -2 14 4 10
6 -4 13 -22 15 -41z m1591 10 c-3 -4 -9 -2 -14 5 -13 22 -11 31 5 17 8 -7 12
-17 9 -22z m152 24 c3 -5 1 -10 -4 -10 -6 0 -11 5 -11 10 0 6 2 10 4 10 3 0 8
-4 11 -10z m668 -17 c-5 -12 -7 -12 -14 -1 -13 20 -11 28 5 22 8 -3 12 -12 9
-21z m74 5 c-3 -8 -6 -5 -6 6 -1 11 2 17 5 13 3 -3 4 -12 1 -19z m30 0 c-3 -8
-6 -5 -6 6 -1 11 2 17 5 13 3 -3 4 -12 1 -19z m-5056 -11 c-10 -9 -11 -8 -5 6
3 10 9 15 12 12 3 -3 0 -11 -7 -18z m586 1 c-3 -8 -6 -5 -6 6 -1 11 2 17 5 13
3 -3 4 -12 1 -19z m603 7 c13 -16 5 -55 -13 -55 -8 0 -8 3 0 11 13 13 6 42 -8
33 -5 -3 -9 2 -9 10 0 20 14 20 30 1z m2130 -11 c0 -9 5 -12 12 -8 7 5 8 3 3
-6 -6 -10 -11 -9 -22 5 -15 22 -17 39 -3 30 6 -3 10 -13 10 -21z m-3491 -30
c-18 -22 -22 -11 -7 22 10 21 14 24 16 10 2 -9 -2 -24 -9 -32z m1550 25 c3
-12 1 -12 -14 1 -17 14 -18 13 -12 -4 6 -16 5 -17 -8 -6 -13 11 -13 15 -3 21
17 11 31 6 37 -12z m1423 -18 c-4 -11 -7 -10 -13 5 -4 10 -8 13 -8 7 -1 -7 -6
-13 -11 -13 -6 0 -6 7 2 19 8 14 14 16 23 7 7 -6 10 -17 7 -25z m-2190 7 c-3
-14 -1 -19 6 -14 8 5 10 2 6 -9 -4 -9 -13 -14 -20 -11 -8 3 -11 0 -7 -9 4 -12
0 -13 -25 -4 -24 8 -28 14 -24 34 2 14 8 25 12 25 5 0 6 -8 3 -19 -3 -10 0
-22 6 -25 6 -4 11 -2 11 5 0 11 28 49 36 49 1 0 0 -10 -4 -22z m1168 -10 c0
-4 -7 -5 -15 -1 -10 3 -15 1 -13 -7 2 -6 -7 -16 -19 -21 -30 -11 -29 -1 4 33
20 21 29 25 35 16 4 -7 8 -16 8 -20z m857 0 c-3 -7 -5 -2 -5 12 0 14 2 19 5
13 2 -7 2 -19 0 -25z m363 17 c-7 -9 -15 -13 -19 -10 -3 3 1 10 9 15 21 14 24
12 10 -5z m70 0 c-7 -8 -17 -12 -22 -9 -6 4 -15 0 -20 -7 -8 -12 -9 -11 -5 1
2 8 11 15 20 15 8 0 19 4 23 8 13 13 17 7 4 -8z m190 0 c0 -8 -2 -15 -4 -15
-2 0 -6 7 -10 15 -3 8 -1 15 4 15 6 0 10 -7 10 -15z m1830 5 c0 -5 -5 -10 -11
-10 -5 0 -7 5 -4 10 3 6 8 10 11 10 2 0 4 -4 4 -10z m-4400 -10 c0 -5 -4 -10
-10 -10 -5 0 -10 5 -10 10 0 6 5 10 10 10 6 0 10 -4 10 -10z m1887 -12 c-3 -8
-6 -5 -6 6 -1 11 2 17 5 13 3 -3 4 -12 1 -19z m1364 -1 c-10 -9 -11 -8 -5 6 3
10 9 15 12 12 3 -3 0 -11 -7 -18z m579 13 c0 -5 -4 -10 -10 -10 -5 0 -10 5
-10 10 0 6 5 10 10 10 6 0 10 -4 10 -10z m-3280 -10 c0 -5 -7 -10 -15 -10 -8
0 -15 -5 -15 -12 0 -6 -2 -9 -5 -6 -3 3 -3 13 1 22 7 17 34 22 34 6z m814 -9
c3 -4 1 -13 -5 -21 -7 -12 -9 -13 -9 -1 0 8 -8 20 -17 27 -16 12 -16 12 5 7
12 -3 24 -8 26 -12z m226 10 c0 -6 -4 -13 -10 -16 -5 -3 -10 1 -10 9 0 9 5 16
10 16 6 0 10 -4 10 -9z m1850 -1 c-20 -13 -33 -13 -25 0 3 6 14 10 23 10 15 0
15 -2 2 -10z m-3416 -21 c-6 -10 25 0 43 14 9 6 15 4 19 -7 4 -9 4 -20 0 -23
-3 -4 -6 -1 -6 7 0 10 -3 10 -15 0 -8 -7 -12 -17 -8 -23 4 -6 0 -8 -10 -4 -12
4 -17 1 -18 -11 0 -10 -3 -12 -6 -4 -2 6 -9 10 -14 7 -5 -4 -6 1 -3 10 6 14 1
15 -32 10 l-39 -7 33 25 c31 23 70 27 56 6z m1153 -11 c-3 -7 -5 -2 -5 12 0
14 2 19 5 13 2 -7 2 -19 0 -25z m53 -6 c-6 -2 -17 2 -26 9 -12 10 -12 14 -2
20 8 6 18 2 26 -9 8 -11 9 -18 2 -20z m1390 34 c0 -3 -4 -8 -10 -11 -5 -3 -10
-1 -10 4 0 6 5 11 10 11 6 0 10 -2 10 -4z m-3650 -10 c0 -2 -7 -9 -15 -16 -12
-10 -15 -10 -15 4 0 9 7 16 15 16 8 0 15 -2 15 -4z m250 -11 c16 15 17 14 16
-25 0 -23 -2 -36 -4 -30 -2 5 -12 10 -23 10 -10 0 -19 5 -19 10 0 6 -8 11 -17
11 -17 1 -17 2 0 6 9 2 18 12 18 21 1 14 2 14 6 -1 4 -17 6 -17 23 -2z m100
-14 c-10 -20 -30 -29 -30 -14 0 10 33 44 37 39 3 -2 0 -14 -7 -25z m31 6 c-10
-9 -11 -8 -5 6 3 10 9 15 12 12 3 -3 0 -11 -7 -18z m809 2 c0 -5 -7 -9 -15 -9
-15 0 -20 12 -9 23 8 8 24 -1 24 -14z m182 5 c-12 -8 -22 -23 -22 -32 0 -12
-3 -13 -12 -4 -8 8 -5 16 13 31 13 11 28 20 34 21 5 0 -1 -7 -13 -16z m1188 1
c-7 -9 -15 -13 -17 -11 -7 7 7 26 19 26 6 0 6 -6 -2 -15z m-2950 -16 c0 -5 -4
-9 -10 -9 -5 0 -10 7 -10 16 0 8 5 12 10 9 6 -3 10 -10 10 -16z m1886 14 c-10
-10 -46 -11 -46 -1 0 4 12 8 27 8 14 0 23 -3 19 -7z m-2023 -33 c-3 -11 -10
-23 -16 -27 -7 -4 -8 0 -4 11 4 10 7 24 7 32 0 9 4 13 9 10 5 -3 7 -15 4 -26z
m158 7 c-10 -9 -11 -8 -5 6 3 10 9 15 12 12 3 -3 0 -11 -7 -18z m209 13 c0 -5
-4 -10 -10 -10 -5 0 -10 5 -10 10 0 6 5 10 10 10 6 0 10 -4 10 -10z m798 -15
c-3 -3 -9 2 -12 12 -6 14 -5 15 5 6 7 -7 10 -15 7 -18z m-34 -1 c3 -8 2 -12
-4 -9 -6 3 -10 1 -10 -6 0 -7 -3 -10 -6 -6 -7 6 2 37 10 37 2 0 7 -7 10 -16z
m716 1 c0 -8 -2 -15 -4 -15 -2 0 -6 7 -10 15 -3 8 -1 15 4 15 6 0 10 -7 10
-15z m870 -10 c0 -8 -4 -15 -10 -15 -5 0 -7 7 -4 15 4 8 8 15 10 15 2 0 4 -7
4 -15z m1535 5 c-4 -6 -1 -18 6 -26 10 -13 6 -34 -5 -23 -12 12 -17 59 -6 59
6 0 8 -5 5 -10z m-3875 -10 c0 -5 -5 -10 -11 -10 -5 0 -7 5 -4 10 3 6 8 10 11
10 2 0 4 -4 4 -10z m825 0 c3 -5 2 -10 -4 -10 -5 0 -13 5 -16 10 -3 6 -2 10 4
10 5 0 13 -4 16 -10z m3992 -12 c3 12 9 22 14 22 5 0 3 -11 -3 -25 -12 -26
-32 -33 -43 -15 -4 6 -11 8 -16 5 -11 -7 -11 -3 -3 19 5 14 9 13 26 -6 l19
-22 6 22z m567 -5 c-1 -35 17 -73 36 -73 12 -1 12 -3 -2 -14 -10 -7 -18 -19
-18 -26 0 -19 -11 -6 -14 17 -2 10 -11 20 -21 22 -13 2 -16 -1 -12 -13 4 -9 3
-16 -2 -16 -5 0 -11 8 -15 18 -3 9 -9 24 -12 32 -3 8 2 7 10 -4 14 -17 16 -17
16 -3 0 10 5 14 15 11 12 -5 13 -1 3 26 -10 30 -7 39 17 50 1 0 0 -12 -1 -27z
m-4664 8 c0 -12 -20 -25 -27 -18 -7 7 6 27 18 27 5 0 9 -4 9 -9z m1081 -14
c-10 -9 -11 -8 -5 6 3 10 9 15 12 12 3 -3 0 -11 -7 -18z m1913 10 c-5 -14 12
-68 25 -77 4 -3 4 -16 1 -30 l-7 -25 -8 28 c-4 15 -11 27 -16 27 -11 0 -11
-14 0 -62 6 -27 5 -38 -4 -42 -8 -3 -12 5 -12 22 0 15 -3 47 -6 72 -4 33 -3
40 4 25 7 -15 8 -10 4 21 -5 40 0 54 16 54 5 0 6 -6 3 -13z m1836 3 c0 -5 -4
-10 -10 -10 -5 0 -10 5 -10 10 0 6 5 10 10 10 6 0 10 -4 10 -10z m-1905 -10
c-3 -5 -16 -10 -28 -9 -21 0 -21 1 -2 9 28 12 37 12 30 0z m965 0 c0 -5 -2
-10 -4 -10 -3 0 -8 5 -11 10 -3 6 -1 10 4 10 6 0 11 -4 11 -10z m700 -22 c0
-5 -7 -3 -15 6 -8 8 -15 18 -15 22 0 3 7 1 15 -6 8 -7 15 -17 15 -22z m-4994
-13 c-4 -22 -3 -35 4 -35 5 0 10 9 10 20 0 11 4 20 10 20 5 0 7 7 4 15 -4 9 0
15 10 15 28 0 19 -46 -14 -70 -16 -12 -30 -18 -30 -13 0 4 -7 0 -15 -11 -13
-16 -14 -15 -12 18 1 20 5 36 10 36 4 0 7 9 7 20 0 11 5 20 11 20 7 0 9 -12 5
-35z m146 23 c-7 -7 -12 -20 -12 -30 0 -19 -15 -24 -25 -8 -6 10 24 48 40 49
5 1 4 -4 -3 -11z m1316 -13 c-3 -3 -9 2 -12 12 -6 14 -5 15 5 6 7 -7 10 -15 7
-18z m102 -15 c-7 -16 -17 -30 -22 -30 -5 0 -6 -5 -2 -12 4 -6 3 -8 -2 -5 -5
3 -11 19 -12 36 -2 24 1 29 13 25 9 -4 17 1 21 10 4 9 9 15 12 12 2 -3 -1 -19
-8 -36z m540 31 c0 -5 18 -7 40 -5 22 2 40 0 40 -5 0 -16 -13 -20 -33 -10 -13
7 -17 7 -13 1 12 -20 -11 -22 -33 -3 -23 20 -27 31 -11 31 6 0 10 -4 10 -9z
m350 -17 c0 -21 -3 -25 -17 -19 -10 4 -24 8 -30 8 -7 0 -13 6 -13 13 0 14 15
22 43 23 12 1 17 -7 17 -25z m2437 12 c-3 -8 1 -17 10 -20 11 -4 14 -2 10 9
-4 8 -2 17 3 20 6 4 10 -7 10 -24 0 -22 -5 -31 -16 -31 -11 0 -15 -6 -11 -20
3 -12 1 -18 -5 -14 -5 3 -7 15 -4 26 2 12 -2 27 -10 36 -13 12 -13 16 -2 23
18 12 21 11 15 -5z m-4794 -3 c-7 -2 -19 -2 -25 0 -7 3 -2 5 12 5 14 0 19 -2
13 -5z m2731 -8 c-4 -8 -8 -15 -10 -15 -2 0 -4 7 -4 15 0 8 4 15 10 15 5 0 7
-7 4 -15z m682 -6 c3 -5 0 -9 -5 -9 -6 0 -11 -5 -11 -10 0 -14 32 -8 45 8 8
10 11 6 13 -15 1 -19 -1 -24 -7 -14 -7 11 -13 9 -30 -8 -20 -20 -21 -20 -21
-2 0 39 -18 30 -23 -11 -6 -47 7 -86 18 -55 9 23 21 22 21 -2 0 -11 -4 -18 -7
-15 -4 2 -11 -1 -14 -6 -5 -7 -11 -5 -20 6 -17 24 -47 11 -43 -18 2 -16 10
-23 25 -23 12 0 26 -5 30 -9 4 -5 3 -6 -4 -2 -6 3 -14 2 -18 -4 -10 -16 -20
-12 -37 18 -15 25 -15 30 -1 57 9 16 22 36 30 44 9 9 13 28 11 51 -3 33 -1 36
20 32 12 -2 25 -8 28 -13z m839 11 c3 -5 1 -10 -4 -10 -6 0 -11 5 -11 10 0 6
2 10 4 10 3 0 8 -4 11 -10z m695 0 c0 -5 -5 -10 -11 -10 -5 0 -7 5 -4 10 3 6
8 10 11 10 2 0 4 -4 4 -10z m-5240 -14 c-7 -7 -14 -6 -21 1 -9 9 -7 12 9 10
14 -1 18 -5 12 -11z m1644 -1 c3 -8 1 -15 -4 -15 -6 0 -10 7 -10 15 0 8 2 15
4 15 2 0 6 -7 10 -15z m66 -16 c0 -27 -17 -23 -22 5 -4 17 -1 23 9 19 7 -3 13
-14 13 -24z m2170 16 c-7 -9 -15 -13 -17 -11 -7 7 7 26 19 26 6 0 6 -6 -2 -15z
m131 -8 c-10 -9 -11 -8 -5 6 3 10 9 15 12 12 3 -3 0 -11 -7 -18z m184 4 c-3
-6 -11 -11 -17 -11 -6 0 -6 6 2 15 14 17 26 13 15 -4z m961 4 c-4 -24 -16 -30
-16 -7 0 12 4 22 9 22 5 0 8 -7 7 -15z m-4884 -17 c-7 -7 -12 -8 -12 -2 0 14
12 26 19 19 2 -3 -1 -11 -7 -17z m1266 -2 c0 -17 -6 -23 -21 -22 -11 1 -22 7
-25 14 -2 7 2 10 12 6 10 -4 18 0 22 10 8 22 12 20 12 -8z m567 14 c3 -5 1
-10 -4 -10 -6 0 -11 5 -11 10 0 6 2 10 4 10 3 0 8 -4 11 -10z m1151 -6 c-4
-10 -2 -14 6 -11 7 2 12 10 11 16 -2 6 2 11 8 11 6 0 8 -8 5 -18 -4 -10 1 -27
9 -38 19 -25 19 -31 -4 -37 -20 -5 -36 17 -25 34 3 5 1 9 -5 9 -5 0 -13 -4
-16 -10 -3 -5 -11 -10 -17 -10 -6 0 -5 7 3 17 8 9 13 24 11 35 -2 10 2 18 8
18 7 0 9 -7 6 -16z m136 -22 c-6 -2 -8 -11 -5 -20 3 -10 1 -13 -4 -7 -4 6 -11
13 -15 16 -4 3 0 16 10 30 16 22 17 23 20 4 3 -10 0 -21 -6 -23z m510 16 c-7
-7 -12 -8 -12 -2 0 14 12 26 19 19 2 -3 -1 -11 -7 -17z m332 7 c-4 -8 -8 -15
-10 -15 -2 0 -4 7 -4 15 0 8 4 15 10 15 5 0 7 -7 4 -15z m186 5 c0 -5 -2 -10
-4 -10 -3 0 -8 5 -11 10 -3 6 -1 10 4 10 6 0 11 -4 11 -10z m543 -5 c-3 -9 -8
-14 -10 -11 -3 3 -2 9 2 15 9 16 15 13 8 -4z m47 6 c0 -5 -7 -11 -15 -15 -15
-5 -20 5 -8 17 9 10 23 9 23 -2z m-5502 -20 c3 -8 -1 -12 -9 -9 -7 2 -15 10
-17 17 -3 8 1 12 9 9 7 -2 15 -10 17 -17z m862 -7 c0 -8 -7 -14 -15 -14 -8 0
-15 9 -15 20 0 13 5 18 15 14 8 -4 15 -12 15 -20z m1235 17 c3 -5 1 -12 -4
-15 -5 -3 -11 1 -15 9 -6 16 9 21 19 6z m185 -5 c0 -8 7 -17 16 -20 16 -6 16
-8 0 -24 -9 -10 -16 -26 -16 -35 0 -22 -33 -22 -50 -1 -11 12 -11 15 1 12 9
-2 14 5 13 19 0 17 3 20 12 12 16 -13 25 10 12 34 -5 11 -5 17 2 17 5 0 10 -6
10 -14z m1060 -11 c14 -19 14 -19 -2 -6 -10 7 -18 18 -18 24 0 6 1 8 3 6 1 -2
9 -13 17 -24z m347 3 c-3 -8 -6 -5 -6 6 -1 11 2 17 5 13 3 -3 4 -12 1 -19z
m253 12 c0 -5 -2 -10 -4 -10 -3 0 -8 5 -11 10 -3 6 -1 10 4 10 6 0 11 -4 11
-10z m400 -6 c0 -8 -5 -12 -10 -9 -6 4 -8 11 -5 16 9 14 15 11 15 -7z m277 -6
c-3 -8 -6 -5 -6 6 -1 11 2 17 5 13 3 -3 4 -12 1 -19z m171 9 c8 3 10 -1 6 -11
-8 -20 -21 -20 -40 -2 -19 20 -18 29 4 18 9 -5 23 -7 30 -5z m49 -1 c-3 -8 5
-24 18 -36 17 -16 24 -18 27 -8 6 17 9 -48 6 -134 -1 -33 -13 -36 -29 -7 -9
17 -8 20 1 14 10 -6 11 -1 6 19 -4 18 -3 25 4 21 5 -3 10 1 10 9 0 8 -4 18
-10 21 -5 3 -10 2 -10 -2 0 -5 -7 -18 -15 -29 -11 -14 -15 -15 -14 -4 2 23
-12 60 -23 60 -5 0 -6 5 -2 11 3 6 0 16 -7 21 -11 7 -11 11 -1 15 6 2 12 13
12 24 0 11 7 19 16 19 10 0 14 -6 11 -14z m311 -11 c-3 -3 -9 2 -12 12 -6 14
-5 15 5 6 7 -7 10 -15 7 -18z m392 10 c0 -8 -7 -15 -16 -15 -14 0 -14 3 -4 15
7 8 14 15 16 15 2 0 4 -7 4 -15z m-3621 -39 c0 -6 -3 -5 -6 2 -2 6 -8 10 -12
8 -4 -3 -7 4 -7 15 0 19 1 19 13 3 7 -10 13 -23 12 -28z m249 27 c-2 -10 -10
-17 -17 -15 -7 1 -9 -2 -6 -8 4 -6 -1 -17 -10 -24 -15 -10 -16 -16 -6 -35 7
-12 10 -30 8 -39 -3 -12 -5 -10 -6 6 -1 15 -5 21 -13 16 -7 -5 -9 -2 -5 9 9
23 -23 31 -39 10 -7 -10 -14 -22 -14 -27 0 -4 -7 -5 -16 -2 -12 4 -15 2 -11
-9 4 -8 2 -17 -4 -21 -6 -3 -7 -20 -4 -37 5 -27 4 -29 -6 -14 -15 25 -3 111
15 104 8 -3 18 5 25 19 9 20 16 23 36 18 23 -6 25 -4 19 25 -5 26 -4 30 9 25
8 -3 18 -1 22 5 10 18 27 13 23 -6z m1209 -5 c-3 -8 -6 -5 -6 6 -1 11 2 17 5
13 3 -3 4 -12 1 -19z m183 -8 c-6 -12 -14 -20 -17 -17 -2 3 1 14 8 26 17 26
24 19 9 -9z m80 20 c0 -5 -5 -10 -11 -10 -5 0 -7 5 -4 10 3 6 8 10 11 10 2 0
4 -4 4 -10z m1286 -17 c-10 -10 -19 5 -10 18 6 11 8 11 12 0 2 -7 1 -15 -2
-18z m-4422 0 c-5 -15 -3 -15 10 1 9 11 16 15 16 9 0 -17 -27 -36 -35 -23 -3
5 -3 15 0 20 10 16 15 12 9 -7z m286 7 c0 -5 -2 -10 -4 -10 -3 0 -8 5 -11 10
-3 6 -1 10 4 10 6 0 11 -4 11 -10z m100 0 c0 -5 -2 -10 -4 -10 -3 0 -8 5 -11
10 -3 6 -1 10 4 10 6 0 11 -4 11 -10z m1060 -5 c0 6 7 1 15 -9 8 -11 15 -16
15 -11 0 17 29 -30 30 -47 0 -26 -29 -11 -36 18 -4 14 -15 29 -25 35 -11 5
-19 15 -19 22 0 7 4 6 10 -3 5 -8 10 -10 10 -5z m113 1 c4 -10 1 -13 -9 -9 -7
3 -14 9 -14 14 0 14 17 10 23 -5z m1775 -9 c12 -13 19 -26 16 -30 -4 -3 -15 4
-26 16 -11 12 -17 16 -13 10 7 -15 -11 -18 -20 -3 -7 11 2 30 14 30 4 0 17
-10 29 -23z m467 13 c3 -5 1 -10 -4 -10 -6 0 -11 5 -11 10 0 6 2 10 4 10 3 0
8 -4 11 -10z m-3355 -16 c0 -8 -5 -12 -10 -9 -6 4 -8 11 -5 16 9 14 15 11 15
-7z m2466 -2 c2 -9 1 -9 -3 -1 -4 8 -11 3 -20 -12 -8 -14 -12 -16 -9 -6 3 10
6 23 6 29 0 13 23 5 26 -10z m584 8 c8 -5 11 -13 6 -17 -5 -4 -11 -2 -13 5 -3
6 -9 10 -14 6 -5 -3 -9 0 -9 5 0 13 10 14 30 1z m1471 -7 c1 -17 2 -17 6 0 6
22 23 22 23 -1 0 -10 7 -27 15 -38 8 -12 12 -24 9 -27 -3 -3 -3 -11 2 -18 5
-9 10 -7 15 7 7 18 8 18 8 0 1 -12 6 -16 16 -12 10 4 15 -1 15 -16 0 -21 0
-21 15 -2 8 10 14 24 15 29 0 6 -5 3 -10 -5 -7 -12 -10 -12 -10 -1 0 7 -6 11
-15 7 -8 -3 -15 -1 -15 4 0 6 6 10 13 10 8 0 20 12 27 28 l13 27 10 -47 c7
-39 6 -50 -7 -63 -19 -20 -20 -27 -3 -44 10 -11 9 -13 -5 -8 -22 8 -29 -2 -17
-24 6 -12 6 -19 0 -19 -5 0 -12 9 -16 19 -4 12 -12 18 -21 14 -9 -3 -14 1 -14
11 0 14 -2 15 -14 4 -8 -7 -12 -16 -10 -20 5 -8 -15 -22 -23 -15 -8 9 8 68 17
62 4 -3 6 4 3 15 -3 11 -10 23 -16 27 -6 4 -8 0 -4 -10 8 -21 -2 -49 -14 -41
-5 3 -9 -2 -9 -10 0 -8 -4 -17 -10 -21 -5 -3 -7 9 -4 32 3 21 5 51 6 66 1 30
18 49 18 20 0 -15 2 -16 10 -3 15 23 12 28 -14 26 -19 -2 -23 2 -24 26 -1 30
17 40 19 11z m-2151 -13 c0 -11 -4 -20 -9 -20 -5 0 -7 9 -4 20 3 11 7 20 9 20
2 0 4 -9 4 -20z m916 -16 c-1 -32 -18 -26 -22 8 -2 19 1 25 11 22 7 -3 12 -16
11 -30z m514 16 c0 -11 4 -20 9 -20 5 0 8 -11 7 -24 0 -13 -4 -22 -9 -19 -4 2
-7 10 -6 16 4 23 -14 47 -35 47 -17 0 -18 2 -6 10 24 16 40 12 40 -10z m-4281
-34 c-9 -8 -10 -7 -5 7 3 10 7 24 7 30 1 7 3 4 6 -7 3 -10 -1 -23 -8 -30z
m1183 0 c-3 -5 -9 -1 -13 10 -12 31 -10 39 5 19 8 -11 12 -24 8 -29z m390 22
c-7 -7 -12 -8 -12 -2 0 14 12 26 19 19 2 -3 -1 -11 -7 -17z m368 12 c0 -5 -4
-10 -10 -10 -5 0 -10 5 -10 10 0 6 5 10 10 10 6 0 10 -4 10 -10z m170 1 c0 -5
2 -16 5 -23 3 -8 -1 -14 -12 -14 -12 0 -18 8 -18 23 0 13 6 23 13 23 6 0 12
-4 12 -9z m315 0 c-3 -5 -1 -12 5 -16 5 -3 10 -3 10 2 0 10 117 9 127 -1 14
-14 -22 -25 -69 -22 -26 1 -49 -1 -50 -6 -7 -19 -35 4 -33 25 3 26 3 27 11 27
3 0 3 -4 -1 -9z m1658 -8 c-6 -15 -4 -16 9 -5 13 10 17 10 22 -4 9 -24 -3 -36
-20 -19 -9 8 -20 13 -25 10 -13 -9 -11 9 3 23 16 16 19 15 11 -5z m874 -2 c-3
-12 1 -22 9 -25 8 -3 14 -10 14 -16 0 -8 -6 -8 -20 0 -14 7 -20 7 -20 0 0 -5
6 -10 13 -10 6 -1 1 -10 -12 -20 -25 -21 -22 -56 4 -46 12 4 13 2 2 -15 -11
-18 -13 -18 -25 -2 -7 10 -18 25 -25 33 -6 8 -13 29 -13 45 -1 17 1 24 3 18 8
-22 36 -15 30 7 -3 13 0 20 9 20 8 0 17 7 20 15 9 22 17 18 11 -4z m-3057 -19
c0 -15 2 -15 10 -2 8 11 9 7 5 -15 l-6 -30 19 22 c21 24 47 16 36 -11 -5 -13
-9 -14 -20 -5 -11 9 -14 8 -14 -4 0 -8 -7 -17 -15 -21 -10 -4 -15 1 -15 14 0
11 -4 20 -8 20 -5 0 -9 13 -9 30 0 16 4 27 9 24 4 -3 8 -13 8 -22z m300 -7 c0
-5 -5 -3 -10 5 -5 8 -10 20 -10 25 0 6 5 3 10 -5 5 -8 10 -19 10 -25z m160 -2
c0 -32 -5 -28 -14 10 -4 19 -3 26 4 22 5 -3 10 -18 10 -32z m400 4 c0 -5 -4
-6 -9 -2 -6 3 -15 -3 -21 -12 -6 -10 -9 -11 -6 -3 3 8 9 23 12 33 5 15 9 16
15 5 5 -7 9 -17 9 -21z m1868 16 c-8 -10 -8 -21 1 -41 12 -27 12 -27 -6 -7
-24 25 -25 61 -1 61 13 0 14 -3 6 -13z m113 -2 c6 10 9 6 9 -13 0 -16 -4 -28
-10 -28 -15 0 -32 39 -23 53 5 8 9 6 11 -7 3 -15 6 -16 13 -5z m128 -26 c-2
-24 0 -47 4 -51 10 -10 9 -36 -2 -30 -4 3 -7 -12 -5 -34 2 -21 -1 -42 -6 -45
-13 -8 -50 17 -50 35 1 12 3 12 14 -2 7 -10 18 -18 23 -18 12 0 -1 111 -16
136 -12 18 -12 17 -8 -4 3 -12 1 -20 -4 -16 -10 6 -12 44 -2 44 3 0 15 -8 26
-17 20 -18 20 -17 14 15 -4 20 -2 32 4 32 6 0 9 -18 8 -45z m230 16 c-3 -6
-10 -7 -18 -2 -7 5 -10 14 -6 21 9 14 29 -2 24 -19z m91 19 c0 -5 -2 -10 -4
-10 -3 0 -8 5 -11 10 -3 6 -1 10 4 10 6 0 11 -4 11 -10z m-5566 -15 c-4 -8
-11 -15 -16 -15 -6 0 -5 6 2 15 7 8 14 15 16 15 2 0 1 -7 -2 -15z m350 -25
c10 -13 9 -13 -6 -1 -10 7 -18 21 -17 30 0 13 1 14 6 1 3 -8 11 -22 17 -30z
m1746 22 c7 2 15 -3 18 -11 3 -10 0 -12 -12 -8 -9 4 -16 1 -17 -6 0 -7 -4 -3
-9 8 -11 26 -12 44 -1 27 4 -7 14 -12 21 -10z m1486 -44 c3 -11 -2 -18 -12
-18 -11 0 -14 5 -10 16 3 8 2 24 -4 33 -5 10 -6 21 -3 25 7 7 23 -24 29 -56z
m59 43 c-3 -6 -11 -11 -17 -11 -6 0 -6 6 2 15 14 17 26 13 15 -4z m272 -25 c0
-35 -4 -45 -18 -49 -23 -6 -24 2 -3 31 14 20 14 22 0 22 -9 0 -16 5 -16 11 0
5 4 8 9 5 5 -3 11 1 15 9 9 25 13 17 13 -29z m922 1 c1 -5 -3 -5 -9 -2 -5 3
-10 16 -9 28 0 21 1 21 9 2 5 -11 9 -24 9 -28z m-1636 27 c11 -11 -3 -24 -18
-18 -8 4 -12 10 -9 15 6 11 18 12 27 3z m318 -21 c-12 -20 -14 -14 -5 12 4 9
9 14 11 11 3 -2 0 -13 -6 -23z m344 -15 c-1 -24 -5 -51 -9 -61 -5 -10 -5 -21
-1 -25 4 -4 10 -1 12 6 7 19 23 14 23 -7 0 -23 -16 -37 -23 -19 -3 9 -13 4
-30 -14 -39 -41 -64 -36 -32 6 8 11 15 30 15 44 0 13 4 21 9 18 16 -10 32 21
25 48 -7 30 -24 25 -25 -7 0 -22 0 -22 -10 1 -10 26 5 51 31 52 12 0 16 -10
15 -42z m1315 38 c0 -3 -4 -8 -10 -11 -5 -3 -10 -1 -10 4 0 6 5 11 10 11 6 0
10 -2 10 -4z m-2750 -26 c6 -11 14 -19 18 -16 4 2 8 -4 8 -14 0 -10 -3 -17 -7
-14 -4 2 -10 -3 -13 -12 -8 -20 -26 -8 -26 17 0 14 -4 18 -12 13 -9 -6 -9 -3
0 9 8 9 11 21 7 27 -3 5 -2 10 4 10 6 0 15 -9 21 -20z m100 11 c0 -6 -4 -13
-10 -16 -5 -3 -10 1 -10 9 0 9 5 16 10 16 6 0 10 -4 10 -9z m110 -33 c0 -4 7
-8 15 -8 16 0 19 -9 7 -27 -5 -8 -14 -3 -27 17 -23 34 -32 37 -37 13 -3 -15
-5 -14 -10 5 -3 12 -2 20 3 16 5 -3 12 2 16 12 6 16 7 15 20 -2 7 -10 13 -21
13 -26z m679 16 c12 -11 12 -18 3 -36 -12 -23 -12 -23 -7 3 4 22 1 27 -20 31
-13 3 -22 1 -19 -3 12 -21 -9 -29 -23 -10 -8 12 -11 26 -8 31 8 12 55 2 74
-16z m35 -5 c-3 -6 -7 -9 -8 -7 -1 2 -8 12 -16 22 -14 18 -14 19 8 7 12 -7 20
-17 16 -22z m104 24 c-20 -5 -20 -5 -12 -28 5 -13 9 -14 15 -4 4 8 11 10 15 6
9 -9 -15 -54 -33 -61 -11 -4 -11 -1 -3 14 8 14 8 26 0 40 -13 24 -5 40 18 39
15 -1 15 -2 0 -6z m329 -15 c-3 -8 -6 -5 -6 6 -1 11 2 17 5 13 3 -3 4 -12 1
-19z m173 16 c0 -8 -19 -13 -24 -6 -3 5 1 9 9 9 8 0 15 -2 15 -3z m290 -4 c0
-5 -5 -10 -11 -10 -5 0 -7 5 -4 10 3 6 8 10 11 10 2 0 4 -4 4 -10z m170 6 c0
-3 -4 -8 -10 -11 -5 -3 -10 -1 -10 4 0 6 5 11 10 11 6 0 10 -2 10 -4z m520
-22 c0 -14 -4 -23 -10 -19 -5 3 -10 15 -10 26 0 10 5 19 10 19 6 0 10 -12 10
-26z m861 -4 c5 0 9 -12 9 -26 0 -14 -4 -23 -10 -19 -6 4 -8 11 -5 16 4 5 -1
9 -9 9 -11 0 -15 7 -12 23 6 32 8 34 13 15 2 -10 9 -18 14 -18z m-3572 -1
c-16 -10 -23 -4 -14 10 3 6 11 8 17 5 6 -4 5 -9 -3 -15z m491 11 c0 -5 -4 -10
-10 -10 -5 0 -10 5 -10 10 0 6 5 10 10 10 6 0 10 -4 10 -10z m254 -6 c3 -8 2
-12 -4 -9 -6 3 -10 1 -10 -6 0 -7 -3 -10 -6 -6 -7 6 2 37 10 37 2 0 7 -7 10
-16z m46 -27 c-10 -9 -11 -9 -6 1 4 6 2 12 -3 12 -6 0 -11 7 -11 16 0 14 2 14
16 -1 14 -13 14 -19 4 -28z m670 22 c0 -5 -4 -9 -10 -9 -5 0 -10 7 -10 16 0 8
5 12 10 9 6 -3 10 -10 10 -16z m38 -4 c-3 -3 -9 2 -12 12 -6 14 -5 15 5 6 7
-7 10 -15 7 -18z m619 -7 c-3 -7 -5 -2 -5 12 0 14 2 19 5 13 2 -7 2 -19 0 -25z
m-1212 12 c3 -5 1 -10 -4 -10 -6 0 -11 5 -11 10 0 6 2 10 4 10 3 0 8 -4 11
-10z m1448 -39 c-9 -12 -25 20 -18 36 7 16 9 15 15 -7 4 -14 5 -27 3 -29z
m-3873 35 c0 -11 -19 -15 -25 -6 -3 5 1 10 9 10 9 0 16 -2 16 -4z m2720 -17
c0 -6 -4 -7 -10 -4 -5 3 -10 11 -10 16 0 6 5 7 10 4 6 -3 10 -11 10 -16z m302
-4 c7 -1 16 3 19 8 4 5 10 -8 13 -28 5 -22 3 -40 -2 -44 -6 -3 -14 -19 -17
-34 -4 -15 -11 -27 -16 -27 -6 0 -5 8 1 19 5 11 10 28 10 38 0 11 -7 5 -17
-16 -10 -20 -19 -29 -21 -21 -3 8 0 16 7 18 6 2 11 8 11 13 0 6 -3 8 -7 6 -5
-3 -8 17 -9 44 0 28 3 44 7 37 5 -7 14 -13 21 -13z m226 5 c7 -11 8 -20 2 -20
-5 0 -14 9 -20 20 -6 11 -7 20 -3 20 5 0 14 -9 21 -20z m287 -9 c2 -12 0 -19
-6 -16 -5 4 -9 16 -9 27 0 26 9 19 15 -11z m749 13 c3 -8 2 -12 -4 -9 -6 3
-10 10 -10 16 0 14 7 11 14 -7z m-3724 -9 c-7 -8 -17 -15 -22 -15 -11 0 14 29
26 30 5 0 3 -7 -4 -15z m1282 -7 c-7 -7 -12 -8 -12 -2 0 14 12 26 19 19 2 -3
-1 -11 -7 -17z m186 2 c7 -11 10 -20 6 -20 -7 0 -34 27 -34 34 0 13 16 5 28
-14z m1409 14 c-3 -3 -12 -4 -19 -1 -8 3 -5 6 6 6 11 1 17 -2 13 -5z m144 -41
c-9 -15 -10 -12 -10 17 0 29 1 32 10 18 7 -12 7 -24 0 -35z m139 29 c-8 -3
-17 -9 -20 -13 -3 -4 -12 -4 -20 1 -12 7 -10 11 10 18 14 5 29 7 35 4 5 -3 2
-8 -5 -10z m300 -19 c0 -24 -3 -33 -9 -25 -7 12 -4 62 5 62 2 0 4 -17 4 -37z
m-2986 11 c3 -8 2 -12 -4 -9 -6 3 -10 10 -10 16 0 14 7 11 14 -7z m1379 -25
c-8 -29 -13 -23 -13 14 0 22 3 28 9 18 5 -7 6 -22 4 -32z m257 26 c10 -12 10
-15 -3 -15 -9 0 -17 -8 -19 -17 -3 -11 -6 -5 -9 15 -6 35 9 43 31 17z m620 5
c0 -5 -4 -10 -10 -10 -5 0 -10 5 -10 10 0 6 5 10 10 10 6 0 10 -4 10 -10z
m-3980 -20 c-6 -11 -13 -20 -16 -20 -2 0 0 9 6 20 6 11 13 20 16 20 2 0 0 -9
-6 -20z m1101 -3 c-10 -9 -11 -8 -5 6 3 10 9 15 12 12 3 -3 0 -11 -7 -18z m61
-21 c-2 -4 2 -12 9 -17 8 -5 9 -9 3 -9 -5 0 -18 6 -28 13 -16 12 -17 17 -6 38
13 22 13 23 20 4 4 -11 5 -24 2 -29z m1424 12 c-18 -26 -22 -17 -5 14 6 11 13
17 16 15 3 -3 -2 -16 -11 -29z m1514 7 c0 -14 -4 -25 -10 -25 -11 0 -14 33 -3
43 11 11 13 8 13 -18z m-1797 -5 c-3 -11 -7 -20 -9 -20 -2 0 -4 9 -4 20 0 11
4 20 9 20 5 0 7 -9 4 -20z m-1783 -25 c0 -5 -5 -3 -10 5 -5 8 -10 20 -10 25 0
6 5 3 10 -5 5 -8 10 -19 10 -25z m312 8 c-3 -16 -7 -22 -10 -15 -4 13 4 42 11
42 2 0 2 -12 -1 -27z m-545 -3 c1 -12 -4 -17 -15 -15 -9 1 -20 -2 -23 -7 -4
-6 -9 -6 -13 1 -4 6 -2 11 3 11 6 0 11 6 11 13 0 20 36 18 37 -3z m1463 16 c0
-3 -4 -8 -10 -11 -5 -3 -10 -1 -10 4 0 6 5 11 10 11 6 0 10 -2 10 -4z m1746
-22 c-4 -9 -9 -15 -11 -12 -3 3 -3 13 1 22 4 9 9 15 11 12 3 -3 3 -13 -1 -22z
m414 17 c0 -6 -4 -12 -8 -15 -5 -3 -9 1 -9 9 0 8 4 15 9 15 4 0 8 -4 8 -9z
m1831 -16 c5 4 9 -1 9 -9 0 -9 -4 -16 -9 -16 -10 0 -22 25 -20 43 1 7 3 4 6
-6 2 -9 9 -15 14 -12z m-5694 -7 c-3 -8 -6 -5 -6 6 -1 11 2 17 5 13 3 -3 4
-12 1 -19z m2203 -3 c0 -15 -6 -25 -14 -25 -11 0 -12 5 -3 25 15 31 17 31 17
0z m150 21 c0 -3 -4 -8 -10 -11 -5 -3 -10 -1 -10 4 0 6 5 11 10 11 6 0 10 -2
10 -4z m260 -8 c0 -7 -11 -14 -26 -14 -23 -2 -24 -1 -7 12 23 17 33 17 33 2z
m1960 2 c8 -5 11 -10 5 -10 -5 0 -17 5 -25 10 -8 5 -10 10 -5 10 6 0 17 -5 25
-10z m260 0 c0 -5 -5 -10 -11 -10 -5 0 -7 5 -4 10 3 6 8 10 11 10 2 0 4 -4 4
-10z m-3982 -32 c6 -17 9 -34 7 -37 -3 -2 -5 1 -5 7 0 7 -7 12 -15 12 -9 0
-15 9 -15 25 0 35 13 31 28 -7z m402 16 c0 -8 -5 -12 -10 -9 -6 4 -8 11 -5 16
9 14 15 11 15 -7z m1060 6 c0 -5 -5 -10 -11 -10 -5 0 -7 5 -4 10 3 6 8 10 11
10 2 0 4 -4 4 -10z m575 0 c-3 -5 -11 -10 -16 -10 -6 0 -7 5 -4 10 3 6 11 10
16 10 6 0 7 -4 4 -10z m488 -10 c-3 -11 -7 -20 -9 -20 -2 0 -4 9 -4 20 0 11 4
20 9 20 5 0 7 -9 4 -20z m604 -12 c-3 -7 -5 -2 -5 12 0 14 2 19 5 13 2 -7 2
-19 0 -25z m118 22 c3 -5 2 -10 -4 -10 -5 0 -13 5 -16 10 -3 6 -2 10 4 10 5 0
13 -4 16 -10z m687 -15 c3 -14 1 -28 -3 -31 -5 -3 -9 9 -9 25 0 38 6 40 12 6z
m-4906 -22 c-11 -11 -17 4 -9 23 7 18 8 18 11 1 2 -10 1 -21 -2 -24z m404 10
c0 -20 -24 -11 -28 10 -2 12 1 15 12 11 9 -3 16 -13 16 -21z m380 17 c0 -5 -4
-10 -10 -10 -5 0 -10 5 -10 10 0 6 5 10 10 10 6 0 10 -4 10 -10z m875 -10 c10
-11 16 -20 13 -20 -3 0 -13 9 -23 20 -10 11 -16 20 -13 20 3 0 13 -9 23 -20z
m85 -12 c0 -23 -3 -29 -11 -21 -6 6 -8 20 -4 32 9 30 15 26 15 -11z m435 5 c0
-13 -3 -23 -7 -23 -5 0 -8 5 -8 11 0 5 -4 7 -10 4 -5 -3 -10 2 -10 12 0 11 7
19 18 19 11 0 17 -8 17 -23z m205 -4 c-14 -26 -18 -24 -12 6 2 14 8 22 13 19
5 -3 5 -14 -1 -25z m1150 22 c0 -6 -4 -13 -10 -16 -5 -3 -10 1 -10 9 0 9 5 16
10 16 6 0 10 -4 10 -9z m2354 -6 c-4 -8 -10 -12 -15 -9 -11 6 -2 24 11 24 5 0
7 -7 4 -15z m-2484 -27 c0 -5 -4 -8 -10 -8 -5 0 -10 10 -10 23 0 18 2 19 10 7
5 -8 10 -18 10 -22z m974 16 c3 -8 2 -12 -4 -9 -6 3 -10 10 -10 16 0 14 7 11
14 -7z m-3751 -14 c-3 -12 -8 -19 -11 -16 -5 6 5 36 12 36 2 0 2 -9 -1 -20z
m69 6 c7 4 8 2 4 -4 -12 -19 -36 -15 -29 5 4 11 8 13 11 5 2 -7 9 -9 14 -6z
m438 -7 c0 -5 -4 -9 -8 -9 -5 0 -9 7 -9 15 0 8 4 12 9 9 4 -3 8 -9 8 -15z
m2310 7 c0 -8 -4 -18 -10 -21 -5 -3 -10 3 -10 14 0 12 5 21 10 21 6 0 10 -6
10 -14z m1195 -24 c-5 -14 -7 -14 -15 -2 -13 20 -12 33 0 25 6 -3 10 0 11 7 0
10 2 10 6 0 3 -7 2 -20 -2 -30z m-4140 8 c3 -5 1 -10 -4 -10 -6 0 -11 5 -11
10 0 6 2 10 4 10 3 0 8 -4 11 -10z m1495 0 c0 -5 -4 -10 -10 -10 -5 0 -10 5
-10 10 0 6 5 10 10 10 6 0 10 -4 10 -10z m820 0 c0 -5 -5 -10 -11 -10 -5 0 -7
5 -4 10 3 6 8 10 11 10 2 0 4 -4 4 -10z m560 0 c0 -5 -7 -10 -16 -10 -8 0 -12
5 -9 10 3 6 10 10 16 10 5 0 9 -4 9 -10z m2380 0 c0 -5 -4 -10 -10 -10 -5 0
-10 5 -10 10 0 6 5 10 10 10 6 0 10 -4 10 -10z m-2510 -4 c0 -3 -4 -8 -10 -11
-5 -3 -10 -1 -10 4 0 6 5 11 10 11 6 0 10 -2 10 -4z"/>
<path d="M1265 1480 c3 -5 11 -10 16 -10 6 0 7 5 4 10 -3 6 -11 10 -16 10 -6
0 -7 -4 -4 -10z"/>
<path d="M1227 1414 c7 -3 9 -13 6 -22 -4 -14 -3 -14 5 -2 12 16 7 30 -11 29
-9 0 -9 -2 0 -5z"/>
<path d="M1185 1390 c-3 -5 -1 -10 4 -10 6 0 11 5 11 10 0 6 -2 10 -4 10 -3 0
-8 -4 -11 -10z"/>
<path d="M1219 1361 c6 -11 11 -24 11 -30 0 -19 -18 -12 -25 9 -3 11 -11 20
-17 20 -5 0 -7 -8 -4 -17 4 -9 1 -20 -5 -24 -6 -4 -8 -12 -4 -18 5 -9 10 -9
21 0 9 7 14 7 14 1 0 -5 16 -10 36 -10 27 0 34 3 30 15 -3 8 -6 19 -6 24 0 6
-4 7 -10 4 -5 -3 -10 0 -10 7 0 7 -9 19 -21 26 -18 12 -19 11 -10 -7z"/>
<path d="M820 1621 c0 -6 5 -13 10 -16 6 -3 10 1 10 9 0 9 -4 16 -10 16 -5 0
-10 -4 -10 -9z"/>
<path d="M790 1609 c0 -5 5 -7 10 -4 6 3 10 8 10 11 0 2 -4 4 -10 4 -5 0 -10
-5 -10 -11z"/>
<path d="M890 1540 c-9 -6 -10 -10 -3 -10 6 0 15 5 18 10 8 12 4 12 -15 0z"/>
<path d="M808 1513 c7 -3 16 -2 19 1 4 3 -2 6 -13 5 -11 0 -14 -3 -6 -6z"/>
<path d="M911 1481 c-8 -5 -20 -7 -28 -4 -23 9 -14 -12 10 -22 12 -6 26 -20
32 -33 11 -25 32 -24 27 3 -2 11 1 14 8 10 9 -6 9 -2 1 14 -7 11 -16 21 -22
21 -6 0 -7 5 -4 10 8 12 -5 13 -24 1z"/>
<path d="M830 1460 c0 -5 5 -10 10 -10 6 0 10 5 10 10 0 6 -4 10 -10 10 -5 0
-10 -4 -10 -10z"/>
<path d="M853 1426 c-7 -8 -18 -16 -25 -19 -7 -2 -10 -8 -6 -12 4 -4 14 0 23
8 9 9 27 14 45 12 32 -4 41 9 14 19 -24 9 -38 7 -51 -8z"/>
<path d="M890 1395 c0 -5 5 -17 10 -25 5 -8 10 -10 10 -5 0 6 -5 17 -10 25 -5
8 -10 11 -10 5z"/>
<path d="M860 1368 c0 -19 2 -20 10 -8 13 19 13 30 0 30 -5 0 -10 -10 -10 -22z"/>
<path d="M1015 1380 c-3 -5 -1 -10 4 -10 6 0 11 5 11 10 0 6 -2 10 -4 10 -3 0
-8 -4 -11 -10z"/>
<path d="M2515 1471 c-3 -6 4 -9 15 -8 11 1 20 5 20 9 0 11 -28 10 -35 -1z"/>
<path d="M2085 1417 c-15 -12 -16 -15 -2 -20 9 -3 18 1 21 10 9 22 3 25 -19
10z"/>
<path d="M2112 1333 c-1 -33 0 -35 12 -17 11 14 12 23 3 34 -6 8 -12 16 -13
18 0 1 -1 -14 -2 -35z"/>
<path d="M2130 1360 c0 -5 5 -10 10 -10 6 0 10 5 10 10 0 6 -4 10 -10 10 -5 0
-10 -4 -10 -10z"/>
<path d="M2550 1265 c0 -8 5 -15 10 -15 6 0 10 7 10 15 0 8 -4 15 -10 15 -5 0
-10 -7 -10 -15z"/>
<path d="M3165 1110 c3 -5 10 -10 16 -10 5 0 9 5 9 10 0 6 -7 10 -16 10 -8 0
-12 -4 -9 -10z"/>
<path d="M4880 1036 c0 -9 5 -16 10 -16 6 0 10 4 10 9 0 6 -4 13 -10 16 -5 3
-10 -1 -10 -9z"/>
<path d="M5607 921 c-2 -10 -1 -25 4 -32 6 -10 9 -4 9 19 0 36 -5 42 -13 13z"/>
<path d="M2575 950 c-3 -5 -1 -10 4 -10 6 0 11 5 11 10 0 6 -2 10 -4 10 -3 0
-8 -4 -11 -10z"/>
<path d="M2030 2550 c0 -6 -6 -10 -13 -10 -19 0 -57 -43 -57 -63 0 -10 -12
-23 -26 -29 -21 -10 -32 -8 -67 11 -29 16 -54 22 -82 19 -36 -3 -40 -6 -42
-33 -2 -21 5 -39 26 -62 40 -43 60 -52 109 -49 l41 3 11 -51 c6 -28 14 -70 17
-93 l6 -43 379 0 380 0 -26 30 c-14 17 -30 50 -37 73 -12 47 -46 88 -99 119
-19 12 -48 34 -64 50 -15 15 -36 28 -46 28 -9 0 -25 9 -35 20 -24 27 -60 25
-117 -5 -57 -30 -98 -22 -98 19 0 30 -60 71 -91 63 -12 -3 -32 -2 -45 3 -15 6
-24 6 -24 0z m63 -65 c20 -8 38 -19 41 -24 10 -15 -68 -211 -83 -211 -8 0 -50
124 -60 178 -13 69 24 90 102 57z"/>
<path d="M2090 2449 c0 -5 5 -7 10 -4 6 3 10 8 10 11 0 2 -4 4 -10 4 -5 0 -10
-5 -10 -11z"/>
<path d="M4115 2510 c3 -5 13 -10 21 -10 8 0 14 5 14 10 0 6 -9 10 -21 10 -11
0 -17 -4 -14 -10z"/>
<path d="M4005 2482 c-15 -13 -19 -27 -17 -60 2 -29 0 -42 -7 -37 -6 3 -11 1
-11 -4 0 -6 -12 -11 -27 -11 -18 0 -38 -13 -65 -42 l-38 -41 0 31 c0 17 5 34
10 37 6 3 10 11 10 16 0 5 -10 3 -23 -6 -13 -8 -27 -12 -30 -8 -10 10 -48 -28
-63 -64 -20 -46 -18 -53 15 -47 44 9 47 -19 5 -51 -19 -14 -34 -30 -34 -36 0
-5 36 -9 79 -9 l79 0 22 66 c13 37 35 80 51 98 l28 31 1 -41 c0 -36 7 -49 51
-95 l51 -54 78 -2 78 -2 -21 50 c-20 46 -20 51 -5 60 12 7 14 16 9 41 -13 58
-31 77 -76 80 -25 2 -39 8 -37 16 1 6 -4 12 -11 12 -16 0 -51 36 -53 53 -3 33
-5 37 -16 37 -7 -1 -22 -8 -33 -18z"/>
<path d="M4150 2460 c-13 -8 -12 -11 5 -23 17 -13 45 -13 45 0 0 5 -27 33 -32
33 -2 0 -10 -5 -18 -10z"/>
<path d="M2690 2453 c0 -6 7 -17 16 -24 9 -8 27 -30 39 -50 13 -20 29 -42 37
-50 8 -8 24 -31 37 -52 12 -20 34 -40 47 -43 16 -4 24 -13 24 -28 0 -11 7 -29
14 -38 12 -16 34 -18 196 -18 l182 0 -7 28 c-11 43 -35 64 -71 60 -28 -3 -34
0 -52 37 -11 22 -24 53 -28 69 -13 42 -98 75 -213 83 -47 3 -91 9 -97 14 -17
13 -124 23 -124 12z m270 -243 c0 -5 -2 -10 -4 -10 -3 0 -8 5 -11 10 -3 6 -1
10 4 10 6 0 11 -4 11 -10z"/>
<path d="M4227 2449 c-18 -10 -18 -12 2 -33 15 -16 21 -33 19 -57 -3 -33 -2
-34 32 -30 43 4 46 7 31 25 -9 11 -10 20 -2 35 15 27 14 37 -5 55 -18 18 -51
20 -77 5z"/>
<path d="M3283 2373 c10 -12 30 -26 45 -32 27 -12 102 -108 102 -132 0 -7 -15
3 -32 22 -36 39 -86 75 -94 67 -2 -3 -1 -37 2 -77 l7 -71 58 0 c54 0 59 2 60
23 0 21 1 21 10 2 6 -14 8 0 5 48 -5 85 -31 124 -97 142 -24 7 -53 16 -64 20
-19 8 -20 8 -2 -12z"/>
<path d="M4761 2254 c0 -11 3 -14 6 -6 3 7 2 16 -1 19 -3 4 -6 -2 -5 -13z"/>
<path d="M4410 2204 c0 -7 27 -34 34 -34 13 0 5 28 -10 34 -19 7 -24 8 -24 0z"/>
<path d="M3630 2160 c-12 -8 -11 -10 8 -10 12 0 22 5 22 10 0 13 -11 13 -30 0z"/>
<path d="M2392 2020 c-54 -51 -34 -105 56 -148 63 -30 75 -58 33 -78 -19 -10
-33 -9 -70 2 -25 7 -47 14 -48 14 -2 0 -3 -11 -3 -25 0 -19 7 -26 38 -34 87
-25 154 -2 165 55 10 53 -10 81 -79 114 -67 31 -79 51 -43 70 19 11 40 9 92
-6 13 -4 17 1 17 19 0 28 -20 37 -91 37 -32 0 -52 -6 -67 -20z"/>
<path d="M2726 2032 c-10 -16 -106 -276 -103 -279 2 -1 14 -4 27 -5 19 -2 26
3 33 30 l10 32 67 0 c64 0 68 -1 74 -25 6 -24 52 -53 64 -40 3 2 -19 69 -49
147 -53 140 -55 143 -86 146 -17 2 -34 -1 -37 -6z m57 -109 c9 -27 17 -51 17
-55 0 -5 -18 -8 -40 -8 -22 0 -40 4 -40 8 0 18 32 102 39 102 4 0 15 -21 24
-47z"/>
<path d="M2970 1896 l0 -146 24 0 c23 0 25 5 28 48 l3 47 50 5 c28 3 60 11 72
18 42 23 47 113 8 152 -11 10 -41 16 -100 19 l-85 3 0 -146z m123 95 c49 -19
43 -82 -9 -95 -47 -12 -64 1 -64 48 0 23 3 46 7 49 9 10 37 9 66 -2z"/>
<path d="M3250 1896 c0 -134 1 -144 19 -149 11 -3 22 -2 25 1 3 3 6 70 6 149
l0 143 -25 0 -25 0 0 -144z"/>
<path d="M3444 2021 c-65 -40 -82 -163 -32 -227 24 -30 74 -54 113 -54 19 0
29 -9 42 -35 12 -25 23 -35 40 -35 28 0 29 9 6 49 -18 30 -17 31 3 45 68 48
71 191 5 251 -33 29 -136 33 -177 6z m114 -27 c31 -9 52 -53 52 -109 0 -38 -5
-52 -29 -76 -33 -33 -50 -35 -92 -14 -69 36 -66 167 5 195 26 11 35 11 64 4z"/>
<path d="M275 1869 c8 -39 16 -59 26 -59 12 0 11 10 -2 49 -12 35 -30 43 -24
10z"/>
<path d="M240 1850 c0 -5 5 -10 10 -10 6 0 10 5 10 10 0 6 -4 10 -10 10 -5 0
-10 -4 -10 -10z"/>
<path d="M5930 1630 c0 -5 7 -10 16 -10 8 0 12 5 9 10 -3 6 -10 10 -16 10 -5
0 -9 -4 -9 -10z"/>
<path d="M4805 1620 c-3 -5 1 -10 10 -10 9 0 13 5 10 10 -3 6 -8 10 -10 10 -2
0 -7 -4 -10 -10z"/>
<path d="M4845 1610 c-2 -4 12 -6 31 -6 18 1 34 4 34 9 0 8 -60 6 -65 -3z"/>
<path d="M4940 1592 c-49 -6 -57 -12 -36 -27 16 -12 17 -17 5 -32 -11 -15 -11
-16 1 -5 19 16 30 15 30 -4 0 -8 -4 -12 -10 -9 -5 3 -10 1 -10 -4 0 -13 28
-13 55 0 19 9 18 9 -2 5 -18 -3 -23 1 -23 16 0 11 4 16 11 12 6 -3 27 -9 45
-11 34 -5 35 -4 28 24 -4 15 -9 30 -11 33 -5 6 -48 7 -83 2z m70 -30 c0 -5 -7
-9 -15 -9 -8 0 -15 4 -15 9 0 4 7 8 15 8 8 0 15 -4 15 -8z"/>
<path d="M4854 1566 c-5 -21 -11 -25 -30 -22 -13 3 -24 0 -24 -5 0 -5 12 -9
26 -9 17 0 23 -4 18 -12 -4 -8 -3 -10 2 -5 5 5 9 12 9 15 1 4 5 17 9 30 4 13
5 26 2 29 -3 3 -8 -6 -12 -21z"/>
<path d="M5410 1565 c0 -8 4 -15 10 -15 5 0 7 7 4 15 -4 8 -8 15 -10 15 -2 0
-4 -7 -4 -15z"/>
<path d="M4285 1550 c-3 -5 -1 -10 4 -10 6 0 11 5 11 10 0 6 -2 10 -4 10 -3 0
-8 -4 -11 -10z"/>
<path d="M4760 1545 c-14 -16 -3 -20 19 -6 8 5 9 11 3 15 -5 3 -15 -1 -22 -9z"/>
<path d="M2065 1540 c4 -6 11 -8 16 -5 14 9 11 15 -7 15 -8 0 -12 -5 -9 -10z"/>
<path d="M2325 1533 c14 -34 11 -57 -10 -61 -17 -4 -18 -2 -6 11 15 19 6 38
-14 31 -20 -8 -13 -41 11 -59 23 -16 40 -9 46 20 2 11 10 19 16 18 21 -5 13
15 -9 20 -15 4 -20 11 -16 21 4 10 1 16 -9 16 -12 0 -14 -5 -9 -17z"/>
<path d="M2621 1534 c0 -11 3 -14 6 -6 3 7 2 16 -1 19 -3 4 -6 -2 -5 -13z"/>
<path d="M2772 1545 c3 -3 52 -6 109 -7 57 -1 109 -5 115 -10 7 -5 14 -3 18 7
5 13 -12 15 -121 15 -69 0 -124 -2 -121 -5z"/>
<path d="M3026 1534 c-5 -14 -4 -15 9 -4 17 14 19 20 6 20 -5 0 -12 -7 -15
-16z"/>
<path d="M3945 1542 c7 -7 95 -6 102 2 4 4 -19 6 -50 5 -32 -1 -55 -4 -52 -7z"/>
<path d="M4193 1543 c9 -2 23 -2 30 0 6 3 -1 5 -18 5 -16 0 -22 -2 -12 -5z"/>
<path d="M5000 1502 c0 -4 7 -16 15 -26 15 -19 15 -19 15 1 0 11 -7 23 -15 27
-8 3 -15 2 -15 -2z"/>
<path d="M4863 1474 c-10 -21 -9 -24 2 -14 10 8 14 8 18 -2 4 -9 6 -9 6 2 1
31 -14 39 -26 14z"/>
<path d="M3510 1481 c0 -15 16 -22 35 -15 13 5 14 8 3 15 -18 12 -38 11 -38 0z"/>
<path d="M4900 1480 c0 -5 7 -10 16 -10 8 0 12 5 9 10 -3 6 -10 10 -16 10 -5
0 -9 -4 -9 -10z"/>
<path d="M2711 1458 c17 -14 14 -42 -3 -32 -7 5 -8 2 -3 -6 6 -10 10 -10 20 3
10 14 12 13 24 -5 7 -11 15 -17 18 -14 8 8 -26 45 -52 57 -17 9 -18 8 -4 -3z"/>
<path d="M2770 1454 c-9 -11 -10 -15 -2 -10 19 11 74 -48 65 -71 -5 -14 1 -11
26 10 35 29 57 34 64 15 6 -18 13 -8 21 27 5 24 4 26 -4 13 -12 -20 -32 -24
-25 -5 7 17 -50 20 -65 2 -6 -8 -18 -11 -26 -8 -10 4 -12 9 -4 18 8 9 6 14 -5
19 -9 3 -13 2 -10 -4 3 -6 2 -10 -4 -10 -5 0 -11 5 -13 11 -2 7 -10 4 -18 -7z
m99 -45 c-9 -5 -15 -4 -18 2 -2 6 3 15 10 20 9 5 15 4 18 -2 2 -6 -3 -15 -10
-20z"/>
<path d="M3818 1459 c-7 -5 -20 -6 -29 -3 -9 2 -19 -2 -22 -10 -8 -20 4 -28
20 -14 11 9 16 9 22 -1 7 -10 9 -9 14 2 3 10 14 13 31 10 14 -3 26 -1 26 5 0
13 -45 21 -62 11z"/>
<path d="M2260 1446 c0 -2 7 -7 16 -10 8 -3 12 -2 9 4 -6 10 -25 14 -25 6z"/>
<path d="M2300 1442 c0 -5 3 -12 8 -16 4 -4 7 -13 7 -18 0 -6 6 -13 13 -15 19
-7 14 21 -8 40 -11 9 -20 13 -20 9z"/>
<path d="M3530 1440 c-24 -8 -23 -8 8 -9 20 -1 31 3 27 9 -3 6 -7 10 -8 9 -1
-1 -13 -5 -27 -9z"/>
<path d="M4427 1441 c-17 -6 -17 -9 -4 -19 12 -10 16 -9 21 4 8 21 6 23 -17
15z"/>
<path d="M4460 1431 c0 -10 9 -21 20 -24 22 -6 27 12 8 31 -17 17 -28 15 -28
-7z"/>
<path d="M5965 1440 c3 -5 8 -10 11 -10 2 0 4 5 4 10 0 6 -5 10 -11 10 -5 0
-7 -4 -4 -10z"/>
<path d="M2359 1428 c-1 -7 -2 -17 -4 -23 -1 -5 -3 -16 -3 -23 -1 -7 -6 -10
-12 -7 -5 3 -10 2 -10 -3 0 -5 9 -12 21 -15 12 -3 18 -3 15 0 -3 4 -1 12 5 20
6 7 8 13 4 13 -4 0 -2 7 5 15 12 15 6 35 -11 35 -5 0 -10 -6 -10 -12z"/>
<path d="M4332 1418 c5 -15 28 -23 28 -10 0 5 -7 13 -16 16 -10 4 -14 1 -12
-6z"/>
<path d="M4263 1405 c4 -8 2 -17 -3 -20 -6 -4 -10 -11 -10 -16 0 -6 6 -4 13 3
16 15 18 48 4 48 -5 0 -7 -7 -4 -15z"/>
<path d="M3558 1398 c9 -9 15 -9 24 0 9 9 7 12 -12 12 -19 0 -21 -3 -12 -12z"/>
<path d="M2681 1378 c0 -13 3 -17 6 -10 4 10 8 10 21 0 12 -9 11 -6 -2 10 -24
27 -26 27 -25 0z"/>
<path d="M3802 1391 c2 -7 7 -12 11 -12 12 1 9 15 -3 20 -7 2 -11 -2 -8 -8z"/>
<path d="M3931 1384 c0 -11 3 -14 6 -6 3 7 2 16 -1 19 -3 4 -6 -2 -5 -13z"/>
<path d="M4450 1393 c0 -6 -3 -20 -7 -30 -7 -17 -6 -17 11 0 14 14 16 21 7 30
-8 8 -11 8 -11 0z"/>
<path d="M5970 1386 c0 -9 40 -13 46 -5 3 5 -6 9 -20 9 -14 0 -26 -2 -26 -4z"/>
<path d="M3950 1372 c0 -4 9 -8 19 -8 11 0 17 4 15 8 -3 4 -12 8 -20 8 -8 0
-14 -4 -14 -8z"/>
<path d="M4385 1370 c-3 -5 1 -10 10 -10 9 0 13 5 10 10 -3 6 -8 10 -10 10 -2
0 -7 -4 -10 -10z"/>
<path d="M2880 1360 c0 -5 5 -10 11 -10 5 0 7 5 4 10 -3 6 -8 10 -11 10 -2 0
-4 -4 -4 -10z"/>
<path d="M3891 1354 c0 -11 3 -14 6 -6 3 7 2 16 -1 19 -3 4 -6 -2 -5 -13z"/>
<path d="M3790 1349 c0 -5 5 -7 10 -4 6 3 10 8 10 11 0 2 -4 4 -10 4 -5 0 -10
-5 -10 -11z"/>
<path d="M3816 1325 c-3 -10 -2 -23 4 -29 15 -15 24 1 13 26 -9 20 -10 20 -17
3z"/>
<path d="M3850 1320 c0 -5 5 -10 11 -10 5 0 7 5 4 10 -3 6 -8 10 -11 10 -2 0
-4 -4 -4 -10z"/>
<path d="M3497 1313 c-4 -3 -7 -11 -7 -17 0 -6 5 -5 12 2 6 6 9 14 7 17 -3 3
-9 2 -12 -2z"/>
<path d="M3560 1300 c0 -5 5 -10 11 -10 5 0 7 5 4 10 -3 6 -8 10 -11 10 -2 0
-4 -4 -4 -10z"/>
<path d="M5862 971 c7 -11 16 -17 20 -15 5 3 2 12 -6 20 -21 20 -28 17 -14 -5z"/>
<path d="M3755 870 c-4 -6 -1 -18 6 -26 6 -8 9 -18 5 -21 -4 -4 -10 -3 -14 2
-11 16 -32 16 -32 1 0 -21 25 -26 48 -10 18 13 21 12 25 -3 4 -15 5 -14 6 3 1
26 -34 70 -44 54z"/>
<path d="M3670 820 c0 -5 5 -10 10 -10 6 0 10 5 10 10 0 6 -4 10 -10 10 -5 0
-10 -4 -10 -10z"/>
<path d="M2167 162 c-3 -4 -3 -37 0 -75 l6 -67 62 0 c34 0 83 3 108 6 44 6 45
7 34 31 -7 16 -17 23 -28 20 -11 -3 -21 4 -28 19 -6 13 -16 24 -22 24 -6 0 -9
7 -5 15 3 10 -3 17 -21 21 -17 5 -28 3 -31 -4 -3 -9 -10 -8 -25 3 -23 16 -43
19 -50 7z m93 -41 c0 -5 3 -17 6 -25 5 -12 2 -15 -9 -10 -9 3 -15 14 -14 25 1
19 17 28 17 10z m-30 -11 c0 -5 -2 -10 -4 -10 -3 0 -8 5 -11 10 -3 6 -1 10 4
10 6 0 11 -4 11 -10z"/>
<path d="M2375 160 c-3 -5 -15 -10 -26 -10 -10 0 -19 -4 -19 -8 0 -14 35 -42
53 -42 10 0 14 -5 11 -15 -8 -19 1 -19 31 1 17 11 37 15 58 11 17 -3 26 -3 20
0 -7 2 -13 11 -13 19 0 7 -12 16 -27 19 -16 4 -40 13 -55 21 -17 9 -29 11 -33
4z"/>
<path d="M2487 146 c15 -21 24 -24 58 -20 58 8 65 12 59 29 -5 11 -22 15 -71
15 l-64 0 18 -24z"/>
<path d="M2685 160 c-3 -5 -17 -10 -30 -10 -18 0 -23 -4 -19 -15 4 -8 1 -15
-5 -15 -6 0 -11 -5 -11 -11 0 -5 5 -7 10 -4 18 11 42 -17 36 -41 -6 -23 -5
-23 82 -23 90 0 130 11 103 28 -12 8 -12 12 2 25 8 9 17 11 19 6 2 -6 15 -6
33 -2 25 7 30 14 30 38 l0 29 -122 3 c-76 2 -124 -1 -128 -8z"/>
<path d="M3098 158 c-3 -7 -3 -37 -2 -67 2 -55 16 -76 44 -65 8 3 32 8 53 11
34 5 37 8 37 39 0 27 4 34 20 34 22 0 28 -25 8 -33 -10 -4 -10 -6 0 -6 6 -1
12 -8 12 -16 0 -11 12 -15 43 -16 82 -2 110 3 177 32 60 25 72 27 101 17 25
-9 34 -8 37 0 7 22 40 12 66 -19 14 -17 26 -35 26 -40 0 -5 34 -9 75 -9 l75 0
0 30 c0 22 -5 30 -17 30 -17 1 -17 2 0 14 12 10 17 24 15 43 l-3 28 -297 3
c-192 1 -298 -1 -298 -8 0 -6 -9 -6 -22 -1 -39 14 -145 13 -150 -1z m172 -28
c0 -5 -7 -10 -15 -10 -8 0 -15 5 -15 10 0 6 7 10 15 10 8 0 15 -4 15 -10z"/>
<path d="M1274 106 c-5 -12 -10 -13 -25 -5 -19 10 -20 7 -18 -36 l3 -47 60 7
c34 3 65 10 71 15 5 4 47 10 93 13 55 4 87 11 98 21 11 11 34 16 76 16 34 0
58 3 55 7 -4 3 -54 7 -112 8 -87 1 -105 -1 -105 -14 0 -13 -2 -13 -12 1 -9 11
-38 18 -96 23 -69 5 -83 4 -88 -9z"/>
<path d="M1757 84 c-4 -4 0 -16 10 -26 14 -16 15 -18 0 -18 -9 0 -19 -5 -22
-10 -4 -6 8 -10 30 -10 32 0 36 3 30 20 -6 18 -2 20 32 20 28 1 34 3 22 10
-23 13 -93 23 -102 14z"/>
<path d="M1935 80 c-3 -5 -1 -10 4 -10 6 0 11 5 11 10 0 6 -2 10 -4 10 -3 0
-8 -4 -11 -10z"/>
<path d="M2626 75 c-3 -8 -12 -12 -21 -9 -8 3 -15 2 -15 -4 0 -5 7 -13 16 -16
31 -12 44 -6 44 19 0 27 -15 34 -24 10z"/>
<path d="M1715 70 c-3 -5 -1 -10 4 -10 6 0 11 5 11 10 0 6 -2 10 -4 10 -3 0
-8 -4 -11 -10z"/>
<path d="M2450 66 c0 -20 25 -37 44 -30 20 8 20 14 -1 30 -23 17 -43 18 -43 0z"/>
<path d="M1910 63 c0 -18 36 -43 63 -43 15 0 27 4 27 8 0 5 -14 7 -30 4 -26
-4 -29 -2 -24 14 4 11 4 16 -1 12 -4 -4 -14 -3 -22 3 -7 7 -13 7 -13 2z"/>
<path d="M1990 60 c0 -5 5 -10 11 -10 5 0 7 5 4 10 -3 6 -8 10 -11 10 -2 0 -4
-4 -4 -10z"/>
<path d="M2900 60 c-12 -8 -9 -10 13 -10 15 0 27 5 27 10 0 13 -20 13 -40 0z"/>
<path d="M4346 53 c-6 -14 -5 -15 5 -6 7 7 10 15 7 18 -3 3 -9 -2 -12 -12z"/>
<path d="M2410 45 c0 -8 7 -15 16 -15 14 0 14 3 4 15 -7 8 -14 15 -16 15 -2 0
-4 -7 -4 -15z"/>
<path d="M3640 45 c-11 -13 -10 -14 4 -9 9 3 16 10 16 15 0 13 -6 11 -20 -6z"/>
<path d="M1525 40 c3 -5 8 -10 11 -10 2 0 4 5 4 10 0 6 -5 10 -11 10 -5 0 -7
-4 -4 -10z"/>
<path d="M4230 35 c-11 -13 -6 -15 46 -15 56 1 58 1 34 15 -15 8 -29 10 -36 4
-6 -5 -15 -4 -21 2 -7 7 -14 5 -23 -6z"/>
<path d="M4370 30 c-19 -6 -9 -8 35 -8 42 -1 54 2 40 8 -24 10 -42 10 -75 0z"/>
<path d="M1408 23 c6 -2 18 -2 25 0 6 3 1 5 -13 5 -14 0 -19 -2 -12 -5z"/>
</g>
</svg>
