<?xml version="1.0" standalone="no"?>
<!DOCTYPE svg PUBLIC "-//W3C//DTD SVG 20010904//EN"
 "http://www.w3.org/TR/2001/REC-SVG-20010904/DTD/svg10.dtd">
<svg version="1.0" xmlns="http://www.w3.org/2000/svg"
 width="639.000000pt" height="415.000000pt" viewBox="0 0 639.000000 415.000000"
 preserveAspectRatio="xMidYMid meet">

<g transform="translate(0.000000,415.000000) scale(0.100000,-0.100000)"
fill="#000000" stroke="none">
<path d="M241 3965 c-1 -67 9 -85 49 -84 23 1 22 2 -7 10 -29 8 -33 14 -33 44
0 32 2 34 38 38 l37 4 -37 1 c-29 2 -37 6 -41 25 -2 12 -5 -5 -6 -38z"/>
<path d="M478 3993 c8 -3 12 -27 12 -69 0 -50 3 -64 15 -64 12 0 15 14 15 64
0 42 4 66 13 69 6 3 -6 5 -28 5 -22 0 -34 -2 -27 -5z"/>
<path d="M549 3988 c-6 -80 -3 -128 9 -128 7 0 12 13 12 30 0 17 5 30 10 30 6
0 10 -13 10 -30 0 -21 5 -30 16 -30 11 0 14 6 8 22 -3 12 -6 43 -5 70 1 47 0
48 -29 48 -17 0 -30 -5 -31 -12z m41 -23 c0 -8 -4 -15 -10 -15 -5 0 -10 7 -10
15 0 8 5 15 10 15 6 0 10 -7 10 -15z"/>
<path d="M647 3978 c-3 -13 -9 -44 -12 -70 -6 -40 -5 -48 9 -48 9 0 16 8 16
20 0 11 5 20 10 20 6 0 10 -9 10 -20 0 -11 7 -20 15 -20 18 0 18 -3 4 77 -9
50 -15 63 -29 63 -10 0 -20 -10 -23 -22z"/>
<path d="M720 3930 c0 -56 3 -70 15 -70 10 0 15 10 15 34 0 19 6 37 13 39 10
4 10 6 0 6 -19 1 -16 51 2 51 12 0 15 -14 15 -65 0 -51 3 -65 15 -65 12 0 15
14 15 70 l0 70 -45 0 -45 0 0 -70z"/>
<path d="M820 3930 c0 -56 3 -70 15 -70 10 0 15 10 16 28 l1 27 10 -27 c5 -16
16 -28 24 -28 11 0 14 16 14 70 0 40 -4 70 -10 70 -5 0 -10 -12 -11 -27 l-1
-28 -11 28 c-6 15 -19 27 -29 27 -16 0 -18 -9 -18 -70z"/>
<path d="M910 3930 l0 -71 33 3 32 3 0 65 0 65 -32 3 -33 3 0 -71z m37 -27
c-2 -16 -4 -3 -4 27 0 30 2 43 4 28 2 -16 2 -40 0 -55z"/>
<path d="M994 3987 c-3 -8 -4 -39 -2 -68 3 -53 4 -54 33 -54 l30 0 0 65 c0 64
-1 65 -28 68 -17 2 -29 -2 -33 -11z m33 -79 c-2 -18 -4 -6 -4 27 0 33 2 48 4
33 2 -15 2 -42 0 -60z"/>
<path d="M350 3960 c-6 -11 -9 -51 -7 -88 l3 -67 2 71 c2 78 14 98 54 92 19
-2 23 -9 23 -38 0 -28 -4 -35 -25 -41 -23 -7 -24 -7 -3 -8 14 -1 29 9 39 24
15 23 15 27 0 50 -21 32 -70 35 -86 5z"/>
<path d="M1420 3934 c-13 -33 -13 -54 0 -34 8 12 13 13 30 2 23 -14 23 -14 9
27 -13 38 -26 40 -39 5z m25 -4 c3 -5 1 -10 -4 -10 -6 0 -11 5 -11 10 0 6 2
10 4 10 3 0 8 -4 11 -10z"/>
<path d="M1480 3930 c0 -16 5 -30 10 -30 6 0 10 14 10 30 0 17 -4 30 -10 30
-5 0 -10 -13 -10 -30z"/>
<path d="M1510 3930 c0 -16 5 -30 10 -30 6 0 10 14 10 30 0 17 -4 30 -10 30
-5 0 -10 -13 -10 -30z"/>
<path d="M1560 3931 c0 -17 5 -33 10 -36 6 -3 10 1 10 9 0 9 7 16 15 16 8 0
15 9 15 20 0 15 -7 20 -25 20 -21 0 -25 -5 -25 -29z m40 9 c0 -5 -4 -10 -10
-10 -5 0 -10 5 -10 10 0 6 5 10 10 10 6 0 10 -4 10 -10z"/>
<path d="M1892 3929 c4 -42 23 -49 22 -7 0 18 -6 34 -13 36 -9 3 -11 -6 -9
-29z"/>
<path d="M1631 3916 c1 -24 3 -26 6 -8 2 12 9 22 14 22 5 0 9 4 9 8 0 5 -7 9
-15 9 -10 0 -15 -10 -14 -31z"/>
<path d="M1674 3936 c-9 -24 4 -48 23 -44 12 2 18 12 18 28 0 29 -32 41 -41
16z m31 -26 c-5 -8 -11 -8 -17 -2 -6 6 -7 16 -3 22 5 8 11 8 17 2 6 -6 7 -16
3 -22z"/>
<path d="M1738 3910 c-2 -22 0 -40 4 -40 5 0 8 18 8 40 0 22 -2 40 -4 40 -2 0
-6 -18 -8 -40z"/>
<path d="M1770 3935 c-11 -13 -11 -19 3 -33 14 -13 19 -14 29 -3 11 11 10 13
-4 8 -13 -5 -18 -1 -18 13 0 21 15 27 23 10 3 -6 4 -5 3 2 -4 19 -22 20 -36 3z"/>
<path d="M1837 3943 c-11 -10 -8 -41 4 -49 6 -3 16 -1 22 5 8 8 6 11 -7 11
-10 0 -16 5 -13 13 2 6 10 11 16 9 7 -1 10 2 6 8 -7 12 -19 13 -28 3z"/>
<path d="M1935 3939 c-4 -6 1 -17 11 -25 18 -15 18 -15 -1 -9 -16 5 -18 4 -7
-6 9 -10 15 -10 24 -1 9 9 8 15 -8 28 -17 14 -17 15 -1 10 11 -3 16 -2 12 4
-8 13 -22 13 -30 -1z"/>
<path d="M1410 3701 c-5 -11 -10 -43 -10 -71 0 -98 -40 -90 458 -90 327 0 441
3 450 12 7 7 12 40 12 78 0 38 -5 71 -12 78 -9 9 -123 12 -450 12 -422 0 -438
-1 -448 -19z m278 -59 c2 -7 -2 -10 -12 -6 -9 3 -16 1 -16 -5 0 -6 8 -11 17
-11 13 0 14 -3 5 -12 -9 -9 -16 -9 -29 4 -14 14 -14 20 -3 33 14 17 31 16 38
-3z m283 3 c19 -2 37 1 42 8 6 8 10 9 13 1 3 -6 26 -10 58 -8 50 3 54 1 54
-20 0 -21 -4 -23 -54 -21 -37 1 -55 -3 -59 -12 -2 -8 -9 -11 -15 -8 -6 4 -7
11 -4 17 5 7 2 8 -6 3 -8 -5 -18 -1 -27 10 -12 17 -13 17 -13 2 0 -22 -18 -22
-22 0 -3 15 -4 15 -20 -1 -17 -17 -18 -16 -18 14 0 26 3 30 19 25 10 -3 34 -8
52 -10z m-345 -6 c10 -17 -13 -36 -27 -22 -12 12 -4 33 11 33 5 0 12 -5 16
-11z m131 -2 c7 -4 14 -3 17 1 3 5 27 9 53 8 41 -1 48 -4 48 -21 0 -18 -7 -20
-72 -22 -41 -1 -76 3 -79 9 -4 6 -10 5 -15 -3 -6 -10 -9 -7 -9 11 0 20 5 25
23 25 13 -1 28 -4 34 -8z"/>
<path d="M6005 3660 c-3 -6 1 -7 9 -4 18 7 21 14 7 14 -6 0 -13 -4 -16 -10z"/>
<path d="M141 3613 c0 -25 1 -26 9 -8 12 27 12 35 0 35 -5 0 -10 -12 -9 -27z"/>
<path d="M221 3623 c12 -15 12 -16 -3 -10 -10 3 -18 3 -18 -2 0 -5 9 -11 20
-14 11 -3 20 -1 20 3 0 17 -13 40 -22 40 -6 0 -4 -8 3 -17z"/>
<path d="M258 3622 c5 -13 12 -23 17 -23 5 0 13 10 17 23 7 20 6 21 -5 6 -12
-15 -14 -15 -25 0 -10 14 -10 13 -4 -6z"/>
<path d="M312 3615 c0 -16 2 -22 5 -12 2 9 2 23 0 30 -3 6 -5 -1 -5 -18z"/>
<path d="M330 3620 c0 -11 2 -20 4 -20 2 0 6 9 9 20 3 11 1 20 -4 20 -5 0 -9
-9 -9 -20z"/>
<path d="M396 3624 c-9 -23 -8 -24 14 -24 11 0 20 2 20 4 0 12 -13 36 -20 36
-4 0 -11 -7 -14 -16z"/>
<path d="M457 3620 c3 -11 7 -20 9 -20 2 0 4 9 4 20 0 11 -4 20 -9 20 -5 0 -7
-9 -4 -20z"/>
<path d="M492 3615 c0 -16 2 -22 5 -12 2 9 2 23 0 30 -3 6 -5 -1 -5 -18z"/>
<path d="M517 3633 c-12 -12 -7 -31 9 -37 14 -5 15 -4 5 8 -7 8 -10 20 -6 26
7 11 2 14 -8 3z"/>
<path d="M547 3620 c3 -11 7 -20 9 -20 2 0 4 9 4 20 0 11 -4 20 -9 20 -5 0 -7
-9 -4 -20z"/>
<path d="M570 3618 c0 -17 3 -19 9 -9 6 9 11 10 15 2 12 -19 26 -12 26 12 0
16 -3 18 -9 8 -6 -9 -11 -10 -15 -2 -12 19 -26 12 -26 -11z"/>
<path d="M166 3605 c4 -8 8 -15 10 -15 2 0 4 7 4 15 0 8 -4 15 -10 15 -5 0 -7
-7 -4 -15z"/>
<path d="M365 3610 c3 -5 8 -10 11 -10 2 0 4 5 4 10 0 6 -5 10 -11 10 -5 0 -7
-4 -4 -10z"/>
<path d="M6050 3616 c0 -2 8 -10 18 -17 15 -13 16 -12 3 4 -13 16 -21 21 -21
13z"/>
<path d="M502 3415 c0 -16 2 -22 5 -12 2 9 2 23 0 30 -3 6 -5 -1 -5 -18z"/>
<path d="M552 3415 c0 -16 2 -22 5 -12 2 9 2 23 0 30 -3 6 -5 -1 -5 -18z"/>
<path d="M442 3410 c0 -14 2 -19 5 -12 2 6 2 18 0 25 -3 6 -5 1 -5 -13z"/>
<path d="M682 3410 c0 -14 2 -19 5 -12 2 6 2 18 0 25 -3 6 -5 1 -5 -13z"/>
<path d="M702 3410 c0 -14 2 -19 5 -12 2 6 2 18 0 25 -3 6 -5 1 -5 -13z"/>
<path d="M531 3404 c0 -11 3 -14 6 -6 3 7 2 16 -1 19 -3 4 -6 -2 -5 -13z"/>
<path d="M1490 3271 c0 -20 2 -21 15 -11 8 7 15 18 14 24 0 6 -3 5 -6 -3 -5
-11 -7 -11 -14 0 -6 10 -9 7 -9 -10z"/>
<path d="M1712 3270 c0 -14 2 -19 5 -12 2 6 2 18 0 25 -3 6 -5 1 -5 -13z"/>
<path d="M1750 3271 c0 -25 6 -27 13 -6 4 8 2 17 -3 20 -6 4 -10 -3 -10 -14z"/>
<path d="M1777 3276 c-4 -10 -5 -21 -2 -24 9 -9 17 6 13 25 -3 17 -4 17 -11
-1z"/>
<path d="M2610 3280 c0 -5 5 -10 11 -10 5 0 7 5 4 10 -3 6 -8 10 -11 10 -2 0
-4 -4 -4 -10z"/>
<path d="M2637 3276 c-4 -10 -5 -21 -2 -24 9 -9 17 6 13 25 -3 17 -4 17 -11
-1z"/>
<path d="M2745 3281 c-3 -5 -2 -12 3 -15 5 -3 9 1 9 9 0 17 -3 19 -12 6z"/>
<path d="M2806 3277 c3 -10 9 -15 12 -12 3 3 0 11 -7 18 -10 9 -11 8 -5 -6z"/>
<path d="M3142 3270 c0 -14 2 -19 5 -12 2 6 2 18 0 25 -3 6 -5 1 -5 -13z"/>
<path d="M3355 3280 c-3 -5 -1 -10 4 -10 6 0 11 5 11 10 0 6 -2 10 -4 10 -3 0
-8 -4 -11 -10z"/>
<path d="M3400 3283 c0 -11 21 -33 32 -33 4 0 8 10 7 23 0 12 -3 16 -6 9 -4
-10 -8 -10 -19 -1 -8 6 -14 7 -14 2z"/>
<path d="M4424 3279 c-3 -6 -2 -15 3 -20 5 -5 9 -1 9 11 0 23 -2 24 -12 9z"/>
<path d="M4790 3286 c0 -2 7 -6 15 -10 8 -3 15 -1 15 4 0 6 -7 10 -15 10 -8 0
-15 -2 -15 -4z"/>
<path d="M5000 3277 c0 -9 4 -18 9 -21 5 -4 8 1 7 9 -3 21 -16 31 -16 12z"/>
<path d="M5040 3268 c0 -19 2 -20 10 -8 13 19 13 30 0 30 -5 0 -10 -10 -10
-22z"/>
<path d="M5067 3275 c-4 -8 -2 -17 3 -20 6 -4 10 3 10 14 0 25 -6 27 -13 6z"/>
<path d="M5900 3271 c0 -25 6 -27 13 -6 4 8 2 17 -3 20 -6 4 -10 -3 -10 -14z"/>
<path d="M5927 3275 c-4 -8 -2 -17 3 -20 6 -4 10 3 10 14 0 25 -6 27 -13 6z"/>
<path d="M1530 3265 c0 -8 2 -15 4 -15 2 0 6 7 10 15 3 8 1 15 -4 15 -6 0 -10
-7 -10 -15z"/>
<path d="M1561 3264 c0 -11 3 -14 6 -6 3 7 2 16 -1 19 -3 4 -6 -2 -5 -13z"/>
<path d="M1583 3265 c0 -8 4 -12 9 -9 5 3 6 10 3 15 -9 13 -12 11 -12 -6z"/>
<path d="M1627 3273 c-4 -3 -7 -11 -7 -17 0 -6 5 -5 12 2 6 6 9 14 7 17 -3 3
-9 2 -12 -2z"/>
<path d="M1665 3271 c-3 -5 0 -13 6 -17 7 -4 9 -3 5 4 -3 6 2 13 11 15 16 4
16 5 1 6 -9 0 -19 -3 -23 -8z"/>
<path d="M1801 3264 c0 -11 3 -14 6 -6 3 7 2 16 -1 19 -3 4 -6 -2 -5 -13z"/>
<path d="M1870 3263 c0 -15 2 -16 10 -3 9 13 11 13 21 0 9 -13 10 -13 6 0 -6
22 -37 25 -37 3z"/>
<path d="M1921 3264 c0 -11 3 -14 6 -6 3 7 2 16 -1 19 -3 4 -6 -2 -5 -13z"/>
<path d="M1941 3264 c0 -11 3 -14 6 -6 3 7 2 16 -1 19 -3 4 -6 -2 -5 -13z"/>
<path d="M3180 3265 c0 -8 2 -15 4 -15 2 0 6 7 10 15 3 8 1 15 -4 15 -6 0 -10
-7 -10 -15z"/>
<path d="M3211 3264 c0 -11 3 -14 6 -6 3 7 2 16 -1 19 -3 4 -6 -2 -5 -13z"/>
<path d="M3231 3264 c0 -11 3 -14 6 -6 3 7 2 16 -1 19 -3 4 -6 -2 -5 -13z"/>
<path d="M3252 3255 c0 -16 2 -22 5 -12 2 9 2 23 0 30 -3 6 -5 -1 -5 -18z"/>
<path d="M3271 3264 c0 -11 3 -14 6 -6 3 7 2 16 -1 19 -3 4 -6 -2 -5 -13z"/>
<path d="M3315 3269 c-11 -16 -1 -19 13 -3 7 8 8 14 3 14 -5 0 -13 -5 -16 -11z"/>
<path d="M3471 3264 c0 -11 3 -14 6 -6 3 7 2 16 -1 19 -3 4 -6 -2 -5 -13z"/>
<path d="M3490 3263 c0 -15 2 -16 10 -3 9 13 11 13 20 0 8 -13 10 -12 10 3 0
10 -8 17 -20 17 -12 0 -20 -7 -20 -17z"/>
<path d="M3567 3273 c-4 -3 -7 -11 -7 -17 0 -6 5 -5 12 2 6 6 9 14 7 17 -3 3
-9 2 -12 -2z"/>
<path d="M4331 3264 c0 -11 3 -14 6 -6 3 7 2 16 -1 19 -3 4 -6 -2 -5 -13z"/>
<path d="M4831 3262 c0 -11 2 -13 6 -4 3 9 9 10 17 3 9 -8 13 -7 13 2 0 7 -9
14 -19 14 -11 1 -18 -5 -17 -15z"/>
<path d="M4881 3264 c0 -11 3 -14 6 -6 3 7 2 16 -1 19 -3 4 -6 -2 -5 -13z"/>
<path d="M4902 3255 c0 -16 2 -22 5 -12 2 9 2 23 0 30 -3 6 -5 -1 -5 -18z"/>
<path d="M4921 3264 c0 -11 3 -14 6 -6 3 7 2 16 -1 19 -3 4 -6 -2 -5 -13z"/>
<path d="M4941 3264 c0 -11 3 -14 6 -6 3 7 2 16 -1 19 -3 4 -6 -2 -5 -13z"/>
<path d="M4961 3264 c0 -11 3 -14 6 -6 3 7 2 16 -1 19 -3 4 -6 -2 -5 -13z"/>
<path d="M5097 3273 c-13 -12 -7 -23 13 -23 11 0 20 7 20 15 0 15 -21 21 -33
8z"/>
<path d="M5141 3264 c0 -11 3 -14 6 -6 3 7 2 16 -1 19 -3 4 -6 -2 -5 -13z"/>
<path d="M5191 3264 c0 -11 3 -14 6 -6 3 7 2 16 -1 19 -3 4 -6 -2 -5 -13z"/>
<path d="M5211 3264 c0 -11 3 -14 6 -6 3 7 2 16 -1 19 -3 4 -6 -2 -5 -13z"/>
<path d="M5951 3264 c0 -11 3 -14 6 -6 3 7 2 16 -1 19 -3 4 -6 -2 -5 -13z"/>
<path d="M6070 3271 c0 -6 4 -13 10 -16 6 -3 7 1 4 9 -7 18 -14 21 -14 7z"/>
<path d="M150 3141 c0 -5 -2 -16 -5 -23 -4 -9 2 -14 15 -14 11 0 20 6 20 14 0
7 -4 10 -10 7 -6 -3 -7 1 -4 9 3 9 1 16 -5 16 -6 0 -11 -4 -11 -9z"/>
<path d="M200 3124 c0 -23 2 -24 15 -10 8 8 15 19 15 25 0 6 -7 11 -15 11 -9
0 -15 -10 -15 -26z"/>
<path d="M241 3123 c0 -16 3 -22 6 -15 2 6 11 12 19 12 8 0 14 7 14 15 0 8 -9
15 -20 15 -15 0 -20 -6 -19 -27z"/>
<path d="M290 3140 c0 -6 8 -14 17 -17 15 -6 15 -7 -3 -14 -16 -6 -16 -8 -2
-8 23 -1 33 18 13 25 -13 6 -14 8 -3 15 10 7 9 9 -4 9 -10 0 -18 -5 -18 -10z"/>
<path d="M144 3007 c-3 -8 -4 -52 -2 -98 l3 -84 495 0 495 0 0 95 0 95 -493 3
c-405 2 -493 0 -498 -11z m156 -87 l0 -40 -40 0 -40 0 0 40 0 40 40 0 40 0 0
-40z m200 27 c0 -13 48 -14 98 -2 12 3 22 1 22 -4 0 -5 9 -7 20 -4 14 4 20 0
20 -11 0 -9 1 -19 3 -23 1 -5 -13 -9 -30 -10 -23 -1 -33 3 -33 13 0 8 -8 14
-17 14 -14 0 -15 -2 -4 -9 9 -6 10 -10 2 -16 -7 -4 -18 -1 -26 5 -12 10 -15
10 -15 0 0 -7 -8 -10 -19 -7 -12 3 -22 -1 -25 -9 -3 -8 -10 -14 -17 -14 -6 0
-9 7 -6 14 4 11 1 13 -10 9 -9 -4 -21 1 -29 12 -13 17 -14 17 -14 2 0 -22 -18
-22 -22 0 -3 16 -4 16 -20 0 -23 -24 -28 -21 -28 14 0 31 1 31 38 24 65 -12
92 -12 92 2 0 7 5 13 10 13 6 0 10 -6 10 -13z"/>
<path d="M234 2920 c-1 -27 2 -30 27 -30 26 0 29 3 28 33 l-1 32 -8 -30 -8
-30 -1 28 c-2 40 -36 38 -37 -3z"/>
<path d="M1490 2632 c0 -10 7 -19 15 -19 8 0 15 4 15 9 0 4 -6 8 -12 8 -9 0
-8 4 2 10 13 8 12 10 -2 10 -11 0 -18 -7 -18 -18z"/>
<path d="M1627 2631 c-4 -17 -3 -21 5 -13 5 5 8 16 6 23 -3 8 -7 3 -11 -10z"/>
<path d="M1670 2640 c0 -5 7 -10 16 -10 8 0 12 5 9 10 -3 6 -10 10 -16 10 -5
0 -9 -4 -9 -10z"/>
<path d="M1742 2630 c0 -14 2 -19 5 -12 2 6 2 18 0 25 -3 6 -5 1 -5 -13z"/>
<path d="M1761 2628 c0 -16 2 -18 6 -8 3 8 11 18 17 22 7 5 4 8 -6 8 -12 0
-18 -7 -17 -22z"/>
<path d="M1825 2639 c-4 -6 -4 -13 -1 -16 3 -4 6 -1 6 5 0 7 5 12 11 12 6 0 8
-7 4 -17 -5 -14 -3 -15 6 -6 12 12 5 33 -11 33 -5 0 -12 -5 -15 -11z"/>
<path d="M1892 2630 c0 -14 2 -19 5 -12 2 6 2 18 0 25 -3 6 -5 1 -5 -13z"/>
<path d="M1911 2628 c0 -16 2 -18 6 -8 3 8 11 18 17 22 7 5 4 8 -6 8 -12 0
-18 -7 -17 -22z"/>
<path d="M2380 2632 c0 -10 7 -19 15 -19 12 0 12 3 2 16 -9 12 -9 13 1 7 6 -4
12 -2 12 3 0 6 -7 11 -15 11 -8 0 -15 -8 -15 -18z"/>
<path d="M2551 2634 c0 -11 3 -14 6 -6 3 7 2 16 -1 19 -3 4 -6 -2 -5 -13z"/>
<path d="M2572 2630 c0 -14 2 -19 5 -12 2 6 2 18 0 25 -3 6 -5 1 -5 -13z"/>
<path d="M2591 2628 c0 -16 2 -18 6 -8 3 8 11 18 17 22 7 5 4 8 -6 8 -12 0
-18 -7 -17 -22z"/>
<path d="M2635 2640 c-4 -7 -2 -17 4 -23 9 -9 11 -8 6 6 -7 18 10 24 18 7 3
-6 4 -5 3 2 -3 16 -23 21 -31 8z"/>
<path d="M2722 2630 c0 -14 2 -19 5 -12 2 6 2 18 0 25 -3 6 -5 1 -5 -13z"/>
<path d="M2741 2628 c0 -16 2 -18 6 -8 3 8 11 18 17 22 7 5 4 8 -6 8 -12 0
-18 -7 -17 -22z"/>
<path d="M2796 2642 c6 -4 14 -14 17 -22 4 -10 6 -8 6 8 1 15 -5 22 -16 22
-11 0 -14 -3 -7 -8z"/>
<path d="M3140 2632 c0 -10 7 -19 15 -19 12 0 12 3 2 16 -9 12 -9 13 1 7 6 -4
12 -2 12 3 0 6 -7 11 -15 11 -8 0 -15 -8 -15 -18z"/>
<path d="M3272 2630 c-7 -11 -8 -20 -3 -20 9 0 24 30 18 36 -1 2 -8 -6 -15
-16z"/>
<path d="M3363 2635 c-3 -9 -3 -19 1 -22 3 -4 6 1 6 10 0 10 5 17 11 17 6 0 8
-7 4 -17 -5 -14 -3 -15 6 -6 12 12 5 33 -12 33 -5 0 -12 -7 -16 -15z"/>
<path d="M3432 2630 c0 -14 2 -19 5 -12 2 6 2 18 0 25 -3 6 -5 1 -5 -13z"/>
<path d="M3471 2628 c0 -16 2 -18 6 -8 3 8 11 18 17 22 7 5 4 8 -6 8 -12 0
-18 -7 -17 -22z"/>
<path d="M3514 2639 c-3 -6 -1 -16 5 -22 9 -9 11 -8 6 6 -4 9 -3 17 3 17 6 0
13 -8 15 -17 4 -14 5 -12 6 5 1 23 -22 31 -35 11z"/>
<path d="M3561 2628 c0 -22 1 -22 8 -3 l8 20 5 -20 c5 -18 6 -18 7 3 1 13 -5
22 -14 22 -9 0 -15 -9 -14 -22z"/>
<path d="M4040 2640 c11 -7 11 -10 2 -10 -7 0 -10 -5 -6 -11 4 -8 9 -7 15 2
13 21 11 29 -8 29 -15 0 -16 -2 -3 -10z"/>
<path d="M4152 2630 c0 -14 2 -19 5 -12 2 6 2 18 0 25 -3 6 -5 1 -5 -13z"/>
<path d="M4262 2630 c0 -14 2 -19 5 -12 2 6 2 18 0 25 -3 6 -5 1 -5 -13z"/>
<path d="M4281 2628 c0 -16 2 -18 6 -8 3 8 11 18 17 22 7 5 4 8 -6 8 -12 0
-18 -7 -17 -22z"/>
<path d="M4344 2639 c-3 -6 -1 -16 5 -22 9 -9 11 -8 6 6 -4 9 -3 17 3 17 6 0
13 -8 15 -17 4 -14 5 -12 6 5 1 23 -22 31 -35 11z"/>
<path d="M4392 2630 c0 -14 2 -19 5 -12 2 6 2 18 0 25 -3 6 -5 1 -5 -13z"/>
<path d="M4412 2630 c0 -14 2 -19 5 -12 2 6 2 18 0 25 -3 6 -5 1 -5 -13z"/>
<path d="M4433 2635 c-3 -9 -3 -19 1 -22 3 -4 6 1 6 10 0 10 5 17 11 17 6 0 8
-7 4 -17 -5 -14 -3 -15 6 -6 12 12 5 33 -12 33 -5 0 -12 -7 -16 -15z"/>
<path d="M4800 2640 c11 -7 11 -10 2 -10 -7 0 -10 -5 -6 -11 4 -8 9 -7 15 2
13 21 11 29 -8 29 -15 0 -16 -2 -3 -10z"/>
<path d="M4921 2627 c-13 -21 -12 -21 5 -5 10 10 16 20 13 22 -3 3 -11 -5 -18
-17z"/>
<path d="M5011 2628 c0 -16 2 -18 6 -8 3 8 11 18 17 22 7 5 4 8 -6 8 -12 0
-18 -7 -17 -22z"/>
<path d="M5054 2639 c-3 -6 -1 -16 5 -22 9 -9 11 -8 6 6 -4 9 -3 17 3 17 6 0
13 -8 15 -17 4 -14 5 -12 6 5 1 23 -22 31 -35 11z"/>
<path d="M5142 2630 c0 -14 2 -19 5 -12 2 6 2 18 0 25 -3 6 -5 1 -5 -13z"/>
<path d="M5163 2635 c-3 -9 -3 -19 1 -22 3 -4 6 1 6 10 0 8 6 18 13 20 9 4 9
6 -1 6 -7 1 -15 -6 -19 -14z"/>
<path d="M5232 2630 c0 -14 2 -19 5 -12 2 6 2 18 0 25 -3 6 -5 1 -5 -13z"/>
<path d="M5670 2630 c0 -20 19 -23 32 -5 9 12 0 25 -18 25 -8 0 -14 -9 -14
-20z"/>
<path d="M5802 2630 c0 -14 2 -19 5 -12 2 6 2 18 0 25 -3 6 -5 1 -5 -13z"/>
<path d="M5843 2630 c2 -30 22 -34 23 -5 l1 20 -5 -20 c-5 -18 -6 -18 -13 5
l-8 25 2 -25z"/>
<path d="M5885 2640 c-4 -7 -2 -17 4 -23 9 -9 11 -8 6 6 -4 9 -3 17 3 17 6 0
13 -7 15 -15 4 -12 5 -11 3 1 -1 21 -21 29 -31 14z"/>
<path d="M5932 2630 c0 -14 2 -19 5 -12 2 6 2 18 0 25 -3 6 -5 1 -5 -13z"/>
<path d="M5952 2630 c0 -14 2 -19 5 -12 2 6 2 18 0 25 -3 6 -5 1 -5 -13z"/>
<path d="M5991 2628 c0 -16 2 -18 6 -8 3 8 11 18 17 22 7 5 4 8 -6 8 -12 0
-18 -7 -17 -22z"/>
<path d="M6046 2642 c6 -4 14 -14 17 -22 4 -10 6 -8 6 8 1 15 -5 22 -16 22
-11 0 -14 -3 -7 -8z"/>
<path d="M6081 2628 c0 -16 2 -18 6 -8 3 8 11 18 17 22 7 5 4 8 -6 8 -12 0
-18 -7 -17 -22z"/>
<path d="M1546 2633 c5 -5 12 -12 16 -18 4 -6 8 -2 8 8 0 9 -7 17 -17 17 -9 0
-12 -3 -7 -7z"/>
<path d="M2421 2613 c2 -24 2 -25 6 -5 5 24 18 29 26 10 3 -8 6 -6 6 5 1 11
-6 17 -19 17 -15 0 -20 -6 -19 -27z"/>
<path d="M3181 2613 c2 -24 2 -25 6 -5 5 24 18 29 26 10 3 -8 6 -6 6 5 1 11
-6 17 -19 17 -15 0 -20 -6 -19 -27z"/>
<path d="M4071 2613 c1 -22 2 -23 6 -8 3 11 10 23 17 27 7 5 5 8 -6 8 -13 0
-18 -7 -17 -27z"/>
<path d="M4831 2613 c1 -22 2 -23 6 -8 3 11 10 23 17 27 7 5 5 8 -6 8 -13 0
-18 -7 -17 -27z"/>
<path d="M5726 2633 c5 -5 12 -12 16 -18 4 -6 8 -2 8 8 0 9 -7 17 -17 17 -9 0
-12 -3 -7 -7z"/>
<path d="M582 2410 c0 -14 2 -19 5 -12 2 6 2 18 0 25 -3 6 -5 1 -5 -13z"/>
<path d="M637 2409 c4 -13 8 -18 11 -10 2 7 -1 18 -6 23 -8 8 -9 4 -5 -13z"/>
<path d="M611 2404 c0 -11 3 -14 6 -6 3 7 2 16 -1 19 -3 4 -6 -2 -5 -13z"/>
<path d="M2406 2359 c-22 -17 -26 -28 -26 -69 0 -41 4 -52 26 -69 24 -19 40
-21 186 -21 204 0 228 10 228 96 0 24 -8 43 -25 59 -24 25 -27 25 -193 25
-156 0 -171 -2 -196 -21z m109 -48 c6 -11 44 -9 63 3 7 4 12 3 12 -2 0 -6 16
-6 41 1 24 6 44 6 48 1 3 -5 13 -9 21 -9 8 0 15 -9 15 -20 0 -19 -7 -20 -117
-20 l-118 0 0 27 c0 27 22 39 35 19z"/>
<path d="M4062 2373 c-18 -7 -42 -57 -42 -88 0 -16 12 -38 29 -56 l29 -29 167
0 167 0 29 29 c17 18 29 40 29 56 0 33 -24 81 -45 89 -20 7 -344 7 -363 -1z
m101 -60 c11 -11 57 -12 57 -2 0 6 5 7 12 3 16 -10 58 -11 58 -2 0 4 9 8 20 8
11 0 20 -4 20 -9 0 -5 8 -8 17 -7 11 0 18 -6 18 -19 0 -18 -7 -20 -65 -21 -36
0 -71 3 -77 9 -9 6 -13 6 -13 0 0 -6 -18 -10 -40 -10 -37 0 -40 2 -40 28 0 27
17 39 33 22z"/>
<path d="M4140 2290 c0 -5 5 -10 11 -10 5 0 7 5 4 10 -3 6 -8 10 -11 10 -2 0
-4 -4 -4 -10z"/>
<path d="M5695 2355 c-31 -30 -34 -92 -6 -126 19 -23 24 -24 194 -27 171 -3
175 -3 202 20 38 33 40 95 6 132 -24 26 -25 26 -198 26 -171 0 -174 0 -198
-25z m140 -49 c11 -1 25 2 32 6 6 5 14 5 17 -1 3 -5 15 -7 26 -4 16 4 20 0 20
-20 0 -22 -4 -26 -30 -25 -20 1 -30 6 -30 17 0 14 -2 14 -10 1 -12 -20 -79
-23 -87 -4 -9 24 5 47 25 39 9 -4 26 -8 37 -9z m135 5 c0 -5 8 -8 17 -7 11 0
19 -7 21 -20 3 -18 -2 -22 -22 -20 -20 1 -26 7 -27 26 -1 23 -2 23 -9 -5 l-8
-30 -1 33 c-1 22 4 32 14 32 8 0 15 -4 15 -9z"/>
<path d="M482 2160 c0 -14 2 -19 5 -12 2 6 2 18 0 25 -3 6 -5 1 -5 -13z"/>
<path d="M461 2154 c0 -11 3 -14 6 -6 3 7 2 16 -1 19 -3 4 -6 -2 -5 -13z"/>
<path d="M145 1999 c-4 -6 -4 -13 -1 -16 3 -4 6 -1 6 6 0 7 5 9 12 5 7 -4 8
-3 4 4 -9 15 -13 15 -21 1z"/>
<path d="M180 1975 c0 -8 4 -15 10 -15 5 0 7 7 4 15 -4 8 -8 15 -10 15 -2 0
-4 -7 -4 -15z"/>
<path d="M211 1974 c0 -11 3 -14 6 -6 3 7 2 16 -1 19 -3 4 -6 -2 -5 -13z"/>
<path d="M230 1975 c0 -8 2 -15 4 -15 2 0 6 7 10 15 3 8 1 15 -4 15 -6 0 -10
-7 -10 -15z"/>
<path d="M260 1975 c0 -8 2 -15 4 -15 2 0 6 7 10 15 3 8 1 15 -4 15 -6 0 -10
-7 -10 -15z"/>
<path d="M291 1974 c0 -11 3 -14 6 -6 3 7 2 16 -1 19 -3 4 -6 -2 -5 -13z"/>
<path d="M310 1975 c0 -8 2 -15 4 -15 2 0 6 7 10 15 3 8 1 15 -4 15 -6 0 -10
-7 -10 -15z"/>
<path d="M340 1975 c0 -8 2 -15 4 -15 2 0 6 7 10 15 3 8 1 15 -4 15 -6 0 -10
-7 -10 -15z"/>
<path d="M371 1974 c0 -11 3 -14 6 -6 3 7 2 16 -1 19 -3 4 -6 -2 -5 -13z"/>
<path d="M390 1975 c0 -8 4 -15 8 -15 5 0 9 7 9 15 0 8 -4 15 -9 15 -4 0 -8
-7 -8 -15z"/>
<path d="M421 1974 c0 -11 3 -14 6 -6 3 7 2 16 -1 19 -3 4 -6 -2 -5 -13z"/>
<path d="M450 1975 c0 -8 2 -15 4 -15 2 0 6 7 10 15 3 8 1 15 -4 15 -6 0 -10
-7 -10 -15z"/>
<path d="M487 1972 c1 -8 3 -19 3 -25 0 -7 4 -6 10 3 5 8 10 22 10 30 0 12 -2
13 -9 1 -5 -7 -11 -9 -13 -5 -3 5 -3 3 -1 -4z"/>
<path d="M1492 1890 c0 -14 2 -19 5 -12 2 6 2 18 0 25 -3 6 -5 1 -5 -13z"/>
<path d="M1712 1890 c0 -14 2 -19 5 -12 2 6 2 18 0 25 -3 6 -5 1 -5 -13z"/>
<path d="M1750 1891 c0 -25 6 -27 13 -6 4 8 2 17 -3 20 -6 4 -10 -3 -10 -14z"/>
<path d="M1777 1895 c-4 -8 -2 -17 3 -20 6 -4 10 3 10 14 0 25 -6 27 -13 6z"/>
<path d="M1807 1903 c-13 -13 -7 -33 11 -32 10 0 12 3 5 6 -7 2 -13 9 -13 14
0 6 5 7 12 3 7 -4 8 -3 4 4 -8 14 -10 14 -19 5z"/>
<path d="M1927 1903 c-10 -10 -8 -33 3 -33 5 0 6 7 3 17 -5 12 -3 14 7 8 9 -5
11 -4 6 3 -8 14 -10 14 -19 5z"/>
<path d="M2624 1892 c24 -27 26 -27 25 1 0 12 -3 16 -6 9 -4 -10 -8 -10 -21 0
-12 9 -11 6 2 -10z"/>
<path d="M2810 1897 c0 -8 -8 -18 -17 -20 -17 -4 -17 -5 0 -6 18 -1 35 25 23
36 -3 4 -6 -1 -6 -10z"/>
<path d="M3142 1890 c0 -14 2 -19 5 -12 2 6 2 18 0 25 -3 6 -5 1 -5 -13z"/>
<path d="M3355 1900 c3 -5 8 -10 11 -10 2 0 4 5 4 10 0 6 -5 10 -11 10 -5 0
-7 -4 -4 -10z"/>
<path d="M3400 1900 c0 -5 5 -10 11 -10 5 0 7 5 4 10 -3 6 -8 10 -11 10 -2 0
-4 -4 -4 -10z"/>
<path d="M3427 1896 c-4 -10 -5 -21 -2 -24 9 -9 17 6 13 25 -3 17 -4 17 -11
-1z"/>
<path d="M4271 1893 c7 -12 15 -20 18 -17 3 2 -3 12 -13 22 -17 16 -18 16 -5
-5z"/>
<path d="M4387 1899 c7 -9 10 -19 6 -22 -3 -4 -1 -7 5 -7 17 0 15 16 -5 31
-16 12 -17 12 -6 -2z"/>
<path d="M4875 1901 c4 -8 2 -17 -6 -22 -9 -6 -10 -9 -2 -9 19 0 27 21 13 33
-10 9 -11 9 -5 -2z"/>
<path d="M4927 1903 c-13 -13 -7 -33 11 -32 10 0 12 3 5 6 -7 2 -13 9 -13 14
0 6 5 7 12 3 7 -4 8 -3 4 4 -8 14 -10 14 -19 5z"/>
<path d="M5000 1896 c0 -8 4 -17 8 -20 4 -2 8 4 8 15 0 10 -4 19 -8 19 -4 0
-8 -6 -8 -14z"/>
<path d="M5041 1887 c0 -12 3 -16 6 -9 4 10 8 10 19 1 11 -9 14 -8 14 8 0 12
-8 19 -20 20 -15 1 -20 -4 -19 -20z"/>
<path d="M5900 1890 c0 -11 2 -20 4 -20 2 0 6 9 9 20 3 11 1 20 -4 20 -5 0 -9
-9 -9 -20z"/>
<path d="M5927 1895 c-4 -8 -2 -17 3 -20 6 -4 10 3 10 14 0 25 -6 27 -13 6z"/>
<path d="M6030 1906 c0 -4 7 -14 15 -22 8 -9 15 -11 15 -6 0 5 -7 15 -15 22
-8 7 -15 9 -15 6z"/>
<path d="M6073 1896 c1 -11 9 -21 17 -23 10 -3 11 -2 4 4 -6 4 -14 15 -17 23
-5 11 -6 9 -4 -4z"/>
<path d="M1530 1885 c0 -8 2 -15 4 -15 2 0 6 7 10 15 3 8 1 15 -4 15 -6 0 -10
-7 -10 -15z"/>
<path d="M1561 1893 c-1 -17 19 -27 31 -15 6 6 6 12 -3 17 -8 5 -10 4 -5 -3 4
-7 3 -12 -3 -12 -5 0 -12 6 -14 13 -4 9 -6 9 -6 0z"/>
<path d="M1620 1891 c0 -10 19 -25 25 -20 1 2 -3 10 -11 17 -8 7 -14 8 -14 3z"/>
<path d="M1871 1884 c0 -11 3 -14 6 -6 3 7 2 16 -1 19 -3 4 -6 -2 -5 -13z"/>
<path d="M3181 1884 c0 -11 3 -14 6 -6 3 7 2 16 -1 19 -3 4 -6 -2 -5 -13z"/>
<path d="M3211 1888 c-1 -10 6 -18 14 -18 8 0 15 8 15 18 0 13 -2 14 -9 3 -7
-11 -9 -11 -14 0 -4 10 -6 9 -6 -3z"/>
<path d="M3252 1875 c0 -16 2 -22 5 -12 2 9 2 23 0 30 -3 6 -5 -1 -5 -18z"/>
<path d="M3270 1891 c0 -10 19 -25 25 -20 1 2 -3 10 -11 17 -8 7 -14 8 -14 3z"/>
<path d="M3310 1891 c0 -10 19 -25 25 -20 1 2 -3 10 -11 17 -8 7 -14 8 -14 3z"/>
<path d="M3462 1885 c-11 -12 -10 -15 3 -15 8 0 15 7 15 15 0 18 -2 18 -18 0z"/>
<path d="M3491 1884 c0 -11 3 -14 6 -6 3 7 2 16 -1 19 -3 4 -6 -2 -5 -13z"/>
<path d="M3521 1884 c0 -11 3 -14 6 -6 3 7 2 16 -1 19 -3 4 -6 -2 -5 -13z"/>
<path d="M3560 1891 c0 -10 19 -25 25 -20 1 2 -3 10 -11 17 -8 7 -14 8 -14 3z"/>
<path d="M4322 1884 c-7 -8 -8 -14 -3 -14 10 0 25 19 20 25 -2 1 -10 -3 -17
-11z"/>
<path d="M4831 1884 c0 -11 3 -14 6 -6 3 7 2 16 -1 19 -3 4 -6 -2 -5 -13z"/>
<path d="M4898 1877 c-3 -19 -2 -25 4 -19 6 6 8 18 6 28 -3 14 -5 12 -10 -9z"/>
<path d="M4960 1887 c0 -10 8 -17 18 -17 9 0 13 4 7 8 -5 4 -13 11 -17 16 -5
5 -8 2 -8 -7z"/>
<path d="M5093 1890 c6 -22 37 -25 37 -3 0 15 -2 16 -10 3 -9 -13 -11 -13 -21
0 -9 13 -10 13 -6 0z"/>
<path d="M5141 1884 c0 -11 3 -14 6 -6 3 7 2 16 -1 19 -3 4 -6 -2 -5 -13z"/>
<path d="M5191 1884 c0 -11 3 -14 6 -6 3 7 2 16 -1 19 -3 4 -6 -2 -5 -13z"/>
<path d="M5210 1887 c0 -10 8 -17 18 -17 9 0 13 4 7 8 -5 4 -13 11 -17 16 -5
5 -8 2 -8 -7z"/>
<path d="M5950 1891 c0 -10 19 -25 25 -20 1 2 -3 10 -11 17 -8 7 -14 8 -14 3z"/>
<path d="M2668 1873 c7 -3 16 -2 19 1 4 3 -2 6 -13 5 -11 0 -14 -3 -6 -6z"/>
<path d="M4438 1873 c7 -3 16 -2 19 1 4 3 -2 6 -13 5 -11 0 -14 -3 -6 -6z"/>
<path d="M351 1778 c-1 -27 0 -27 18 -11 17 14 20 33 5 33 -3 0 -2 -4 1 -10 3
-5 2 -10 -4 -10 -5 0 -12 6 -14 13 -3 6 -6 0 -6 -15z"/>
<path d="M400 1776 c0 -31 6 -34 13 -6 3 11 1 23 -4 26 -5 3 -9 -6 -9 -20z"/>
<path d="M431 1777 c-13 -21 -12 -21 5 -5 10 10 16 20 13 22 -3 3 -11 -5 -18
-17z"/>
<path d="M1725 1269 c-5 -8 -4 -10 3 -5 7 4 12 1 12 -8 0 -8 -6 -17 -12 -19
-10 -4 -10 -6 0 -6 17 -1 27 28 14 41 -6 6 -12 6 -17 -3z"/>
<path d="M1874 1269 c-4 -8 -3 -9 4 -5 7 4 12 1 12 -9 0 -9 -4 -13 -10 -10 -5
3 -10 1 -10 -4 0 -6 7 -11 15 -11 8 0 15 9 15 19 0 24 -16 36 -26 20z"/>
<path d="M2555 1271 c-3 -6 1 -18 9 -27 15 -14 16 -14 13 5 -4 26 -13 35 -22
22z"/>
<path d="M2704 1269 c-4 -8 -3 -9 4 -5 7 4 12 1 12 -8 0 -8 -6 -17 -12 -19 -8
-3 -6 -6 5 -6 10 -1 17 6 17 18 0 24 -16 36 -26 20z"/>
<path d="M2795 1269 c-5 -8 -4 -10 3 -5 7 4 12 1 12 -8 0 -8 -6 -17 -12 -19
-10 -4 -10 -6 0 -6 17 -1 27 28 14 41 -6 6 -12 6 -17 -3z"/>
<path d="M3264 1269 c-4 -8 -3 -9 4 -5 16 9 15 -7 0 -22 -9 -9 -9 -12 3 -12 8
0 15 9 16 20 2 23 -13 35 -23 19z"/>
<path d="M3414 1269 c-4 -8 -3 -9 4 -5 7 4 12 1 12 -8 0 -8 -6 -17 -12 -19 -8
-3 -6 -6 5 -6 10 -1 17 6 17 18 0 24 -16 36 -26 20z"/>
<path d="M3536 1266 c4 -11 2 -21 -7 -27 -10 -6 -11 -9 -1 -9 18 0 27 29 13
43 -9 9 -11 8 -5 -7z"/>
<path d="M3566 1273 c-12 -12 -6 -43 9 -43 8 0 15 9 15 19 0 21 -13 34 -24 24z
m11 -25 c-3 -8 -6 -5 -6 6 -1 11 2 17 5 13 3 -3 4 -12 1 -19z"/>
<path d="M4244 1269 c-4 -8 -3 -9 4 -5 7 4 12 1 12 -8 0 -8 -6 -17 -12 -19 -8
-3 -6 -6 5 -6 10 -1 17 6 17 18 0 24 -16 36 -26 20z"/>
<path d="M4366 1266 c4 -11 2 -21 -7 -27 -10 -6 -11 -9 -1 -9 18 0 27 29 13
43 -9 9 -11 8 -5 -7z"/>
<path d="M4396 1273 c-12 -12 -6 -43 9 -43 8 0 15 9 15 19 0 21 -13 34 -24 24z
m11 -25 c-3 -8 -6 -5 -6 6 -1 11 2 17 5 13 3 -3 4 -12 1 -19z"/>
<path d="M4914 1269 c-4 -8 -3 -9 4 -5 16 9 15 -7 0 -22 -9 -9 -9 -12 3 -12 8
0 15 9 16 20 2 23 -13 35 -23 19z"/>
<path d="M5076 1266 c4 -11 2 -21 -7 -27 -10 -6 -11 -9 -1 -9 18 0 27 29 13
43 -9 9 -11 8 -5 -7z"/>
<path d="M5124 1269 c-4 -8 -3 -9 4 -5 7 4 12 1 12 -9 0 -9 -4 -13 -10 -10 -5
3 -10 1 -10 -4 0 -6 7 -11 15 -11 8 0 15 9 15 19 0 24 -16 36 -26 20z"/>
<path d="M5215 1269 c-5 -8 -4 -10 3 -5 7 4 12 1 12 -8 0 -8 -6 -17 -12 -19
-10 -4 -10 -6 0 -6 17 -1 27 28 14 41 -6 6 -12 6 -17 -3z"/>
<path d="M5907 1261 c5 -21 -11 -30 -20 -11 -3 6 -4 5 -3 -2 1 -6 8 -14 14
-16 16 -5 27 27 14 40 -8 8 -9 5 -5 -11z"/>
<path d="M5936 1273 c-12 -12 -6 -43 9 -43 8 0 15 9 15 19 0 21 -13 34 -24 24z
m11 -25 c-3 -8 -6 -5 -6 6 -1 11 2 17 5 13 3 -3 4 -12 1 -19z"/>
<path d="M6045 1269 c-5 -8 -4 -10 3 -5 7 4 12 1 12 -8 0 -8 -6 -17 -12 -19
-10 -4 -10 -6 0 -6 17 -1 27 28 14 41 -6 6 -12 6 -17 -3z"/>
<path d="M1490 1252 c0 -10 7 -19 15 -19 8 0 15 2 15 4 0 3 -7 11 -15 19 -13
14 -15 13 -15 -4z"/>
<path d="M1622 1250 c-10 -16 -10 -20 1 -20 7 0 13 9 14 20 1 11 1 20 0 20 -1
0 -8 -9 -15 -20z"/>
<path d="M1670 1260 c0 -6 7 -10 15 -10 8 0 15 2 15 4 0 2 -7 6 -15 10 -8 3
-15 1 -15 -4z"/>
<path d="M1761 1253 c-1 -16 5 -23 17 -23 10 0 13 3 6 8 -6 4 -14 14 -17 22
-4 10 -6 8 -6 -7z"/>
<path d="M1851 1258 c-1 -21 -17 -24 -24 -5 -4 9 -6 9 -6 0 -1 -17 19 -27 31
-15 6 6 8 16 5 24 -4 9 -6 7 -6 -4z"/>
<path d="M1913 1256 c1 -11 9 -21 17 -23 10 -3 11 -2 4 4 -6 4 -14 15 -17 23
-5 11 -6 9 -4 -4z"/>
<path d="M2381 1254 c-1 -27 25 -27 27 0 1 15 -1 17 -7 7 -7 -11 -9 -11 -14 0
-3 9 -6 6 -6 -7z"/>
<path d="M2591 1253 c-1 -16 5 -23 17 -23 10 0 13 3 6 8 -6 4 -14 14 -17 22
-4 10 -6 8 -6 -7z"/>
<path d="M2661 1258 c-1 -21 -17 -24 -24 -5 -4 9 -6 9 -6 0 -1 -17 19 -27 31
-15 6 6 8 16 5 24 -4 9 -6 7 -6 -4z"/>
<path d="M2741 1253 c-1 -16 5 -23 17 -23 10 0 13 3 6 8 -6 4 -14 14 -17 22
-4 10 -6 8 -6 -7z"/>
<path d="M3141 1254 c-1 -27 25 -27 27 0 1 15 -1 17 -7 7 -7 -11 -9 -11 -14 0
-3 9 -6 6 -6 -7z"/>
<path d="M3320 1260 c0 -6 6 -10 13 -10 8 0 7 -4 -3 -10 -13 -8 -12 -10 3 -10
21 0 23 26 2 34 -8 3 -15 1 -15 -4z"/>
<path d="M3364 1250 c2 -18 28 -20 32 -2 1 7 0 8 -3 2 -7 -14 -21 -13 -26 3
-2 7 -3 6 -3 -3z"/>
<path d="M3471 1253 c-1 -16 5 -23 17 -23 10 0 13 3 6 8 -6 4 -14 14 -17 22
-4 10 -6 8 -6 -7z"/>
<path d="M4042 1254 c-7 -8 -8 -14 -3 -14 10 0 25 19 20 25 -2 1 -10 -3 -17
-11z"/>
<path d="M4152 1250 c0 -14 2 -19 5 -12 2 6 2 18 0 25 -3 6 -5 1 -5 -13z"/>
<path d="M4193 1249 c-1 -12 4 -19 15 -18 12 0 13 2 3 6 -10 4 -10 7 -1 13 9
5 8 9 -2 13 -9 3 -14 -2 -15 -14z"/>
<path d="M4281 1253 c-1 -16 5 -23 17 -23 10 0 13 3 6 8 -6 4 -14 14 -17 22
-4 10 -6 8 -6 -7z"/>
<path d="M4434 1250 c2 -18 28 -20 32 -2 1 7 0 8 -3 2 -7 -14 -21 -13 -26 3
-2 7 -3 6 -3 -3z"/>
<path d="M4802 1254 c-7 -8 -8 -14 -3 -14 10 0 25 19 20 25 -2 1 -10 -3 -17
-11z"/>
<path d="M4970 1260 c0 -6 6 -10 13 -10 8 0 7 -4 -3 -10 -13 -8 -12 -10 3 -10
21 0 23 26 2 34 -8 3 -15 1 -15 -4z"/>
<path d="M5011 1253 c-1 -16 5 -23 17 -23 10 0 13 3 6 8 -6 4 -14 14 -17 22
-4 10 -6 8 -6 -7z"/>
<path d="M5161 1258 c-1 -22 18 -33 32 -19 8 8 8 14 -2 24 -10 10 -11 9 -6 -5
4 -10 3 -18 -3 -18 -6 0 -13 8 -15 18 -4 15 -5 15 -6 0z"/>
<path d="M5670 1252 c0 -10 7 -19 15 -19 8 0 15 2 15 4 0 3 -7 11 -15 19 -13
14 -15 13 -15 -4z"/>
<path d="M5802 1250 c0 -14 2 -19 5 -12 2 6 2 18 0 25 -3 6 -5 1 -5 -13z"/>
<path d="M5842 1250 c0 -14 2 -19 5 -12 2 6 2 18 0 25 -3 6 -5 1 -5 -13z"/>
<path d="M5862 1250 c0 -14 2 -19 5 -12 2 6 2 18 0 25 -3 6 -5 1 -5 -13z"/>
<path d="M5991 1253 c-1 -16 5 -23 17 -23 10 0 13 3 6 8 -6 4 -14 14 -17 22
-4 10 -6 8 -6 -7z"/>
<path d="M6081 1253 c-1 -16 5 -23 17 -23 10 0 13 3 6 8 -6 4 -14 14 -17 22
-4 10 -6 8 -6 -7z"/>
<path d="M1552 1245 c-11 -12 -10 -15 3 -15 8 0 15 7 15 15 0 18 -2 18 -18 0z"/>
<path d="M2421 1235 c0 -16 3 -24 6 -17 2 6 11 12 19 12 8 0 14 8 14 18 0 14
-2 15 -10 2 -9 -13 -11 -13 -20 0 -7 12 -10 8 -9 -15z"/>
<path d="M3181 1235 c0 -16 3 -24 6 -17 2 6 11 12 19 12 8 0 14 8 14 18 0 14
-2 15 -10 2 -9 -13 -11 -13 -20 0 -7 12 -10 8 -9 -15z"/>
<path d="M4072 1235 c0 -16 2 -22 5 -12 2 9 2 23 0 30 -3 6 -5 -1 -5 -18z"/>
<path d="M4093 1245 c0 -8 4 -12 9 -9 5 3 6 10 3 15 -9 13 -12 11 -12 -6z"/>
<path d="M4832 1235 c0 -16 2 -22 5 -12 2 9 2 23 0 30 -3 6 -5 -1 -5 -18z"/>
<path d="M4853 1245 c0 -8 4 -12 9 -9 5 3 6 10 3 15 -9 13 -12 11 -12 -6z"/>
<path d="M5741 1244 c0 -11 3 -14 6 -6 3 7 2 16 -1 19 -3 4 -6 -2 -5 -13z"/>
<path d="M2400 980 c-27 -27 -28 -102 -1 -129 28 -28 68 -33 230 -29 142 3
143 3 167 31 30 35 31 85 3 121 l-20 26 -180 0 c-166 0 -180 -1 -199 -20z
m280 -50 c0 -4 8 -7 17 -6 10 0 19 -7 21 -17 3 -16 -7 -17 -117 -16 -120 2
-121 2 -121 25 0 23 19 32 33 17 10 -9 57 -10 57 -1 0 4 15 4 34 1 19 -3 36
-1 40 5 7 12 36 5 36 -8z"/>
<path d="M4049 981 c-33 -27 -34 -101 -1 -133 22 -22 29 -23 197 -23 164 0
176 1 195 21 32 32 37 93 10 127 l-21 27 -179 0 c-160 0 -180 -2 -201 -19z
m313 -65 c14 -22 -7 -26 -118 -25 -113 2 -114 2 -114 25 0 24 23 33 35 15 3
-6 17 -6 35 -1 16 5 32 5 35 1 6 -10 55 -2 55 10 0 10 63 -11 72 -25z"/>
<path d="M4140 909 c0 -5 5 -7 10 -4 6 3 10 8 10 11 0 2 -4 4 -10 4 -5 0 -10
-5 -10 -11z"/>
<path d="M5691 974 c-28 -36 -27 -86 3 -121 24 -28 24 -28 172 -31 181 -5 219
4 240 54 18 42 5 98 -26 114 -10 6 -97 10 -194 10 l-175 0 -20 -26z m279 -44
c0 -5 9 -6 20 -3 15 4 20 0 20 -16 0 -31 -50 -30 -51 2 -1 21 -1 21 -9 -3 -8
-24 -8 -23 -9 7 -1 25 2 31 14 27 8 -4 15 -10 15 -14z m-155 1 c3 -6 17 -6 35
-1 16 5 32 5 35 0 3 -4 14 -6 25 -3 15 4 20 0 20 -16 0 -17 -6 -21 -30 -21
-17 0 -30 5 -30 13 0 8 -2 9 -8 1 -4 -7 -26 -12 -49 -12 -39 -1 -43 2 -43 24
0 17 6 24 19 24 11 0 22 -4 26 -9z"/>
<path d="M1490 514 c0 -23 2 -24 15 -10 8 8 15 19 15 25 0 6 -7 11 -15 11 -9
0 -15 -10 -15 -26z"/>
<path d="M1710 521 c0 -25 6 -27 13 -6 4 8 2 17 -3 20 -6 4 -10 -3 -10 -14z"/>
<path d="M1750 521 c0 -25 6 -27 13 -6 4 8 2 17 -3 20 -6 4 -10 -3 -10 -14z"/>
<path d="M1777 520 c-3 -11 -1 -23 4 -26 5 -3 9 6 9 20 0 31 -6 34 -13 6z"/>
<path d="M2637 520 c-3 -11 -1 -20 4 -20 5 0 9 9 9 20 0 11 -2 20 -4 20 -2 0
-6 -9 -9 -20z"/>
<path d="M2796 533 c6 -4 14 -15 17 -23 5 -11 6 -9 4 4 -1 11 -9 21 -17 23
-10 3 -11 2 -4 -4z"/>
<path d="M3140 521 c0 -14 5 -19 15 -14 17 6 15 25 -3 31 -7 2 -12 -5 -12 -17z"/>
<path d="M3400 535 c0 -13 20 -35 32 -35 4 0 8 10 7 23 0 20 -1 21 -8 2 -8
-19 -8 -19 -19 0 -6 11 -12 15 -12 10z"/>
<path d="M4385 531 c-6 -11 13 -26 22 -17 4 3 0 6 -8 6 -11 0 -11 2 1 10 9 6
10 10 3 10 -6 0 -14 -4 -18 -9z"/>
<path d="M4799 532 c9 -7 10 -11 2 -15 -7 -4 -8 -5 0 -3 15 2 13 20 -3 24 -10
3 -10 2 1 -6z"/>
<path d="M5040 521 c0 -25 6 -27 13 -6 4 8 2 17 -3 20 -6 4 -10 -3 -10 -14z"/>
<path d="M5067 527 c-3 -8 -1 -20 4 -28 6 -10 9 -7 9 14 0 29 -5 35 -13 14z"/>
<path d="M5900 521 c0 -25 6 -27 13 -6 4 8 2 17 -3 20 -6 4 -10 -3 -10 -14z"/>
<path d="M5932 520 c0 -14 2 -19 5 -12 2 6 2 18 0 25 -3 6 -5 1 -5 -13z"/>
<path d="M6036 531 c-3 -5 2 -15 12 -22 15 -12 16 -12 5 2 -7 9 -10 19 -6 22
3 4 4 7 0 7 -3 0 -8 -4 -11 -9z"/>
<path d="M6073 525 c-3 -9 -3 -19 1 -22 3 -4 6 1 6 10 0 8 6 18 13 20 9 4 9 6
-1 6 -7 1 -15 -6 -19 -14z"/>
<path d="M1530 515 c0 -8 2 -15 4 -15 2 0 6 7 10 15 3 8 1 15 -4 15 -6 0 -10
-7 -10 -15z"/>
<path d="M1565 520 c-8 -13 3 -30 18 -30 7 0 6 4 -3 10 -13 9 -13 11 0 20 9 6
10 10 3 10 -6 0 -15 -4 -18 -10z"/>
<path d="M1625 520 c-8 -13 3 -30 18 -29 9 0 9 2 0 6 -7 2 -13 9 -13 15 0 6 7
7 16 4 8 -3 12 -2 9 4 -8 13 -22 13 -30 0z"/>
<path d="M1800 516 c0 -20 17 -29 26 -15 4 8 3 9 -4 5 -7 -4 -12 -3 -12 3 0 5
6 12 13 14 7 3 5 6 -5 6 -10 1 -18 -5 -18 -13z"/>
<path d="M1856 523 c6 -4 14 -15 17 -23 4 -12 6 -11 6 3 1 19 16 23 24 7 3 -6
4 -5 3 2 -1 7 -16 14 -32 16 -16 1 -24 -1 -18 -5z"/>
<path d="M1920 522 c0 -5 7 -9 15 -9 8 0 12 4 9 9 -3 4 -9 8 -15 8 -5 0 -9 -4
-9 -8z"/>
<path d="M3180 510 c0 -11 2 -20 4 -20 2 0 6 9 9 20 3 11 1 20 -4 20 -5 0 -9
-9 -9 -20z"/>
<path d="M3212 514 c4 -21 22 -23 26 -1 2 10 -3 17 -13 17 -10 0 -15 -6 -13
-16z"/>
<path d="M3252 505 c0 -16 2 -22 5 -12 2 9 2 23 0 30 -3 6 -5 -1 -5 -18z"/>
<path d="M3275 520 c-8 -13 3 -30 18 -29 9 0 9 2 0 6 -7 2 -13 9 -13 14 0 6 5
7 10 4 6 -3 10 -1 10 4 0 14 -17 14 -25 1z"/>
<path d="M3315 520 c-8 -13 3 -30 18 -30 7 0 6 4 -3 10 -13 9 -13 11 0 20 9 6
10 10 3 10 -6 0 -15 -4 -18 -10z"/>
<path d="M3458 523 c6 -2 12 -9 12 -14 0 -6 -4 -7 -10 -4 -5 3 -10 1 -10 -4 0
-6 7 -11 15 -11 8 0 15 9 15 20 0 13 -6 20 -17 19 -11 0 -13 -3 -5 -6z"/>
<path d="M3490 512 c0 -15 2 -15 10 -2 7 11 12 12 18 4 5 -9 10 -9 18 1 9 9 6
12 -17 13 -21 0 -29 -4 -29 -16z"/>
<path d="M3565 520 c-8 -13 3 -30 18 -29 9 0 9 2 0 6 -7 2 -13 9 -13 15 0 6 7
7 16 4 8 -3 12 -2 9 4 -8 13 -22 13 -30 0z"/>
<path d="M4260 526 c0 -2 8 -10 18 -17 15 -13 16 -12 3 4 -13 16 -21 21 -21
13z"/>
<path d="M4322 516 c7 -8 15 -12 17 -11 5 6 -10 25 -20 25 -5 0 -4 -6 3 -14z"/>
<path d="M4830 512 c0 -10 3 -13 8 -7 10 13 42 18 42 6 0 -5 -5 -12 -10 -14
-6 -3 -5 -4 2 -3 25 5 13 31 -14 33 -21 1 -28 -3 -28 -15z"/>
<path d="M4902 505 c0 -16 2 -22 5 -12 2 9 2 23 0 30 -3 6 -5 -1 -5 -18z"/>
<path d="M4920 516 c0 -8 4 -18 10 -21 6 -4 7 1 3 11 -5 13 -3 15 7 9 9 -5 11
-4 6 3 -10 17 -26 15 -26 -2z"/>
<path d="M4960 516 c0 -8 5 -18 12 -22 7 -5 8 -3 3 6 -4 7 -2 16 6 21 11 7 10
9 -3 9 -10 0 -18 -6 -18 -14z"/>
<path d="M5000 516 c0 -8 4 -17 8 -20 4 -2 8 4 8 15 0 10 -4 19 -8 19 -4 0 -8
-6 -8 -14z"/>
<path d="M5094 519 c-3 -6 -1 -16 5 -22 9 -9 11 -8 6 6 -4 9 -3 17 3 17 6 0
13 -8 15 -17 4 -14 5 -12 6 5 1 23 -22 31 -35 11z"/>
<path d="M5141 508 c0 -16 2 -18 6 -8 3 8 11 18 17 22 7 5 4 8 -6 8 -12 0 -18
-7 -17 -22z"/>
<path d="M5186 515 c4 -8 8 -15 10 -15 2 0 4 7 4 15 0 8 -4 15 -10 15 -5 0 -7
-7 -4 -15z"/>
<path d="M5214 519 c-3 -6 -1 -16 5 -22 9 -9 10 -7 5 7 -5 13 -4 17 4 12 7 -4
12 -2 12 3 0 14 -17 14 -26 0z"/>
<path d="M5955 519 c-11 -16 -1 -19 13 -3 7 8 8 14 3 14 -5 0 -13 -5 -16 -11z"/>
<path d="M106 413 c-3 -4 -6 -46 -6 -95 0 -104 -1 -103 106 -103 95 1 104 9
104 97 0 103 -3 106 -109 107 -49 0 -91 -3 -95 -6z m114 -27 c0 -23 -16 -27
-17 -5 -1 10 2 19 8 19 5 0 9 -6 9 -14z m-16 -83 c-10 -40 -14 -41 -14 -5 0
18 5 32 10 32 6 0 8 -11 4 -27z"/>
<path d="M354 369 c-3 -6 -2 -15 3 -20 5 -5 9 -1 9 11 0 23 -2 24 -12 9z"/>
<path d="M600 359 c0 -11 4 -18 10 -14 5 3 7 12 3 20 -7 21 -13 19 -13 -6z"/>
<path d="M690 360 c0 -11 4 -20 9 -20 5 0 7 9 4 20 -3 11 -7 20 -9 20 -2 0 -4
-9 -4 -20z"/>
<path d="M762 360 c0 -14 2 -19 5 -12 2 6 2 18 0 25 -3 6 -5 1 -5 -13z"/>
<path d="M412 366 c2 -1 12 -8 22 -16 13 -10 17 -10 12 -2 -4 6 -3 12 3 12 5
0 12 -6 14 -12 3 -8 6 -7 6 4 1 12 -7 16 -29 16 -17 -1 -29 -2 -28 -2z"/>
<path d="M481 354 c0 -11 3 -14 6 -6 3 7 2 16 -1 19 -3 4 -6 -2 -5 -13z"/>
<path d="M521 354 c0 -11 3 -14 6 -6 3 7 2 16 -1 19 -3 4 -6 -2 -5 -13z"/>
<path d="M541 354 c0 -11 3 -14 6 -6 3 7 2 16 -1 19 -3 4 -6 -2 -5 -13z"/>
<path d="M563 355 c0 -8 4 -15 9 -15 4 0 8 7 8 15 0 8 -4 15 -8 15 -5 0 -9 -7
-9 -15z"/>
<path d="M647 363 c-13 -12 -7 -23 13 -23 11 0 20 7 20 15 0 15 -21 21 -33 8z"/>
<path d="M721 354 c0 -11 3 -14 6 -6 3 7 2 16 -1 19 -3 4 -6 -2 -5 -13z"/>
<path d="M741 354 c0 -11 3 -14 6 -6 3 7 2 16 -1 19 -3 4 -6 -2 -5 -13z"/>
<path d="M1100 320 c0 -46 2 -50 23 -49 16 1 18 2 5 6 -13 3 -18 15 -18 43 0
28 5 40 18 43 13 4 11 5 -5 6 -21 1 -23 -3 -23 -49z"/>
<path d="M380 349 c0 -5 5 -7 10 -4 6 3 10 8 10 11 0 2 -4 4 -10 4 -5 0 -10
-5 -10 -11z"/>
<path d="M1160 320 c0 -19 3 -21 12 -12 9 9 9 15 0 24 -9 9 -12 7 -12 -12z"/>
</g>
</svg>
